<svg width="27" height="27" viewBox="0 0 27 27" fill="none" xmlns="http://www.w3.org/2000/svg">
<g clip-path="url(#clip0_20_13358)">
<g clip-path="url(#clip1_20_13358)">
<path d="M7.76563 3.37533L7.22396 5.00033H3.33333C1.49479 5.00033 0 6.49512 0 8.33366V21.667C0 23.5055 1.49479 25.0003 3.33333 25.0003H23.3333C25.1719 25.0003 26.6667 23.5055 26.6667 21.667V8.33366C26.6667 6.49512 25.1719 5.00033 23.3333 5.00033H19.4427L18.901 3.37533C18.5625 2.35449 17.6094 1.66699 16.5312 1.66699H10.1354C9.05729 1.66699 8.10417 2.35449 7.76563 3.37533ZM13.3333 10.0003C14.6594 10.0003 15.9312 10.5271 16.8689 11.4648C17.8066 12.4025 18.3333 13.6742 18.3333 15.0003C18.3333 16.3264 17.8066 17.5982 16.8689 18.5359C15.9312 19.4735 14.6594 20.0003 13.3333 20.0003C12.0073 20.0003 10.7355 19.4735 9.7978 18.5359C8.86012 17.5982 8.33333 16.3264 8.33333 15.0003C8.33333 13.6742 8.86012 12.4025 9.7978 11.4648C10.7355 10.5271 12.0073 10.0003 13.3333 10.0003Z" fill="#FE9430"/>
</g>
</g>
<defs>
<clipPath id="clip0_20_13358">
<rect width="26.6667" height="26.6667" fill="white"/>
</clipPath>
<clipPath id="clip1_20_13358">
<path d="M0 0H26.6667V26.6667H0V0Z" fill="white"/>
</clipPath>
</defs>
</svg>
