<svg width="106" height="34" viewBox="0 0 106 34" fill="none" xmlns="http://www.w3.org/2000/svg">
<path d="M103.657 16.1045C102.468 15.6504 101.626 13.4873 100.651 10.9824C99.7345 8.63016 98.6965 5.96356 97.0644 3.83131C95.1506 1.33073 92.8062 0.0791523 89.899 0.00371486C89.8068 0.00114313 89.7143 0 89.6208 0H16.38C16.2861 0 16.1934 0.00114313 16.1026 0.00371486C13.1942 0.0791523 10.8498 1.33073 8.93581 3.83131C7.30367 5.96356 6.26567 8.63016 5.34945 10.9824C4.37423 13.4879 3.53215 15.651 2.34367 16.105L0 17.0006L2.34367 17.8955C3.53215 18.3496 4.37423 20.5127 5.34985 23.0176C6.26567 25.3698 7.30367 28.0364 8.93581 30.1687C10.8496 32.669 13.194 33.9208 16.1012 33.9963H16.1145C16.2024 33.9989 16.2907 34 16.3794 34V33.9963H89.6206V34C89.7119 34 89.8028 33.9989 89.8915 33.9963H90.4764V33.9649C93.1191 33.7468 95.2792 32.5007 97.0642 30.1687C98.6963 28.0364 99.7343 25.3698 100.651 23.0176C101.626 20.5121 102.468 18.349 103.656 17.895L106 16.9994L103.657 16.1045ZM99.5223 22.1146C97.7201 26.7437 95.677 31.9912 89.8775 32.1435H16.1215C10.3234 31.9909 8.28028 26.7437 6.47813 22.1146C5.66017 20.0132 4.92353 18.1216 3.91482 17C4.92372 15.8793 5.66017 13.9876 6.47813 11.8854C8.28068 7.25514 10.3242 2.00652 16.1275 1.85565C16.2106 1.85308 16.2951 1.8525 16.38 1.8525H89.6208C89.7053 1.8525 89.7896 1.85308 89.8745 1.85565C95.6762 2.00624 97.7191 7.25486 99.5223 11.8854C100.34 13.9868 101.077 15.8784 102.086 17C101.077 18.1207 100.34 20.0129 99.5223 22.1146Z" fill="#E8564C"/>
</svg>
