<svg width="147" height="114" viewBox="0 0 147 114" fill="none" xmlns="http://www.w3.org/2000/svg">
<path d="M2.50391 84.0662L39.9067 46.6634C41.4214 45.1486 43.2197 43.947 45.1988 43.1273C47.178 42.3075 49.2992 41.8855 51.4414 41.8855C53.5836 41.8855 55.7048 42.3075 57.684 43.1273C59.6631 43.947 61.4614 45.1486 62.9762 46.6634L100.379 84.0662M89.5039 73.1912L99.7192 62.9759C101.234 61.4611 103.032 60.2595 105.011 59.4398C106.99 58.62 109.112 58.198 111.254 58.198C113.396 58.198 115.517 58.62 117.496 59.4398C119.476 60.2595 121.274 61.4611 122.789 62.9759L143.879 84.0662M13.3789 111.254H133.004C135.888 111.254 138.654 110.108 140.694 108.068C142.733 106.029 143.879 103.263 143.879 100.379V13.3787C143.879 10.4944 142.733 7.72833 140.694 5.68887C138.654 3.64942 135.888 2.50366 133.004 2.50366H13.3789C10.4947 2.50366 7.72858 3.64942 5.68912 5.68887C3.64966 7.72833 2.50391 10.4944 2.50391 13.3787V100.379C2.50391 103.263 3.64966 106.029 5.68912 108.068C7.72858 110.108 10.4947 111.254 13.3789 111.254ZM89.5039 29.6912H89.5619V29.7492H89.5039V29.6912ZM92.2227 29.6912C92.2227 30.4122 91.9362 31.1037 91.4264 31.6136C90.9165 32.1235 90.225 32.4099 89.5039 32.4099C88.7828 32.4099 88.0913 32.1235 87.5815 31.6136C87.0716 31.1037 86.7852 30.4122 86.7852 29.6912C86.7852 28.9701 87.0716 28.2786 87.5815 27.7687C88.0913 27.2589 88.7828 26.9724 89.5039 26.9724C90.225 26.9724 90.9165 27.2589 91.4264 27.7687C91.9362 28.2786 92.2227 28.9701 92.2227 29.6912Z" stroke="#2EA485" stroke-width="5.00719" stroke-linecap="round" stroke-linejoin="round"/>
</svg>
