<svg width="25" height="25" viewBox="0 0 25 25" fill="none" xmlns="http://www.w3.org/2000/svg">
<path d="M18.3547 11.1621H12.0938H5.83297C5.74726 11.1621 5.67773 11.2316 5.67773 11.3175V15.0429C5.67773 16.4648 8.49607 18.5938 12.0939 18.5938C15.6919 18.5938 18.5102 16.4648 18.5102 15.0429V11.3175C18.51 11.2315 18.4404 11.1621 18.3547 11.1621Z" fill="#2E313D"/>
<path d="M18.3566 11.1621H12.0957V18.5936C15.6937 18.5936 18.512 16.4645 18.512 15.0428V11.3173C18.5119 11.2315 18.4424 11.1621 18.3566 11.1621Z" fill="#363A45"/>
<path d="M5.83297 11.1621C5.74726 11.1621 5.67773 11.2316 5.67773 11.3175V15.0429C5.67773 16.4648 8.49607 18.5938 12.0939 18.5938V11.1621H5.83297Z" fill="#2E313D"/>
<path d="M18.3547 11.6211H5.83297C5.74726 11.6211 5.67773 11.6907 5.67773 11.7763V12.4893L12.0173 16.0981C12.0411 16.1116 12.0675 16.1184 12.0939 16.1184C12.1206 16.1184 12.147 16.1116 12.1709 16.0981L18.5101 12.4893V11.7763C18.51 11.6906 18.4404 11.6211 18.3547 11.6211Z" fill="#2E313D"/>
<path opacity="0.35" d="M18.3547 11.6211H5.83297C5.74726 11.6211 5.67773 11.6907 5.67773 11.7763V12.4893L12.0173 16.0981C12.0411 16.1116 12.0675 16.1184 12.0939 16.1184C12.1206 16.1184 12.147 16.1116 12.1709 16.0981L18.5101 12.4893V11.7763C18.51 11.6906 18.4404 11.6211 18.3547 11.6211Z" fill="#2E313D"/>
<path d="M21.0245 10.3657L12.1704 5.61803C12.1226 5.59087 12.0642 5.59087 12.0167 5.61803L3.16247 10.3657C3.11389 10.3932 3.08398 10.4448 3.08398 10.5004C3.08398 10.5563 3.11389 10.6077 3.16247 10.6354L12.0167 15.6758C12.0405 15.6892 12.0669 15.696 12.0934 15.696C12.12 15.696 12.1464 15.6892 12.1702 15.6758L21.0244 10.6354C21.073 10.6077 21.1029 10.5563 21.1029 10.5004C21.1029 10.4446 21.073 10.3932 21.0245 10.3657Z" fill="#2E313D"/>
<path d="M21.0267 10.3656L12.1726 5.61796C12.1487 5.60438 12.1222 5.59766 12.0957 5.59766V15.696C12.1222 15.696 12.1488 15.6893 12.1726 15.6758L21.0267 10.6354C21.0753 10.6078 21.1052 10.5563 21.1052 10.5005C21.1051 10.4447 21.0752 10.3931 21.0267 10.3656Z" fill="#363A45"/>
<path d="M12.0167 5.61809L3.16247 10.3657C3.11389 10.3932 3.08398 10.4448 3.08398 10.5005C3.08398 10.5563 3.11389 10.6078 3.16247 10.6354L12.0167 15.6758C12.0405 15.6893 12.0669 15.696 12.0934 15.696V5.59766C12.0669 5.59778 12.0404 5.60451 12.0167 5.61809Z" fill="#2E313D"/>
<path d="M16.5454 16.46H16.6012C16.7495 16.46 16.8697 16.3397 16.8697 16.1915C16.8697 16.0454 16.7528 15.9271 16.6073 15.9237V13.1072C16.6073 13.1035 16.6069 13.0999 16.6067 13.096C16.6066 13.0893 16.6063 13.0826 16.6056 13.0757C16.6052 13.0711 16.6045 13.0665 16.6038 13.0619C16.6028 13.0553 16.6021 13.0488 16.6008 13.0422C16.6 13.038 16.599 13.0339 16.5981 13.0294C16.5965 13.0226 16.5949 13.0157 16.593 13.0092C16.5917 13.0056 16.5906 13.0023 16.5894 12.999C16.5869 12.9914 16.5844 12.9839 16.5813 12.9767C16.5805 12.9746 16.5795 12.9724 16.5788 12.9703C16.5751 12.9617 16.5709 12.9535 16.5666 12.945C16.5662 12.9444 16.5657 12.9439 16.5655 12.9433C16.541 12.8983 16.5063 12.8581 16.4617 12.8268L12.2209 9.85673C12.0666 9.74859 11.8536 9.78597 11.7453 9.94057C11.6372 10.0949 11.6748 10.3078 11.8293 10.416L15.9246 13.2843V15.9237C15.7792 15.9272 15.6624 16.0455 15.6624 16.1915C15.6624 16.3397 15.7826 16.46 15.9308 16.46H15.9866C15.7988 16.8195 15.5955 17.2561 15.6194 17.4227C15.6564 17.6817 16.1157 17.7192 16.2481 17.7245C16.2481 17.7245 16.2545 17.7255 16.2661 17.7252C16.2773 17.7254 16.2838 17.7245 16.2838 17.7245C16.4162 17.7192 16.8757 17.6816 16.9126 17.4227C16.9363 17.2561 16.7332 16.8195 16.5454 16.46Z" fill="#EEF0C0"/>
<path d="M24.1139 12.0954C24.1139 5.45649 18.732 0.0745825 12.0931 0.0745825C5.45417 0.0745825 0.0722656 5.45649 0.0722656 12.0954C0.0722656 18.7343 5.45417 24.1162 12.0931 24.1162C18.732 24.1162 24.1139 18.7343 24.1139 12.0954Z" fill="#E26C39"/>
<path d="M18.316 11.2949H12.0936H5.87104C5.78582 11.2949 5.7168 11.3641 5.7168 11.4493V15.1519C5.7168 16.5649 8.51781 18.6811 12.0937 18.6811C15.6696 18.6811 18.4705 16.5651 18.4705 15.1519V11.4493C18.4704 11.3641 18.4015 11.2949 18.316 11.2949Z" fill="white"/>
<path d="M18.3182 11.2949H12.0957V18.6811C15.6716 18.6811 18.4725 16.5651 18.4725 15.1519V11.4493C18.4725 11.3641 18.4036 11.2949 18.3182 11.2949Z" fill="white"/>
<path opacity="0.74" d="M18.316 11.957H5.87104C5.78582 11.957 5.7168 12.0262 5.7168 12.1113V12.8195L12.0174 16.4062C12.041 16.4196 12.0674 16.4263 12.0936 16.4263C12.12 16.4263 12.1463 16.4196 12.1698 16.4062L18.4704 12.8195V12.1113C18.4704 12.026 18.4015 11.957 18.316 11.957Z" fill="white"/>
<path d="M21.098 10.2804C21.096 10.2793 21.0943 10.2782 21.0923 10.2771L12.2943 5.55971C12.1725 5.49181 12.0164 5.49181 11.8941 5.55971L3.09635 10.2771C3.09473 10.2782 3.09286 10.2792 3.09086 10.2802C2.96267 10.3532 2.88281 10.4901 2.88281 10.6379C2.88281 10.7854 2.96267 10.9224 3.09074 10.9954L11.8904 16.0047C11.9525 16.0399 12.0231 16.0586 12.0945 16.0586C12.1658 16.0586 12.2364 16.0399 12.298 16.0049L21.0982 10.9954C21.2261 10.9224 21.3061 10.7855 21.3061 10.638C21.3058 10.4902 21.2264 10.3534 21.098 10.2804Z" fill="white"/>
<path d="M21.0994 10.2803C21.0974 10.2792 21.0956 10.2781 21.0936 10.277L12.2957 5.55962C12.2345 5.52561 12.1651 5.50879 12.0957 5.50879V16.0585C12.167 16.0585 12.2376 16.04 12.2993 16.0047L21.0994 10.9952C21.2274 10.9222 21.3074 10.7853 21.3074 10.6376C21.3072 10.4901 21.2277 10.3533 21.0994 10.2803Z" fill="white"/>
<path d="M16.5198 16.5618H16.5752C16.7225 16.5618 16.8419 16.4422 16.8419 16.2951C16.8419 16.1497 16.7257 16.0321 16.5813 16.0289V13.2296C16.5813 13.2259 16.5809 13.2221 16.5807 13.2184C16.5804 13.2114 16.5803 13.2049 16.5797 13.1981C16.5791 13.1933 16.5784 13.1889 16.5779 13.1844C16.577 13.1779 16.5761 13.1713 16.5748 13.1651C16.5741 13.1606 16.5731 13.1563 16.572 13.1522C16.5705 13.1452 16.5688 13.1386 16.5667 13.1319C16.5656 13.1287 16.5645 13.1251 16.5634 13.1218C16.561 13.1145 16.5584 13.1069 16.5554 13.0997C16.5544 13.0977 16.5535 13.0955 16.5527 13.0934C16.5489 13.0848 16.5448 13.0766 16.5406 13.0683C16.5401 13.0678 16.5398 13.0671 16.5396 13.0664C16.5153 13.0219 16.4809 12.982 16.4363 12.9507L12.2216 9.99889C12.0681 9.89138 11.8564 9.92875 11.749 10.0822C11.6415 10.2356 11.6786 10.4474 11.8322 10.5547L15.9026 13.4051V16.0285C15.7582 16.032 15.642 16.1496 15.642 16.2948C15.642 16.4422 15.7615 16.5615 15.9088 16.5615H15.9642C15.7776 16.9188 15.5754 17.3531 15.5992 17.5185C15.636 17.7758 16.0923 17.8131 16.2239 17.8184C16.2239 17.8184 16.2306 17.8194 16.2418 17.819C16.253 17.8195 16.2596 17.8184 16.2596 17.8184C16.3913 17.8131 16.8477 17.7758 16.8845 17.5185C16.9085 17.3531 16.7065 16.9188 16.5198 16.5618Z" fill="#22272C"/>
</svg>
