<svg width="18" height="11" viewBox="0 0 18 11" fill="none" xmlns="http://www.w3.org/2000/svg">
<path d="M0.591797 6.51329L0.591797 8.2896C0.591797 8.76071 0.778944 9.21252 1.11207 9.54565C1.44519 9.87877 1.897 10.0659 2.36811 10.0659H15.3944C15.8655 10.0659 16.3173 9.87877 16.6505 9.54565C16.9836 9.21252 17.1707 8.76071 17.1707 8.2896V2.36855C17.1707 1.89744 16.9836 1.44563 16.6505 1.1125C16.3173 0.779381 15.8655 0.592234 15.3944 0.592234H2.36811C1.897 0.592234 1.44519 0.779381 1.11207 1.1125C0.778944 1.44563 0.591797 1.89744 0.591797 2.36855V4.14487M0.591797 6.51329H1.77601V4.14487H0.591797M0.591797 6.51329V4.14487M15.3944 6.51329V4.14487" stroke="#9D9D9D" stroke-width="1.18421" stroke-linecap="round" stroke-linejoin="round"/>
</svg>
