<svg width="51" height="46" viewBox="0 0 51 46" fill="none" xmlns="http://www.w3.org/2000/svg">
<g clip-path="url(#clip0_20_9262)">
<path d="M38.144 7.49237L44.9928 7.48944C47.8657 7.64057 50.4408 9.88632 50.5933 12.784C50.7867 16.4502 50.4461 20.2798 50.5909 23.9635C50.4028 25.1239 49.7703 26.0886 48.8091 26.7693L48.7551 26.8917L48.7534 40.5829C48.433 43.3353 46.1237 45.413 43.3333 45.5893H7.22947C4.30492 45.3509 2.00397 43.1438 1.80876 40.232V26.6562C1.77791 26.4987 1.54651 26.4389 1.42428 26.3335C0.82739 25.8174 0.167009 24.8252 0.0904689 24.0221C0.299916 20.3296 -0.193145 16.3278 0.0904689 12.6715C0.318309 9.73578 3.01205 7.54919 5.92591 7.48944L12.4787 7.49237C12.4959 6.62898 12.4223 5.76032 12.5552 4.90513C12.9706 2.22417 15.0864 0.224438 17.8401 -0.000488281H32.96C35.1719 0.249625 37.0724 1.6765 37.8052 3.76059C38.2419 5.00237 38.1469 6.1967 38.1446 7.49237H38.144ZM18.6428 2.63537C16.8658 2.64825 15.5071 4.10032 15.3225 5.79488L15.2051 5.67832L15.1451 9.83301L15.1155 6.49719L15.0858 9.83301C15.1 9.91033 15.0876 9.96246 15.001 9.95485C11.7263 10.0011 8.38706 9.82481 5.15576 10.0685C5.10592 10.1048 5.20442 10.161 5.15576 10.1874C4.94869 10.3016 4.66448 10.3655 4.42062 10.5101C3.41017 11.1111 2.84591 12.2252 2.75691 13.3738C2.52136 16.4109 2.93373 19.7304 2.75335 22.7973C2.77649 23.3725 3.02629 24.349 3.70447 24.462V24.5206L3.84865 24.5821H46.8316L46.9757 24.5206V24.462C47.0143 24.4632 47.0635 24.4544 47.0944 24.462C47.1033 24.4644 47.1051 24.5352 47.1531 24.5206C47.1614 24.4854 47.1425 24.4204 47.1537 24.4034C47.1585 24.3964 47.2629 24.3449 47.2724 24.3449C47.2777 24.3449 47.3033 24.3964 47.3596 24.4046C47.4552 24.4181 47.3305 24.3501 47.3317 24.3449C47.3448 24.2775 47.6023 24.0532 47.68 23.8985C47.7815 23.6982 47.8331 23.4539 47.8651 23.2325H47.9245C47.998 23.2267 47.9826 23.1453 47.9868 23.0902C48.2283 20.0408 47.7975 16.6845 47.9868 13.6023L47.9245 13.46H47.8651C47.8165 12.6587 47.5904 12.2416 47.2012 11.5686C47.1745 11.5229 47.2054 11.4344 47.1816 11.4093C47.1514 11.377 46.92 11.2019 46.828 11.1193C45.9404 10.3227 44.9388 10.0146 43.748 9.94665C41.1433 9.79728 38.3237 10.1405 35.7398 9.95192C35.6573 9.94606 35.5398 9.94489 35.4769 9.891L35.4176 6.55576C35.4033 6.10767 35.3001 5.68535 35.3577 5.2683L35.2402 5.32746C34.8575 3.72837 33.6447 2.72089 31.9792 2.63537V2.57679L31.835 2.51529L18.7016 2.51822H18.5829L18.6422 2.63537H18.6428ZM7.55817 43.012H43.2419C44.7021 42.9376 46.2056 41.5248 46.2056 40.0569V25.8081H4.4758V40.0569C4.4758 41.5453 6.08611 42.9646 7.55817 43.012Z" fill="url(#paint0_linear_20_9262)"/>
<path d="M7.55893 43.012C6.08687 42.9646 4.47656 41.5453 4.47656 40.057V25.8081H46.2063V40.057C46.2063 41.5248 44.7028 42.9377 43.2426 43.012H7.55893ZM27.0606 38.9159C27.3176 38.8462 27.5347 38.6559 27.5347 38.3601V35.4635H27.416V35.405H30.7945L30.6764 35.2884C30.9826 35.296 31.055 35.2386 31.0929 34.9088C31.1742 34.1954 31.1618 32.5295 31.0941 31.8026C31.0793 31.6416 30.9476 31.2497 30.7648 31.2497H27.5341V28.2946C27.5341 28.0826 27.2588 27.8248 27.0328 27.7944C26.0176 27.6585 24.6986 27.9027 23.649 27.7944C23.5172 27.7791 23.2069 28.017 23.2069 28.1189V31.2497H19.9169C19.7217 31.2497 19.6036 31.5765 19.5882 31.7441C19.4927 32.7826 19.6618 33.9658 19.5947 35.0201C19.5526 35.1338 19.8783 35.4044 19.9169 35.4044H23.2069V38.5938C23.2069 38.7519 23.4864 38.8767 23.6217 38.9153C23.6846 38.9335 23.703 38.9669 23.8222 38.978C24.4037 39.0325 26.5771 39.0465 27.0595 38.9153L27.0606 38.9159Z" fill="white"/>
<path d="M46.917 24.462C46.9366 24.462 46.9567 24.4615 46.9763 24.462V24.5206H3.70508V24.462C3.72406 24.465 3.74483 24.4597 3.76441 24.462H46.917Z" fill="#090D11"/>
<path d="M46.9763 24.5205L46.8321 24.582H3.84926L3.70508 24.5205H46.9763Z" fill="#313537"/>
<path d="M18.7007 2.51807L31.9783 2.57664V2.63522C27.6043 2.41029 23.0356 2.80391 18.6414 2.63522L18.582 2.51865H18.7007V2.51807Z" fill="#0A161C"/>
<path d="M31.9794 2.57615L18.7012 2.51758L31.8352 2.51465L31.9794 2.57615Z" fill="#2E3739"/>
<path d="M47.9245 23.2335H47.8651C47.721 20.0248 48.058 16.6503 47.8651 13.4609H47.9245V23.2335Z" fill="#0A181F"/>
<path d="M47.9238 23.2335V13.4609L47.9861 13.6033C47.7969 16.6849 48.2276 20.0418 47.9861 23.0912C47.982 23.1462 47.9974 23.2277 47.9238 23.2335Z" fill="#2A3438"/>
<path d="M15.1453 9.83348H15.0859L15.1156 6.49707L15.1453 9.83348Z" fill="#2B2D2E"/>
<path d="M35.4768 9.89149C35.4133 9.83643 35.4222 9.83115 35.4145 9.75091C35.3142 8.77447 35.4501 7.56959 35.4181 6.55566L35.4774 9.8909L35.4768 9.89149Z" fill="#3A4E56"/>
<path d="M47.3324 24.3457C47.3313 24.3509 47.4552 24.4185 47.3602 24.4051C47.3041 24.397 47.2787 24.3457 47.2734 24.3457H47.3324Z" fill="#090D11"/>
<path d="M47.1547 24.4043C47.1435 24.4206 47.1624 24.4858 47.1541 24.5208C47.1069 24.5359 47.1046 24.4649 47.0957 24.4625L47.1547 24.4043Z" fill="#090D11"/>
<path d="M18.6438 2.63587C23.038 2.80457 27.6067 2.41095 31.9807 2.63587C33.6456 2.72139 34.8584 3.72888 35.2417 5.32796L35.3592 5.2688C35.301 5.68585 35.4048 6.10818 35.4191 6.55627C35.4511 7.56961 35.3158 8.77508 35.4155 9.75152C35.4238 9.83176 35.4143 9.83704 35.4778 9.8921C35.5413 9.94716 35.6582 9.94716 35.7407 9.95301C38.3246 10.1416 41.1448 9.79838 43.7489 9.94774C44.9397 10.0163 45.9413 10.3238 46.8289 11.1204C46.9209 11.203 47.1529 11.3781 47.1825 11.4103C47.2063 11.4361 47.176 11.524 47.2021 11.5697C47.5913 12.2421 47.8174 12.6592 47.866 13.461C48.0589 16.6504 47.7219 20.0249 47.866 23.2336C47.834 23.4545 47.7824 23.6993 47.6809 23.8996C47.6026 24.0543 47.3457 24.2786 47.3326 24.346H47.2733C47.2638 24.346 47.16 24.3969 47.1546 24.4045L47.0953 24.4631C47.0645 24.4555 47.0152 24.4643 46.9766 24.4631C46.9571 24.4625 46.9369 24.4631 46.9173 24.4631H3.7653C3.74572 24.4608 3.72496 24.466 3.70597 24.4631C3.02779 24.3495 2.778 23.3736 2.75486 22.7984C2.93523 19.7315 2.52286 16.412 2.75842 13.3749C2.84742 12.2269 3.41108 11.1128 4.42212 10.5112C4.66599 10.366 4.95019 10.3027 5.15727 10.1885C5.20592 10.1615 5.10743 10.1059 5.15727 10.0696C8.38856 9.82591 11.7278 10.0022 15.0025 9.95594C15.0891 9.96356 15.1015 9.91143 15.0873 9.83411H15.1466L15.2066 5.67941L15.324 5.79597C15.5086 4.10141 16.8673 2.64935 18.6443 2.63646L18.6438 2.63587ZM32.8695 6.67342C32.8339 6.4854 32.7396 6.09119 32.6352 5.94651C32.6043 5.90375 32.6025 5.97228 32.4678 5.75497C32.259 5.41817 31.6924 5.22429 31.3013 5.20847L19.2116 5.21609C18.709 5.30863 18.245 5.62845 18.0172 6.08533C17.9846 6.15094 17.8137 6.61543 17.8137 6.64472V9.95067L32.8695 9.8921L32.9318 9.7521C32.8523 8.74872 33.0541 7.65103 32.8695 6.67401V6.67342Z" fill="white"/>
<path d="M32.8683 9.89114L17.8125 9.94972V6.64377C17.8125 6.6139 17.9834 6.14998 18.016 6.08438C18.2433 5.6275 18.7078 5.30768 19.2104 5.21513L31.3002 5.20752C31.6912 5.22392 32.2578 5.41722 32.4667 5.75402C32.6013 5.97133 32.6031 5.9028 32.634 5.94556C32.7384 6.09024 32.8327 6.48503 32.8683 6.67247C32.7675 6.69531 32.8126 6.85464 32.809 6.93606C32.7788 7.69811 32.8007 8.51054 32.809 9.2767C32.8108 9.46179 32.7592 9.73826 32.8683 9.89114Z" fill="#0F7D8A"/>
<path d="M32.8691 9.89201V6.67334C33.0537 7.65036 32.8525 8.74805 32.9314 9.75143L32.8691 9.89143V9.89201Z" fill="#090F13"/>
<path d="M23.6221 38.9163C23.4868 38.877 23.2073 38.7528 23.2073 38.5947V35.4053H19.9173C19.8787 35.4053 19.553 35.1353 19.5951 35.021C19.6622 33.9661 19.4931 32.7835 19.5886 31.745C19.604 31.5774 19.7221 31.2506 19.9173 31.2506H23.2073V28.1198C23.2073 28.0179 23.5177 27.7801 23.6494 27.7953C24.699 27.9036 26.018 27.6594 27.0332 27.7953C27.2592 27.8257 27.5345 28.0835 27.5345 28.2955V31.2506H30.7652C30.948 31.2506 31.0797 31.6425 31.0945 31.8035C31.1622 32.5299 31.174 34.1963 31.0933 34.9097C31.056 35.2395 30.9836 35.2969 30.6768 35.2893L30.7949 35.4059H27.4165V35.4639H27.5351V38.3604C27.5351 38.6562 27.318 38.8465 27.0611 38.9163C27.0379 38.8167 26.8765 38.8612 26.7941 38.8577C25.9646 38.8255 25.0793 38.8489 24.2451 38.8577C24.0576 38.8594 23.7775 38.8085 23.6227 38.9163H23.6221Z" fill="#4D4D4D"/>
<path d="M27.0608 38.9155C26.5779 39.0467 24.4051 39.0327 23.8236 38.9782C23.7043 38.9671 23.6859 38.9337 23.623 38.9155H27.0608Z" fill="#090F13"/>
<path d="M32.8697 9.89201C32.7606 9.73913 32.8128 9.46266 32.8104 9.27757C32.8021 8.51141 32.7802 7.69898 32.8104 6.93693C32.8134 6.85609 32.7689 6.69618 32.8697 6.67334V9.89201Z" fill="#313537"/>
<path d="M27.0608 38.9164H23.623C23.7779 38.8086 24.058 38.8601 24.2455 38.8578C25.0797 38.849 25.9649 38.8256 26.7944 38.8578C26.8763 38.8607 27.0383 38.8168 27.0614 38.9164H27.0608Z" fill="#313537"/>
</g>
<defs>
<linearGradient id="paint0_linear_20_9262" x1="0" y1="22.7944" x2="50.6544" y2="22.7944" gradientUnits="userSpaceOnUse">
<stop offset="0.0288475" stop-color="#0F7D8A"/>
<stop offset="0.495225" stop-color="#3EEBFF"/>
<stop offset="1" stop-color="#0F7D8A"/>
</linearGradient>
<clipPath id="clip0_20_9262">
<rect width="50.6553" height="45.5898" fill="white"/>
</clipPath>
</defs>
</svg>
