<svg width="18" height="34" viewBox="0 0 18 34" fill="none" xmlns="http://www.w3.org/2000/svg">
<path d="M8.98154 0C6.2906 0 4.08789 2.19135 4.08789 4.89365V15.1351C4.08789 17.826 6.27925 20.0287 8.98154 20.0287C11.6838 20.0287 13.8752 17.8374 13.8752 15.1351V4.89365C13.8752 2.19135 11.6725 0 8.98154 0ZM12.2742 16.7701H5.68883C5.4731 16.7701 5.30279 16.5998 5.30279 16.3841C5.30279 16.1683 5.4731 15.998 5.68883 15.998H12.2742C12.49 15.998 12.6603 16.1683 12.6603 16.3841C12.6603 16.5884 12.49 16.7701 12.2742 16.7701ZM12.2742 14.2154H5.68883C5.4731 14.2154 5.30279 14.0451 5.30279 13.8294C5.30279 13.6136 5.4731 13.4433 5.68883 13.4433H12.2742C12.49 13.4433 12.6603 13.6136 12.6603 13.8294C12.6603 14.0451 12.49 14.2154 12.2742 14.2154ZM12.2742 11.6721H5.68883C5.4731 11.6721 5.30279 11.5018 5.30279 11.286C5.30279 11.0703 5.4731 10.9 5.68883 10.9H12.2742C12.49 10.9 12.6603 11.0703 12.6603 11.286C12.6603 11.5018 12.49 11.6721 12.2742 11.6721ZM12.2742 9.12875H5.68883C5.4731 9.12875 5.30279 8.95844 5.30279 8.74271C5.30279 8.52698 5.4731 8.35667 5.68883 8.35667H12.2742C12.49 8.35667 12.6603 8.52698 12.6603 8.74271C12.6603 8.94708 12.49 9.12875 12.2742 9.12875ZM12.2742 6.58542H5.68883C5.4731 6.58542 5.30279 6.4151 5.30279 6.19938C5.30279 5.98365 5.4731 5.81333 5.68883 5.81333H12.2742C12.49 5.81333 12.6603 5.98365 12.6603 6.19938C12.6603 6.40375 12.49 6.58542 12.2742 6.58542ZM12.2742 4.03073H5.68883C5.4731 4.03073 5.30279 3.86042 5.30279 3.64469C5.30279 3.42896 5.4731 3.25865 5.68883 3.25865H12.2742C12.49 3.25865 12.6603 3.42896 12.6603 3.64469C12.6603 3.86042 12.49 4.03073 12.2742 4.03073Z" fill="#FFFFFE"/>
<path d="M9.37854 24.1051V32.5526H13.6931C13.9089 32.5526 14.0792 32.723 14.0792 32.9387C14.0792 33.1544 13.9089 33.3247 13.6931 33.3247H4.29187C4.07615 33.3247 3.90583 33.1544 3.90583 32.9387C3.90583 32.723 4.07615 32.5526 4.29187 32.5526H8.60646V24.1051C3.82635 23.9008 0 19.9495 0 15.1126V12.24C0 12.0243 0.170314 11.854 0.386043 11.854C0.601772 11.854 0.772084 12.0243 0.772084 12.24V13.2846H3.31542V14.0567H0.772084V15.1013C0.772084 19.6316 4.46219 23.3217 8.9925 23.3217C11.1839 23.3217 13.2503 22.4588 14.8058 20.8919C16.35 19.3364 17.2016 17.2813 17.1902 15.1013L17.1789 14.0567H14.6469V13.2846H17.1675L17.1561 12.24C17.1561 12.0243 17.3265 11.854 17.5422 11.854C17.7579 11.854 17.9282 12.0243 17.9282 12.24L17.9396 13.682L17.9509 15.1126C17.9623 17.497 17.0426 19.7565 15.3395 21.4596C13.7499 23.0833 11.638 24.0143 9.37854 24.1051Z" fill="#FFFFFE"/>
</svg>
