<svg width="19" height="21" viewBox="0 0 19 21" fill="none" xmlns="http://www.w3.org/2000/svg">
<path d="M4.0749 20.9798C4.46117 18.4432 4.21394 16.1827 3.3401 14.368C2.97305 13.6057 2.46604 12.9115 1.97572 12.2401C1.39129 11.4399 0.78697 10.6125 0.413604 9.66238C-0.307229 7.82811 -0.0742239 5.61578 1.02167 3.88873C1.91792 2.47633 3.25699 1.37509 4.89414 0.704003C5.67189 0.385209 6.49781 0.171656 7.34893 0.0693129C8.19984 -0.0329944 9.05773 -0.0220061 9.89875 0.102013C11.5726 0.348851 13.0893 0.978949 14.2847 1.92418C14.9161 2.42344 15.4464 3.00374 15.8611 3.64896C16.3002 4.33235 16.6095 5.08949 16.7805 5.89931L16.7891 5.94012C16.8546 6.24831 16.936 6.63187 16.8045 6.94247C16.7651 7.03559 16.7144 7.11212 16.6653 7.18613C16.5689 7.33172 16.4855 7.45745 16.5109 7.67058C16.5423 7.93473 16.674 8.18335 16.8014 8.4238C16.823 8.46452 16.8444 8.50487 16.865 8.5449C16.9637 8.73598 17.0711 8.9326 17.1749 9.12272C17.4793 9.68033 17.7941 10.2569 17.9844 10.8528C18.1699 11.4341 18.0561 11.801 17.6364 11.9743C17.4821 12.038 17.3096 12.0468 17.1427 12.0553C16.8101 12.0723 16.5474 12.0857 16.5423 12.5084C16.5374 12.9099 16.5478 13.1206 16.6159 13.5039C16.623 13.5441 16.6312 13.5898 16.6271 13.6359C16.6156 13.7675 16.5039 13.8798 16.3878 13.9514C16.6678 14.1382 16.5392 14.3833 16.4251 14.601C16.372 14.7022 16.3172 14.8067 16.2988 14.906C16.2767 15.0253 16.2944 15.1685 16.3116 15.307C16.3227 15.3967 16.3332 15.4815 16.3337 15.5607C16.3338 15.5905 16.3342 15.621 16.3345 15.6521C16.3387 16.0111 16.3438 16.4578 16.0859 16.7223C15.4965 17.3268 14.7762 17.1479 14.0796 16.9749C13.5335 16.8392 12.9687 16.699 12.4574 16.9259C11.3272 17.4274 11.5408 19.2539 11.6821 20.4625C11.7041 20.6505 11.7249 20.828 11.7379 20.9797H4.0749V20.9798Z" fill="#F5D3C1"/>
<path d="M2.63329 11.0109C2.94717 11.209 3.32361 11.3574 3.54595 11.4917C4.18019 11.8746 4.83391 12.2715 5.5678 12.3548C7.77229 12.605 8.33879 8.72843 6.60601 7.67672C5.83619 7.20948 5.0343 7.72937 4.44182 8.24716C4.13115 8.51868 3.77268 8.65863 3.412 8.86726C3.06844 9.06599 2.66797 9.30304 2.39067 9.59647C2.21517 9.78218 2.08628 10.0329 2.09409 10.2992C2.10288 10.5987 2.34096 10.8263 2.63329 11.0109Z" fill="#F77265"/>
<path d="M6.99149 10.2921C6.99149 10.2921 6.99149 10.304 6.99151 10.3263C6.99151 10.3485 6.99204 10.3813 6.98972 10.4225C6.98884 10.4637 6.984 10.5137 6.97813 10.5706C6.97084 10.6275 6.96075 10.6912 6.94501 10.7596C6.94093 10.7766 6.93676 10.794 6.93252 10.8117C6.92807 10.8294 6.9222 10.847 6.91699 10.8651C6.9071 10.9015 6.8936 10.938 6.88056 10.9757C6.85148 11.0501 6.81813 11.1275 6.77477 11.2026C6.7317 11.2777 6.68153 11.352 6.62307 11.4212C6.60917 11.439 6.59282 11.4549 6.57779 11.472L6.55463 11.4972L6.52984 11.5208L6.50504 11.5445L6.49382 11.5553L6.48011 11.5666L6.42524 11.6118C6.40701 11.6267 6.38856 11.6385 6.3703 11.6521L6.34286 11.6718C6.33341 11.6781 6.32339 11.6839 6.31369 11.6899C6.29412 11.7019 6.2746 11.7138 6.25511 11.7256C6.23486 11.7362 6.21467 11.7468 6.19455 11.7573C6.17473 11.7684 6.15379 11.7771 6.13321 11.7863C6.11258 11.7954 6.0926 11.8057 6.0717 11.8136C6.02995 11.8296 5.98909 11.8465 5.94725 11.8589C5.86463 11.8866 5.78221 11.906 5.70377 11.9232C5.62478 11.9378 5.54956 11.9502 5.47948 11.9578C5.40943 11.9655 5.34482 11.9702 5.28739 11.9733C5.25863 11.9744 5.23172 11.9754 5.20683 11.9763C5.18188 11.9766 5.15899 11.9768 5.13828 11.977C5.09682 11.9778 5.06426 11.9765 5.04198 11.9764C5.0197 11.9761 5.00781 11.9759 5.00781 11.9759C5.00781 11.9759 5.01956 11.9777 5.04157 11.981C5.06364 11.9839 5.09588 11.9904 5.13738 11.9939C5.15814 11.9961 5.1811 11.9984 5.20612 12.001C5.23124 12.0025 5.2584 12.0041 5.28742 12.0058C5.34554 12.0083 5.41135 12.0097 5.48315 12.0066C5.51912 12.0061 5.55638 12.002 5.59514 11.9998C5.63385 11.9967 5.67358 11.9906 5.71464 11.9858C5.79613 11.9723 5.88252 11.9573 5.96928 11.9305C6.05647 11.9058 6.14512 11.8732 6.23112 11.8309C6.25248 11.82 6.27393 11.809 6.29543 11.7981C6.31622 11.7857 6.33707 11.7733 6.35797 11.7609C6.36835 11.7545 6.3789 11.7486 6.3892 11.7419L6.41966 11.7205C6.43957 11.7061 6.46116 11.6922 6.47967 11.6771L6.53407 11.6313L6.54765 11.6199L6.56203 11.6061L6.58821 11.5806L6.61433 11.5551L6.63872 11.5281C6.65457 11.5098 6.67169 11.4926 6.68628 11.4735C6.74813 11.3997 6.79723 11.3183 6.84044 11.2382C6.8842 11.1581 6.91423 11.075 6.94043 10.9962C6.9649 10.9168 6.98253 10.8402 6.99278 10.7686C6.99944 10.7331 7.00158 10.6985 7.00536 10.6659C7.00847 10.6333 7.00875 10.602 7.01043 10.5729C7.01149 10.5145 7.01025 10.4637 7.00654 10.422C7.00458 10.3801 6.99882 10.348 6.99607 10.3259C6.9931 10.3039 6.99149 10.2921 6.99149 10.2921Z" fill="#F24141"/>
<path d="M6.55419 10.2885C6.55419 10.2885 6.55329 10.3016 6.55159 10.3261C6.55074 10.3384 6.5497 10.3536 6.54848 10.3714C6.54661 10.3892 6.54339 10.4093 6.54065 10.4319C6.53839 10.4545 6.53345 10.4792 6.52772 10.5061C6.52498 10.5195 6.52212 10.5334 6.51917 10.5479C6.51532 10.5622 6.51133 10.5769 6.50719 10.5922C6.49138 10.6533 6.46571 10.7198 6.4339 10.7898C6.4007 10.8595 6.35689 10.9306 6.30426 11.0006C6.25145 11.0707 6.18513 11.1357 6.11125 11.1954C6.03737 11.2547 5.95119 11.3056 5.86219 11.3461C5.81461 11.3652 5.76629 11.388 5.7185 11.4038L5.64649 11.4297L5.57251 11.4526C5.52362 11.4693 5.47311 11.4809 5.4236 11.495C5.37351 11.507 5.3235 11.5188 5.27357 11.5288C5.17344 11.5474 5.07457 11.5657 4.97781 11.575C4.95365 11.5775 4.92973 11.5806 4.90595 11.5827C4.88213 11.5844 4.85856 11.5861 4.83523 11.5877C4.78857 11.5922 4.74281 11.5929 4.69824 11.5945C4.65363 11.5969 4.61033 11.5947 4.56832 11.5948C4.52624 11.5956 4.48587 11.5919 4.4469 11.5903C4.40784 11.5891 4.37084 11.5842 4.33542 11.5809C4.3177 11.5792 4.30042 11.5775 4.28364 11.5759C4.267 11.5734 4.25082 11.5709 4.23515 11.5685C4.20386 11.5633 4.17416 11.56 4.14729 11.5542C4.12033 11.5486 4.09556 11.5435 4.07319 11.5388C4.02825 11.5299 3.9941 11.5184 3.97011 11.5127C3.9463 11.5063 3.93359 11.5029 3.93359 11.5029C3.93359 11.5029 3.94577 11.5078 3.96857 11.5171C3.98002 11.5217 3.99414 11.5274 4.01073 11.5341C4.02728 11.5411 4.04645 11.5488 4.0686 11.5552C4.09063 11.5621 4.11503 11.5698 4.14158 11.5783C4.16812 11.5871 4.19776 11.5925 4.229 11.6005C4.2447 11.6043 4.2609 11.6082 4.27758 11.6122C4.29443 11.6152 4.31176 11.6184 4.32956 11.6216C4.36519 11.628 4.40271 11.635 4.44223 11.639C4.52104 11.6494 4.6071 11.6564 4.69826 11.658C4.74382 11.6587 4.79072 11.6601 4.83857 11.6578C4.8625 11.657 4.88671 11.6562 4.91114 11.6554C4.93554 11.6539 4.96009 11.6516 4.98492 11.6497C5.03463 11.6464 5.08486 11.6403 5.1357 11.6338C5.18676 11.6287 5.23765 11.6182 5.28924 11.6095C5.34061 11.5997 5.39211 11.5881 5.44374 11.5762C5.49483 11.5622 5.54689 11.5508 5.59747 11.5339L5.67354 11.5096L5.74903 11.4816C5.80028 11.4638 5.84607 11.4416 5.89415 11.4218C5.99311 11.3764 6.08046 11.3186 6.15858 11.2532C6.23626 11.1878 6.30284 11.1146 6.35523 11.0381C6.40794 10.9618 6.44877 10.884 6.47843 10.8093C6.50734 10.7343 6.52781 10.6635 6.53869 10.5995C6.54161 10.5836 6.54442 10.5682 6.54712 10.5533C6.54922 10.5383 6.55041 10.5238 6.55189 10.5098C6.55493 10.4821 6.55738 10.4565 6.55738 10.4332C6.55795 10.41 6.55897 10.3894 6.55853 10.3715C6.55758 10.3537 6.55678 10.3385 6.55613 10.3262C6.55488 10.3016 6.55419 10.2885 6.55419 10.2885Z" fill="#F24141"/>
<path d="M6.07531 10.3322C6.07531 10.3322 6.07273 10.3446 6.06789 10.368C6.06547 10.3797 6.06248 10.3941 6.05896 10.411C6.05446 10.4277 6.04803 10.4463 6.04185 10.4673C6.03642 10.4885 6.02646 10.5109 6.01612 10.5352C6.01061 10.5472 6.00648 10.5603 5.99952 10.5728C5.99284 10.5853 5.98591 10.5983 5.97876 10.6117C5.97519 10.6184 5.97159 10.6252 5.96791 10.6321C5.96387 10.6388 5.95925 10.6453 5.95485 10.6521C5.94599 10.6655 5.93685 10.6793 5.92747 10.6935C5.91753 10.7072 5.90625 10.7205 5.89543 10.7346C5.88993 10.7416 5.88438 10.7487 5.87878 10.7558C5.87286 10.7627 5.86635 10.7693 5.86007 10.7761C5.81107 10.8319 5.74888 10.884 5.67979 10.9332C5.61021 10.9821 5.53167 11.0264 5.44664 11.064C5.36179 11.1018 5.27008 11.1323 5.17585 11.1564C5.15159 11.1625 5.12725 11.1686 5.10281 11.1748C5.0784 11.1809 5.05446 11.1846 5.0302 11.1897C4.98217 11.2002 4.93259 11.2072 4.88307 11.2144C4.83377 11.2227 4.78372 11.2263 4.73425 11.2325C4.68443 11.2358 4.63491 11.2406 4.58552 11.2421C4.4868 11.2456 4.38933 11.2483 4.29481 11.2454C4.1058 11.2415 3.92892 11.2286 3.77702 11.2176C3.6252 11.2058 3.49826 11.1968 3.40936 11.1915C3.32041 11.1864 3.26953 11.1845 3.26953 11.1845C3.26953 11.1845 3.31969 11.1931 3.40745 11.2083C3.49526 11.2231 3.62055 11.2444 3.77174 11.2662C3.84734 11.2771 3.92941 11.2883 4.01663 11.2976C4.10387 11.3068 4.19613 11.3161 4.29209 11.3203C4.34004 11.3229 4.38887 11.3249 4.43841 11.3253C4.48791 11.3271 4.53812 11.3256 4.58871 11.3242C4.63931 11.3231 4.6903 11.3187 4.7415 11.3158C4.79252 11.3099 4.84403 11.3068 4.89504 11.2986C4.94602 11.2907 4.99701 11.283 5.04785 11.2714C5.07306 11.2659 5.09905 11.2614 5.12343 11.255C5.14779 11.2487 5.17208 11.2423 5.19629 11.236C5.29573 11.2101 5.38997 11.1736 5.47816 11.1318C5.56658 11.0904 5.64671 11.039 5.71745 10.9841C5.78815 10.9292 5.84972 10.8698 5.89724 10.8075C5.90334 10.7999 5.90966 10.7926 5.91537 10.7849C5.92078 10.7771 5.92611 10.7692 5.93141 10.7615C5.94178 10.7459 5.95266 10.7312 5.96169 10.7159C5.97021 10.7003 5.97851 10.6851 5.98657 10.6703C5.99052 10.6629 5.99468 10.6557 5.99828 10.6484C6.00149 10.6409 6.00466 10.6335 6.00777 10.6262C6.02033 10.5972 6.03236 10.5703 6.03912 10.5437C6.04713 10.5177 6.05481 10.494 6.05821 10.4715C6.06241 10.4493 6.06676 10.4297 6.069 10.4125C6.07036 10.3952 6.07153 10.3806 6.07246 10.3687C6.0743 10.3448 6.07531 10.3322 6.07531 10.3322Z" fill="#F24141"/>
<path d="M5.57652 10.494C5.57652 10.494 5.56889 10.5029 5.55456 10.5194C5.54009 10.5357 5.52013 10.5615 5.49011 10.5884C5.46221 10.6173 5.42372 10.6479 5.37904 10.6813C5.33291 10.7129 5.27928 10.7458 5.21711 10.7746C5.20156 10.7818 5.1857 10.789 5.16951 10.7964C5.15285 10.8027 5.13588 10.8091 5.1186 10.8156C5.0845 10.8296 5.04746 10.8396 5.01027 10.8517C4.93442 10.8722 4.85358 10.8904 4.76852 10.903C4.68352 10.9159 4.59496 10.9244 4.50447 10.9299C4.41402 10.9356 4.32189 10.937 4.22834 10.9387C4.13529 10.9414 4.04223 10.944 3.95062 10.9467C3.85932 10.9478 3.76958 10.9507 3.68301 10.9487C3.59634 10.9477 3.51292 10.9437 3.43384 10.9383C3.35507 10.9311 3.2806 10.923 3.21253 10.9112C3.14446 10.8995 3.08261 10.8855 3.02827 10.871C3.00126 10.863 2.97596 10.8555 2.95258 10.8486C2.92964 10.8403 2.90856 10.8327 2.88951 10.8258C2.85088 10.8128 2.82263 10.7978 2.80226 10.7897C2.78219 10.7809 2.77148 10.7762 2.77148 10.7762C2.77148 10.7762 2.78143 10.7823 2.80007 10.7938C2.80943 10.7995 2.82099 10.8066 2.83455 10.8149C2.84139 10.819 2.84862 10.8237 2.85658 10.8282C2.86475 10.8323 2.87344 10.8366 2.88261 10.8412C2.90103 10.8504 2.92146 10.8605 2.94366 10.8716C2.96667 10.881 2.99154 10.8911 3.01813 10.9019C3.07187 10.9221 3.13369 10.9424 3.20253 10.9591C3.23673 10.9686 3.27309 10.9745 3.31042 10.9828C3.34789 10.9901 3.38701 10.9952 3.42709 11.0015C3.50748 11.0113 3.59258 11.0205 3.68066 11.0236C3.76875 11.0278 3.85968 11.0299 3.95184 11.0288C4.04401 11.0279 4.13736 11.0257 4.23032 11.0237C4.32312 11.021 4.41743 11.0186 4.51009 11.0118C4.60279 11.0057 4.69368 10.9922 4.78108 10.9767C4.86867 10.9615 4.95174 10.9374 5.02933 10.912C5.06751 10.8972 5.10545 10.8853 5.1401 10.8681C5.15755 10.8599 5.17471 10.852 5.19154 10.8441C5.20785 10.8352 5.22384 10.8264 5.23951 10.8178C5.27133 10.8016 5.29908 10.7811 5.32629 10.7635C5.35326 10.7454 5.37621 10.7243 5.39902 10.7067C5.44222 10.6683 5.47746 10.6324 5.50285 10.5994C5.5306 10.5685 5.54581 10.5402 5.55823 10.5221C5.57016 10.5038 5.57652 10.494 5.57652 10.494Z" fill="#F24141"/>
<path d="M7.02846 9.59851C7.02846 9.59851 7.02991 9.58925 7.03263 9.5719C7.03525 9.55455 7.03968 9.52913 7.04382 9.49661C7.04822 9.4641 7.05352 9.4246 7.05774 9.37903C7.06235 9.33351 7.06678 9.28194 7.06855 9.22537C7.07005 9.19712 7.06977 9.16756 7.07039 9.13695C7.06966 9.10631 7.06936 9.07462 7.06677 9.04199C7.063 8.97676 7.05507 8.90762 7.03892 8.83722C7.02288 8.76701 7.00218 8.69413 6.96836 8.62499C6.96101 8.60723 6.95068 8.59077 6.94188 8.57353C6.93702 8.56478 6.93331 8.55688 6.92748 8.54743L6.91287 8.52371C6.90335 8.50798 6.8912 8.49102 6.88031 8.47489C6.86855 8.45947 6.85759 8.44334 6.8451 8.42846C6.79592 8.36829 6.74064 8.31351 6.68158 8.26558C6.62298 8.21699 6.55963 8.17677 6.49635 8.14235C6.43243 8.10776 6.37024 8.08027 6.30486 8.06098C6.24184 8.04164 6.18207 8.02918 6.12784 8.01644C6.07367 8.00353 6.0247 7.99107 5.98246 7.97652C5.94031 7.96189 5.90443 7.94634 5.87664 7.93012C5.86238 7.92253 5.85035 7.91465 5.83994 7.90755C5.82922 7.90083 5.82055 7.89449 5.81396 7.88878C5.80026 7.8778 5.79297 7.87195 5.79297 7.87195C5.79297 7.87195 5.79917 7.87898 5.81081 7.89218C5.81645 7.89905 5.82403 7.90687 5.83358 7.91548C5.84275 7.92459 5.85383 7.93447 5.86729 7.94424C5.89342 7.96491 5.92803 7.98671 5.97004 8.00662C6.01188 8.02697 6.06086 8.04582 6.11445 8.06342C6.16787 8.08151 6.22573 8.09934 6.28435 8.1211C6.29905 8.12654 6.31279 8.13258 6.32737 8.13847C6.34173 8.14537 6.35874 8.15246 6.37144 8.15944C6.40052 8.17458 6.43034 8.18975 6.45934 8.20751C6.51804 8.24183 6.57457 8.28356 6.62915 8.32886C6.6837 8.37426 6.73417 8.42596 6.77892 8.48189C6.79069 8.49544 6.80088 8.51017 6.81194 8.52422C6.82203 8.53892 6.83201 8.55201 6.84199 8.56796L6.85692 8.59149C6.86093 8.59776 6.86538 8.60656 6.86959 8.61395C6.87775 8.62958 6.88747 8.64431 6.89436 8.66051C6.92556 8.72337 6.94907 8.78929 6.9663 8.85487C6.98338 8.92046 6.9961 8.98549 7.00377 9.04807C7.01186 9.11055 7.01682 9.17036 7.01991 9.22581C7.02276 9.28127 7.02453 9.33238 7.02536 9.37778C7.02599 9.42325 7.02654 9.46291 7.027 9.49558C7.02794 9.56107 7.02846 9.59851 7.02846 9.59851Z" fill="#F24141"/>
<path d="M6.561 9.54546C6.561 9.54546 6.56049 9.53611 6.55953 9.5186C6.55854 9.50111 6.55738 9.47539 6.55452 9.44273C6.55169 9.41008 6.5481 9.3704 6.54194 9.32503C6.53551 9.27972 6.5281 9.22839 6.51517 9.17312C6.50289 9.11777 6.48733 9.05779 6.4635 8.99636C6.44016 8.9349 6.41083 8.87084 6.37018 8.80992C6.3501 8.77933 6.32715 8.74975 6.30217 8.72112C6.28874 8.70716 6.27669 8.69371 6.26178 8.67916C6.248 8.66688 6.23546 8.65481 6.22023 8.64248C6.16009 8.59248 6.0961 8.55062 6.02821 8.51369C5.96017 8.47771 5.88953 8.44797 5.81907 8.42273C5.74874 8.39697 5.67783 8.37787 5.60949 8.36015C5.59237 8.35593 5.57538 8.35172 5.55856 8.34755L5.54596 8.34452L5.53849 8.34277L5.53224 8.34153L5.50727 8.33694C5.49065 8.33392 5.47201 8.33213 5.45489 8.32985C5.43806 8.32858 5.42143 8.32733 5.40502 8.32607C5.33976 8.32213 5.27934 8.3227 5.22417 8.32051C5.16912 8.31793 5.11896 8.31434 5.07573 8.30517C5.06471 8.30351 5.05469 8.30005 5.0446 8.29772C5.03453 8.29531 5.02494 8.29263 5.01604 8.28922C5.00697 8.28607 4.99828 8.28304 4.98996 8.28016C4.98201 8.27641 4.97443 8.27284 4.96724 8.26943C4.95237 8.26325 4.94083 8.25479 4.92991 8.24855C4.91883 8.24247 4.91057 8.23573 4.90384 8.23021C4.89013 8.21931 4.88281 8.2135 4.88281 8.2135C4.88281 8.2135 4.88903 8.2205 4.90071 8.23361C4.9065 8.2403 4.91369 8.24859 4.92376 8.25662C4.93355 8.26496 4.94433 8.27555 4.95871 8.28404C4.98577 8.30401 5.02312 8.32141 5.06738 8.33664C5.11179 8.35185 5.16369 8.36181 5.21993 8.36918C5.27614 8.37688 5.33686 8.38193 5.39924 8.38934C5.41468 8.39155 5.43032 8.39379 5.44617 8.39605C5.46145 8.39925 5.47592 8.40133 5.49217 8.4054L5.51676 8.41165L5.52296 8.41313L5.52789 8.41455L5.54013 8.41804C5.55646 8.42278 5.57294 8.42757 5.58957 8.43241C5.65596 8.45184 5.72325 8.47513 5.79074 8.49988C5.8581 8.52498 5.92477 8.55431 5.98818 8.58874C6.05174 8.62204 6.11342 8.66168 6.16677 8.70479C6.18032 8.71521 6.19422 8.72848 6.20797 8.73995C6.21943 8.75039 6.23217 8.76334 6.24418 8.7748C6.26747 8.79948 6.28925 8.82522 6.30863 8.85236C6.38638 8.96101 6.43444 9.08106 6.4682 9.18585C6.50185 9.29102 6.52287 9.38186 6.53784 9.44532C6.55257 9.50905 6.561 9.54546 6.561 9.54546Z" fill="#F24141"/>
<path d="M6.05752 9.51716C6.05752 9.51716 6.05324 9.50846 6.04522 9.49218C6.03685 9.47603 6.02674 9.45144 6.00777 9.4228C5.99051 9.393 5.96644 9.35899 5.93636 9.32169C5.90553 9.28511 5.86884 9.24481 5.8235 9.20663C5.77948 9.16674 5.72653 9.13003 5.66899 9.09385C5.61064 9.05915 5.54713 9.02567 5.47886 8.99712C5.41049 8.96914 5.33879 8.94276 5.26436 8.92172C5.18952 8.90102 5.11456 8.88232 5.03591 8.8684C4.95803 8.85549 4.87963 8.84765 4.80253 8.84316C4.72544 8.83842 4.64956 8.83941 4.57654 8.84121C4.50326 8.84289 4.43342 8.84793 4.36682 8.85289C4.30024 8.85766 4.23722 8.86452 4.17929 8.87291C4.06331 8.88911 3.96826 8.91374 3.9039 8.93605C3.87154 8.94667 3.84689 8.95725 3.8302 8.96444C3.81356 8.97174 3.80469 8.97562 3.80469 8.97562C3.80469 8.97562 3.81407 8.97325 3.83168 8.96882C3.84921 8.96428 3.87521 8.95879 3.90823 8.95243C3.9743 8.93953 4.06942 8.92759 4.18406 8.92154C4.24142 8.91865 4.30366 8.91745 4.36965 8.91637C4.43563 8.9157 4.5057 8.91573 4.57718 8.91616C4.64892 8.91653 4.72272 8.92056 4.79734 8.92517C4.87193 8.93041 4.94726 8.93912 5.02163 8.95223C5.09525 8.96421 5.17056 8.98188 5.24247 9.00081C5.31442 9.02081 5.38479 9.04173 5.45123 9.06653C5.51734 9.09203 5.58009 9.1193 5.63785 9.1489C5.66588 9.16496 5.69425 9.17916 5.71968 9.19592C5.73264 9.20398 5.7454 9.2119 5.75793 9.21967C5.76994 9.22818 5.78172 9.23652 5.79328 9.2447C5.83944 9.27765 5.87876 9.31187 5.91254 9.34363C5.94516 9.37642 5.97337 9.40584 5.99379 9.43218C6.01566 9.4575 6.03063 9.47988 6.04126 9.49451C6.05186 9.50928 6.05752 9.51716 6.05752 9.51716Z" fill="#F24141"/>
<path d="M5.52677 9.62246C5.52677 9.62246 5.52075 9.61398 5.50944 9.5981C5.49725 9.58286 5.47999 9.55946 5.4536 9.53381C5.40208 9.48143 5.31629 9.41663 5.20156 9.36248C5.17349 9.34902 5.14201 9.33522 5.11113 9.323C5.08064 9.30984 5.04631 9.29901 5.01174 9.28689C4.94248 9.26498 4.8683 9.24523 4.79027 9.23118C4.71231 9.21703 4.63097 9.20656 4.54804 9.20187C4.46513 9.19702 4.38077 9.19615 4.29668 9.19905C4.21262 9.20297 4.12892 9.2105 4.04696 9.22037C3.96506 9.23003 3.88652 9.24226 3.80901 9.25254C3.65455 9.2742 3.50944 9.30086 3.38878 9.33819C3.35846 9.34674 3.32995 9.35713 3.30279 9.36639C3.2761 9.37723 3.25036 9.38607 3.22713 9.39693C3.18003 9.41695 3.14047 9.43767 3.10867 9.45574C3.07661 9.47339 3.05274 9.48938 3.03659 9.50042C3.02038 9.51123 3.01172 9.51699 3.01172 9.51699C3.01172 9.51699 3.02117 9.51263 3.03887 9.50443C3.04769 9.50037 3.05857 9.49533 3.07136 9.48942C3.08436 9.48405 3.09931 9.47788 3.11604 9.47097C3.14945 9.45726 3.19072 9.44246 3.23845 9.42746C3.28622 9.41248 3.34085 9.39838 3.40095 9.3855C3.461 9.37245 3.52688 9.36216 3.59675 9.35227C3.66671 9.34269 3.741 9.33524 3.81809 9.32692C3.89505 9.31888 3.97603 9.31144 4.05634 9.30199C4.13664 9.29325 4.21838 9.28706 4.30011 9.28402C4.3818 9.28023 4.46354 9.28012 4.54371 9.28385C4.62383 9.28803 4.70268 9.29346 4.77817 9.30494C4.85359 9.3165 4.92611 9.33047 4.994 9.34764C5.02741 9.35702 5.05972 9.36556 5.09194 9.37631C5.1244 9.38617 5.15325 9.39612 5.18238 9.40716C5.23944 9.42923 5.29062 9.45235 5.33421 9.47636C5.37779 9.50032 5.41404 9.52454 5.44252 9.54644C5.47107 9.56833 5.49181 9.58771 5.50596 9.60102C5.51951 9.61501 5.52677 9.62246 5.52677 9.62246Z" fill="#F24141"/>
<path d="M4.97656 9.80099C4.97656 9.80099 4.96811 9.79576 4.95225 9.78594C4.93585 9.77702 4.91193 9.76281 4.87916 9.75C4.84657 9.73684 4.80583 9.7228 4.75783 9.71225C4.70993 9.70123 4.65511 9.69227 4.59533 9.68623C4.53533 9.68001 4.47142 9.67457 4.40282 9.671C4.33425 9.66692 4.26216 9.66374 4.18735 9.66287C4.11261 9.66227 4.03528 9.66133 3.95679 9.6642C3.87831 9.66692 3.79858 9.67043 3.71898 9.67598C3.63943 9.68215 3.55998 9.68981 3.48196 9.69882C3.40386 9.70706 3.3275 9.71946 3.25364 9.73089C3.18015 9.74237 3.10831 9.75578 3.04088 9.77281C2.97348 9.78929 2.91064 9.80998 2.85457 9.83401C2.79837 9.85766 2.74908 9.88515 2.709 9.91453C2.66893 9.94379 2.63677 9.97297 2.61436 10.0004C2.60224 10.0133 2.59335 10.0264 2.58551 10.0376C2.57731 10.0485 2.57141 10.0584 2.56692 10.0667C2.55766 10.0829 2.55273 10.0916 2.55273 10.0916C2.55273 10.0916 2.55899 10.0839 2.5707 10.0694C2.57635 10.062 2.58367 10.0533 2.59339 10.044C2.60284 10.0345 2.61307 10.0232 2.62639 10.0123C2.6513 9.98894 2.68591 9.96571 2.72649 9.942C2.76744 9.91861 2.81673 9.89798 2.87179 9.87973C2.92704 9.8618 2.98853 9.84729 3.05431 9.83491C3.12004 9.8226 3.19045 9.8145 3.26413 9.80507C3.33752 9.79592 3.41358 9.7886 3.49074 9.78051C3.56793 9.77253 3.64651 9.7661 3.72514 9.7608C3.80369 9.75433 3.88241 9.74988 3.95992 9.74622C4.03744 9.74303 4.11376 9.73923 4.18769 9.7376C4.26157 9.73643 4.33325 9.73435 4.40093 9.73426C4.46859 9.73417 4.53346 9.73393 4.5922 9.73477C4.65114 9.73612 4.7049 9.73877 4.75226 9.74417C4.79961 9.74963 4.84052 9.75741 4.87379 9.76597C4.90713 9.77451 4.93264 9.78364 4.95009 9.79002C4.96737 9.79717 4.97656 9.80099 4.97656 9.80099Z" fill="#F24141"/>
<path d="M4.89204 10.1653C4.89204 10.1653 4.88377 10.1701 4.86828 10.1792C4.85268 10.188 4.83042 10.2027 4.80047 10.2169C4.78553 10.2242 4.7697 10.2331 4.75141 10.2411C4.73311 10.2489 4.71333 10.2574 4.69218 10.2664C4.67055 10.2741 4.64755 10.2823 4.6233 10.2909C4.59855 10.2981 4.57286 10.3063 4.54574 10.3138C4.49099 10.3273 4.43151 10.3404 4.36755 10.3499C4.30385 10.3603 4.23578 10.3664 4.16533 10.3726C4.09485 10.3788 4.02138 10.3807 3.94672 10.3846C3.87165 10.3875 3.79539 10.3904 3.71912 10.3933C3.64273 10.3973 3.5668 10.4012 3.492 10.4039C3.41721 10.4065 3.34386 10.4095 3.27281 10.4103C3.20188 10.4101 3.13321 10.411 3.06837 10.408C3.00345 10.4057 2.94228 10.4013 2.88589 10.3959C2.82962 10.3897 2.77827 10.3822 2.73295 10.3738C2.68804 10.3641 2.64843 10.356 2.61688 10.3458C2.58473 10.3371 2.56028 10.3278 2.54348 10.3215C2.52659 10.3153 2.51758 10.312 2.51758 10.312C2.51758 10.312 2.5259 10.3168 2.54148 10.3257C2.55715 10.3345 2.57976 10.3487 2.61098 10.3616C2.64149 10.3764 2.68006 10.3906 2.72493 10.4053C2.74756 10.4118 2.77159 10.4195 2.79722 10.4261C2.82296 10.432 2.85008 10.4387 2.8786 10.4442C2.99254 10.467 3.12766 10.4806 3.2721 10.4852C3.34429 10.4866 3.41895 10.4886 3.49449 10.4861C3.57003 10.4843 3.64674 10.4814 3.72297 10.4783C3.79934 10.4744 3.87572 10.4705 3.95089 10.4666C4.02639 10.4623 4.10074 10.4556 4.17275 10.447C4.24475 10.4386 4.31417 10.427 4.37932 10.4121C4.44472 10.3987 4.50525 10.3793 4.5603 10.3602C4.58759 10.3498 4.61358 10.3394 4.63803 10.3291C4.66188 10.3174 4.68451 10.3063 4.70576 10.2958C4.7262 10.284 4.74534 10.2729 4.76304 10.2626C4.78048 10.252 4.7956 10.2405 4.80961 10.2311C4.83812 10.2127 4.85676 10.1941 4.87095 10.183C4.88471 10.1714 4.89204 10.1653 4.89204 10.1653Z" fill="#F24141"/>
<path d="M9.84703 1.03221C9.27864 0.969603 8.70499 0.952732 8.13406 0.985856C7.76882 1.00704 7.0025 0.960311 6.78133 1.3364C6.36584 1.05278 5.55458 1.4945 5.15505 1.66256C4.57996 1.90448 4.03235 2.21128 3.52753 2.57802C3.29664 2.74577 2.97716 2.9113 2.96114 3.23185C2.67821 3.14359 2.40346 3.59184 2.25576 3.76768C1.98264 4.09285 1.29977 4.78365 1.53095 5.25653C1.01373 5.24245 0.858864 6.46968 0.804345 6.82573C0.706419 7.4654 0.734156 8.12249 0.903967 8.74784C1.24431 10.0011 2.51827 9.77987 3.50746 9.56363C3.84537 9.48977 4.72052 9.50291 4.85003 9.13476C5.31011 9.39594 5.83072 9.22325 6.32977 9.23812C6.90574 9.25529 7.47833 9.33036 8.04536 9.43046C8.51246 9.51293 9.27518 9.93989 9.72147 9.62348C9.66923 9.66053 10.002 9.85273 10.0257 9.862C10.7504 10.1452 11.9979 9.92134 12.4933 9.29565C12.8614 8.83073 12.9007 8.17876 12.7149 7.62797C12.7148 7.62778 12.7141 7.62825 12.714 7.62808C12.7143 7.62804 12.7146 7.62786 12.7149 7.62797C13.4066 7.89088 15.7785 7.59877 15.3346 6.49697C16.0034 6.32331 15.7966 5.28967 15.6219 4.82492C15.6217 4.8246 15.6216 4.82428 15.6215 4.82394C15.425 4.30191 14.9935 3.26647 14.3176 3.26732C14.5529 2.83486 12.8851 1.9808 12.5691 1.82237C12.0881 1.5812 11.3522 1.09247 10.7987 1.37011C10.5573 1.06998 10.2191 1.0732 9.84703 1.03221Z" fill="#FC9074"/>
<path d="M11.6859 8.9278C11.6859 8.9278 11.6919 8.92382 11.7035 8.91612C11.7153 8.90879 11.7318 8.89656 11.7532 8.87992C11.7635 8.87123 11.7749 8.86128 11.7872 8.85015C11.7987 8.83819 11.8124 8.82604 11.8248 8.81077C11.8509 8.78134 11.8779 8.7443 11.9002 8.69836C11.9227 8.65259 11.9406 8.59803 11.9488 8.53664C11.9572 8.47536 11.9548 8.40718 11.939 8.33712C11.9233 8.26709 11.8941 8.19502 11.8503 8.12704C11.8288 8.09279 11.803 8.05996 11.774 8.02896C11.7449 7.99793 11.713 7.9681 11.6772 7.94156C11.6068 7.88693 11.5214 7.84678 11.4354 7.81173C11.3922 7.79383 11.3482 7.77714 11.3048 7.75866L11.2967 7.75521L11.2897 7.75191L11.2734 7.74414C11.2625 7.73894 11.2516 7.73373 11.2406 7.7285L11.2241 7.72064L11.209 7.71191L11.1786 7.69444C11.0971 7.64614 11.02 7.58372 10.9483 7.51242C10.8765 7.44092 10.8085 7.36105 10.7364 7.28033C10.6643 7.19988 10.5876 7.11777 10.4971 7.04735L10.4628 7.02134L10.4542 7.01482L10.4499 7.01157L10.4438 7.0076L10.4262 6.99638C10.4025 6.98152 10.3805 6.9659 10.3526 6.95264C10.326 6.93873 10.2992 6.92471 10.2721 6.91458L10.2315 6.89792C10.218 6.89231 10.204 6.88847 10.1902 6.88367C9.96796 6.8098 9.7337 6.79171 9.50483 6.77597C9.39014 6.76871 9.27591 6.76318 9.16396 6.75178C9.052 6.74145 8.94795 6.71553 8.84431 6.67582C8.6382 6.59706 8.44433 6.48447 8.23734 6.40948C8.18546 6.39121 8.1332 6.37459 8.08004 6.36236L8.04018 6.35353L8.03024 6.35134L8.02776 6.35079L8.02423 6.35019L8.01937 6.34943L7.99997 6.34639L7.9613 6.34051L7.9207 6.3366C7.81356 6.3268 7.71019 6.33118 7.61064 6.34226C7.41155 6.36434 7.22987 6.40944 7.06174 6.44181C6.89394 6.47497 6.73872 6.49424 6.60021 6.49117C6.53114 6.48998 6.46642 6.48488 6.40756 6.47433C6.37786 6.47025 6.35016 6.46283 6.32334 6.45693C6.2969 6.44984 6.27181 6.44223 6.24826 6.43439C6.15487 6.40063 6.08622 6.3608 6.04396 6.32793C6.03274 6.32052 6.02368 6.31293 6.01605 6.30611C6.00828 6.29945 6.00174 6.29385 5.99647 6.28934C5.98593 6.2803 5.98047 6.27563 5.98047 6.27563C5.98047 6.27563 5.98563 6.28062 5.99563 6.29024C6.00063 6.29507 6.00685 6.30107 6.01425 6.30819C6.02151 6.31549 6.03018 6.32367 6.04099 6.33174C6.05156 6.34015 6.06336 6.34955 6.07635 6.3599C6.08995 6.36939 6.10527 6.37911 6.12163 6.38999C6.13783 6.40117 6.15708 6.40997 6.17675 6.42105C6.1965 6.432 6.21911 6.44013 6.24218 6.45067C6.2658 6.45972 6.29105 6.46862 6.31774 6.47703C6.34477 6.48426 6.37286 6.49309 6.40293 6.49859C6.46264 6.512 6.52847 6.52014 6.59898 6.52443C6.73999 6.53406 6.90046 6.52125 7.07078 6.49235C7.2413 6.46525 7.42371 6.42624 7.61714 6.4087C7.71356 6.4001 7.81364 6.39847 7.91247 6.40981L7.94925 6.41409L7.98777 6.42084L8.00711 6.42414L8.01195 6.42497C8.01225 6.42502 8.01469 6.42543 8.01326 6.4252L8.01557 6.42575L8.02483 6.42796L8.06198 6.43674C8.11157 6.44884 8.16085 6.46527 8.2101 6.48336C8.40737 6.55682 8.59781 6.67359 8.81368 6.75655C8.92053 6.79848 9.03911 6.82837 9.15475 6.8392C9.27004 6.85141 9.38497 6.85761 9.49911 6.86515C9.72666 6.87951 9.9548 6.89711 10.1627 6.96544C10.1756 6.96988 10.1889 6.97339 10.2014 6.97855L10.2389 6.9938C10.2647 7.0032 10.2874 7.01549 10.3107 7.02698C10.3338 7.03703 10.3577 7.05321 10.3814 7.06761L10.3991 7.07858L10.4013 7.07996C10.4013 7.07996 10.4045 7.08197 10.4018 7.08022L10.4058 7.08321L10.4139 7.08916L10.4461 7.11294C10.5315 7.17734 10.606 7.2547 10.6782 7.33314C10.7506 7.4116 10.8203 7.49251 10.8972 7.5651C10.9739 7.63792 11.0566 7.70223 11.1459 7.75239L11.1798 7.77079L11.1967 7.77991L11.2134 7.7874C11.2244 7.79238 11.2355 7.79735 11.2465 7.80228L11.2629 7.80968L11.2723 7.8138L11.2808 7.81717C11.326 7.83521 11.3705 7.85112 11.4136 7.86722C11.4999 7.89935 11.5794 7.93384 11.647 7.98283C11.7827 8.07917 11.8718 8.214 11.9069 8.34512C11.9246 8.41066 11.9298 8.47525 11.9244 8.53399C11.9191 8.59284 11.9043 8.64595 11.8845 8.6911C11.8647 8.73633 11.8402 8.77362 11.8166 8.80406C11.8053 8.81975 11.7926 8.83245 11.7819 8.84492C11.7704 8.85658 11.7597 8.8671 11.75 8.8763C11.73 8.89393 11.7141 8.90716 11.7027 8.91517C11.6917 8.92347 11.6859 8.9278 11.6859 8.9278Z" fill="#ED7455"/>
<path d="M9.73089 9.64476C9.73089 9.64476 9.72689 9.63483 9.71939 9.61621C9.71554 9.60691 9.71253 9.59492 9.7081 9.58133C9.70582 9.57457 9.70462 9.56678 9.70258 9.55881C9.70071 9.55077 9.69836 9.54238 9.69711 9.53317C9.69004 9.4969 9.68661 9.45207 9.68734 9.4008C9.6882 9.34948 9.69446 9.29174 9.70329 9.22883C9.7123 9.16592 9.72511 9.09785 9.73601 9.02453C9.74689 8.95129 9.75758 8.8725 9.7555 8.78828C9.75295 8.70482 9.73726 8.61274 9.68928 8.53284L9.67027 8.50395C9.66365 8.49453 9.65612 8.48584 9.64902 8.47676C9.63489 8.45888 9.61734 8.44212 9.60026 8.42749C9.56523 8.39792 9.52799 8.37477 9.49039 8.35345C9.41656 8.31222 9.33886 8.27704 9.26442 8.24372C9.18978 8.20996 9.11621 8.17931 9.04811 8.14428C9.0141 8.12681 8.9812 8.10864 8.9499 8.08967C8.93398 8.08054 8.91912 8.07025 8.904 8.06063C8.8907 8.05117 8.8739 8.03964 8.86104 8.02925C8.80772 7.98697 8.76021 7.93885 8.72304 7.89025C8.68584 7.84131 8.65796 7.79135 8.63916 7.74443C8.62066 7.69731 8.61144 7.65353 8.60727 7.61696C8.60593 7.59863 8.6042 7.58209 8.60507 7.56773C8.60529 7.55333 8.60517 7.54091 8.6069 7.53109C8.60922 7.51114 8.61045 7.50049 8.61045 7.50049C8.61045 7.50049 8.60768 7.51084 8.6025 7.53027C8.59945 7.53997 8.59791 7.55234 8.5957 7.56693C8.59275 7.58151 8.59249 7.59849 8.5918 7.61765C8.5918 7.65578 8.59584 7.703 8.61111 7.75469C8.62614 7.80628 8.65077 7.8625 8.68697 7.91751C8.72299 7.97291 8.7685 8.02713 8.82599 8.07729C8.88171 8.1262 8.9476 8.16931 9.01716 8.20775C9.08699 8.246 9.16027 8.28167 9.23465 8.31538C9.30913 8.34972 9.38264 8.38414 9.45407 8.42484C9.48914 8.44417 9.52329 8.46512 9.55244 8.48929C9.56715 8.50174 9.58026 8.51377 9.59228 8.5287C9.59812 8.5361 9.60448 8.54312 9.60996 8.55077L9.62574 8.57414C9.66474 8.6385 9.6828 8.71461 9.68716 8.79102C9.69089 8.86762 9.68563 8.94387 9.67858 9.0165C9.67114 9.08916 9.6634 9.15866 9.65905 9.22351C9.6543 9.28828 9.65354 9.34843 9.65771 9.40159C9.66153 9.45477 9.67079 9.5007 9.68218 9.53704C9.69306 9.57349 9.70638 9.60052 9.71564 9.61817C9.72559 9.6355 9.73089 9.64476 9.73089 9.64476Z" fill="#ED7455"/>
<path d="M9.70962 8.5882C9.70962 8.5882 9.7098 8.58516 9.71013 8.57945C9.71031 8.57659 9.71052 8.57308 9.71075 8.56894C9.71107 8.56504 9.71197 8.56442 9.71231 8.56147C9.71259 8.56018 9.71257 8.55892 9.71294 8.5573C9.71363 8.5555 9.71438 8.55362 9.71512 8.55166C9.71582 8.54965 9.71655 8.54755 9.71731 8.54536C9.71849 8.54331 9.71971 8.54117 9.72097 8.53898C9.72551 8.52983 9.7339 8.52055 9.74409 8.51071C9.7552 8.5016 9.76842 8.49197 9.78464 8.48421C9.80075 8.47648 9.8188 8.46918 9.83857 8.46425C9.85822 8.45913 9.8792 8.45503 9.90078 8.45338C9.91164 8.45241 9.92229 8.45197 9.93362 8.45195C9.94538 8.4519 9.95699 8.45201 9.96823 8.4524C10.0601 8.4546 10.1522 8.47155 10.2197 8.49086C10.2534 8.50038 10.2813 8.50986 10.3006 8.51707C10.3199 8.52428 10.3309 8.52871 10.3309 8.52871C10.3309 8.52871 10.3205 8.52303 10.302 8.51356C10.2835 8.5041 10.2567 8.49131 10.2238 8.47771C10.158 8.45026 10.0666 8.42185 9.97148 8.40821C9.95939 8.40637 9.94763 8.40487 9.93611 8.40356C9.92415 8.40215 9.91155 8.40116 9.8994 8.40081C9.87488 8.39978 9.85071 8.4015 9.8273 8.40473C9.80386 8.40775 9.78128 8.41369 9.76001 8.421C9.7387 8.4283 9.719 8.43877 9.70132 8.45036C9.68409 8.463 9.66862 8.4767 9.65763 8.49246C9.65484 8.49635 9.65214 8.50011 9.64954 8.50373C9.6474 8.50778 9.64533 8.51167 9.64334 8.51541C9.64143 8.51923 9.63959 8.52288 9.63783 8.52638C9.63624 8.53025 9.63498 8.53447 9.63374 8.53827C9.63148 8.54557 9.62899 8.55389 9.62823 8.55818C9.62754 8.56226 9.62694 8.56573 9.62647 8.56853C9.62551 8.57415 9.625 8.57716 9.625 8.57716L9.70962 8.5882Z" fill="#ED7455"/>
<path d="M4.84558 9.11587C4.84558 9.11587 4.843 9.10277 4.83816 9.07824C4.8335 9.05368 4.82677 9.01762 4.81937 8.97178C4.81235 8.92595 4.80474 8.87002 4.80357 8.80636C4.80246 8.74292 4.80864 8.67102 4.83465 8.60011C4.84709 8.56474 4.86673 8.53018 4.89113 8.49776C4.91455 8.46709 4.94416 8.43613 4.97842 8.41053C5.0472 8.35843 5.13286 8.32087 5.22494 8.29165C5.31691 8.26259 5.41798 8.24397 5.51935 8.22633C5.62099 8.20962 5.72494 8.1992 5.82839 8.1996C5.93173 8.19876 6.03472 8.21024 6.13343 8.23358C6.23262 8.25688 6.32949 8.28829 6.42295 8.32165C6.51631 8.35541 6.60746 8.38855 6.69549 8.41694C6.73983 8.43111 6.78236 8.44392 6.8253 8.4548C6.86795 8.46506 6.90922 8.47432 6.94941 8.48079C7.02953 8.49483 7.10444 8.49988 7.17054 8.4978C7.23667 8.49609 7.29393 8.4875 7.33974 8.47602C7.38567 8.46485 7.42021 8.45134 7.4433 8.4416C7.46611 8.43123 7.47828 8.4257 7.47828 8.4257C7.47828 8.4257 7.46554 8.42964 7.44169 8.43703C7.41777 8.44397 7.38208 8.45202 7.33649 8.45853C7.29084 8.46503 7.23478 8.46702 7.17111 8.46358C7.10739 8.4599 7.03607 8.44876 6.95969 8.43047C6.88323 8.41224 6.80237 8.38565 6.71752 8.3539C6.63268 8.32187 6.54419 8.28407 6.45049 8.24785C6.35671 8.21197 6.25854 8.17432 6.15344 8.14955C6.04827 8.12364 5.93819 8.11019 5.82841 8.11023C5.71872 8.11088 5.61005 8.12297 5.50499 8.14129C5.45257 8.15023 5.40035 8.16151 5.35018 8.17376C5.29926 8.18607 5.24911 8.20017 5.20045 8.21702C5.10316 8.25022 5.01149 8.29626 4.9368 8.35867C4.89941 8.39014 4.8677 8.42499 4.84164 8.46471C4.81691 8.50285 4.79769 8.54301 4.78621 8.58398C4.77451 8.62457 4.7681 8.66439 4.76614 8.70215C4.76488 8.7399 4.76589 8.77548 4.76965 8.80843C4.77614 8.8745 4.79032 8.9301 4.80212 8.97543C4.814 9.0208 4.8261 9.05555 4.83357 9.07944C4.84138 9.1032 4.84558 9.11587 4.84558 9.11587Z" fill="#ED7455"/>
<path d="M6.0445 8.21626C6.0445 8.21626 6.05047 8.2158 6.06169 8.21497C6.0728 8.21418 6.08909 8.2131 6.11183 8.21017C6.13437 8.20775 6.16031 8.20352 6.19043 8.19732C6.22039 8.19098 6.2541 8.18289 6.29001 8.17036C6.32604 8.15844 6.36443 8.14261 6.40342 8.1216C6.4426 8.10122 6.48216 8.07477 6.51979 8.04223C6.55727 8.00965 6.59342 7.9713 6.62315 7.92565C6.63084 7.91453 6.63732 7.90225 6.64446 7.89056L6.64969 7.88167L6.651 7.87945L6.65253 7.8765L6.65472 7.8721L6.66352 7.8545C6.67546 7.82874 6.68633 7.80272 6.69495 7.77638C6.73069 7.67043 6.74541 7.56072 6.76371 7.461C6.77272 7.41109 6.78254 7.36332 6.79493 7.31943C6.80724 7.27541 6.82174 7.23492 6.83809 7.19935C6.87056 7.12793 6.91128 7.07779 6.94442 7.04998C6.95244 7.04256 6.96027 7.037 6.9671 7.03221C6.9738 7.0271 6.97977 7.02332 6.98482 7.02066C6.99475 7.0149 7.00004 7.01184 7.00004 7.01184C7.00004 7.01184 6.99456 7.01449 6.98429 7.01945C6.97906 7.02175 6.97283 7.02507 6.9658 7.02965C6.95861 7.03392 6.95037 7.03892 6.94181 7.04576C6.90658 7.0712 6.86172 7.11908 6.82395 7.18976C6.80498 7.22492 6.78758 7.26527 6.77226 7.30938C6.75677 7.35358 6.74389 7.40144 6.73178 7.45105C6.70751 7.54993 6.6861 7.65671 6.64713 7.75159C6.6376 7.77559 6.62646 7.79781 6.61503 7.81903L6.6052 7.83588L6.60277 7.84009C6.60254 7.84044 6.60153 7.84226 6.60195 7.84141L6.60066 7.84328L6.59556 7.85074C6.5886 7.86053 6.58236 7.87086 6.57498 7.88008C6.45451 8.04081 6.24477 8.13 6.05242 8.12945C6.04116 8.12941 6.03516 8.12939 6.03516 8.12939L6.0445 8.21626Z" fill="#ED7455"/>
<path d="M0.844465 8.48039C0.844465 8.48039 0.841726 8.45587 0.836568 8.40992C0.835066 8.3869 0.835861 8.35854 0.835737 8.32561C0.839765 8.29272 0.840914 8.25463 0.850807 8.21353C0.867219 8.13098 0.902305 8.03454 0.961841 7.93771C0.990779 7.8887 1.02823 7.84169 1.06911 7.79431C1.11247 7.74945 1.15838 7.70242 1.2131 7.66294L1.23318 7.64737L1.25444 7.6332C1.26875 7.62386 1.28293 7.61398 1.29768 7.60481C1.32802 7.58807 1.35819 7.56964 1.391 7.55575L1.41531 7.54446L1.4214 7.54162L1.42707 7.53946L1.44008 7.53438C1.45741 7.52773 1.47504 7.5204 1.49253 7.51415C1.52708 7.5027 1.56212 7.49108 1.59918 7.48184C1.74613 7.4429 1.90685 7.42758 2.07417 7.42313C2.24163 7.41808 2.41605 7.42726 2.59489 7.42813C2.77401 7.42892 2.95767 7.42249 3.13989 7.38916C3.32129 7.35483 3.5017 7.28985 3.65635 7.18023L3.67087 7.17011L3.67814 7.16506L3.68176 7.16253L3.68683 7.15848L3.71306 7.13675L3.73924 7.11508C3.74801 7.10709 3.75684 7.09794 3.76558 7.08939C3.78293 7.07186 3.80094 7.05471 3.81553 7.03586C3.83046 7.01701 3.8472 6.99991 3.86037 6.9797C3.91761 6.9029 3.96287 6.81747 3.99534 6.72797C4.02779 6.63856 4.04864 6.54501 4.05329 6.4512C4.05883 6.3576 4.04691 6.26364 4.01852 6.17829C4.01493 6.16765 4.01258 6.15658 4.00799 6.14642L3.99461 6.11594C3.98575 6.09571 3.97741 6.0754 3.96541 6.05741C3.95396 6.03888 3.94414 6.02067 3.93151 6.00245L3.91386 5.97858L3.89388 5.95424C3.84076 5.89265 3.78316 5.84367 3.72831 5.79854C3.67331 5.75349 3.62102 5.71171 3.57457 5.66848C3.55078 5.64666 3.53048 5.62559 3.50958 5.60209C3.48956 5.57932 3.47198 5.55671 3.45504 5.53319C3.38872 5.43922 3.34798 5.3437 3.32293 5.26268C3.29859 5.18117 3.28867 5.114 3.28445 5.06819C3.28207 5.04524 3.28145 5.02757 3.28104 5.01565C3.28057 5.00372 3.28032 4.99756 3.28032 4.99756C3.28032 4.99756 3.28011 5.00371 3.27972 5.01561C3.27922 5.02754 3.27852 5.04526 3.27921 5.06844C3.2803 5.11463 3.28424 5.18334 3.30443 5.26828C3.32496 5.35269 3.36037 5.45443 3.42522 5.55662C3.44131 5.58177 3.4596 5.60801 3.47928 5.6329C3.49831 5.65682 3.52073 5.68288 3.5436 5.70615C3.58977 5.75401 3.64192 5.79876 3.69435 5.84591C3.74679 5.89294 3.8 5.94276 3.84577 6.0007L3.86204 6.02222L3.87881 6.04648C3.88828 6.06119 3.89718 6.07886 3.90656 6.09499C3.91678 6.11098 3.92342 6.12916 3.93066 6.14711L3.94167 6.17405C3.9455 6.18299 3.94713 6.1929 3.95001 6.2023C3.97271 6.27766 3.98101 6.36047 3.97359 6.44373C3.96653 6.52692 3.94745 6.61089 3.91632 6.69117C3.88554 6.77155 3.84302 6.84838 3.79004 6.91661C3.77792 6.9347 3.76239 6.94959 3.74873 6.96636C3.735 6.98355 3.71969 6.99714 3.70486 7.01175C3.69732 7.01902 3.6904 7.02646 3.68239 7.03374L3.65609 7.05522L3.62973 7.07676L3.62807 7.0781C3.62598 7.07974 3.62908 7.0774 3.62814 7.07803L3.6248 7.08033L3.6181 7.0849L3.60471 7.09407C3.46246 7.19359 3.29459 7.25332 3.12162 7.28508C2.94842 7.31807 2.76972 7.32582 2.59342 7.32621C2.41656 7.32582 2.24067 7.32247 2.06968 7.3304C1.98424 7.33455 1.89997 7.34107 1.81797 7.35336C1.73597 7.36584 1.65623 7.3831 1.57998 7.40573C1.54192 7.41661 1.50444 7.43034 1.46762 7.4441C1.44969 7.45122 1.43276 7.45894 1.41548 7.46625L1.40264 7.47178L1.39545 7.47489L1.38904 7.47823L1.36358 7.4915C1.32925 7.50802 1.29795 7.52902 1.26666 7.54833C1.25145 7.55877 1.23686 7.5699 1.22218 7.58049L1.20041 7.59651L1.1799 7.61389C1.12427 7.65834 1.0775 7.70956 1.0348 7.75927C0.994472 7.81151 0.958131 7.86285 0.930536 7.9158C0.873243 8.02026 0.843617 8.12335 0.831957 8.20938C0.824325 8.25224 0.825614 8.29159 0.824219 8.32519C0.826798 8.35909 0.828211 8.38789 0.831409 8.41073C0.839924 8.45615 0.844465 8.48039 0.844465 8.48039Z" fill="#ED7455"/>
<path d="M1.51562 5.21899C1.51562 5.21899 1.51674 5.22389 1.51884 5.23306C1.52112 5.24214 1.52414 5.25567 1.52918 5.27251C1.53407 5.2894 1.54013 5.30996 1.54919 5.333C1.55808 5.35607 1.56912 5.38218 1.58504 5.40891C1.60053 5.43585 1.62005 5.46387 1.64374 5.49039L1.64814 5.49544L1.65284 5.50055L1.66167 5.51018C1.66809 5.51676 1.67457 5.52346 1.68113 5.53021C1.69427 5.54328 1.70831 5.55593 1.72264 5.56844C1.78004 5.6186 1.84461 5.66446 1.90021 5.71585C1.92826 5.74083 1.95411 5.77 1.97641 5.79761C1.99955 5.82639 2.01949 5.85704 2.0372 5.88771C2.05506 5.91833 2.06967 5.94958 2.08225 5.97984C2.0882 5.99511 2.09389 6.01005 2.09857 6.02482C2.10399 6.0394 2.10795 6.05387 2.11191 6.0678C2.1194 6.09574 2.12489 6.12185 2.12912 6.14529C2.13251 6.16877 2.13579 6.18951 2.13701 6.20672C2.13887 6.22394 2.13943 6.2376 2.13993 6.24696C2.14055 6.25636 2.14088 6.26138 2.14088 6.26138C2.14088 6.26138 2.14205 6.2565 2.14424 6.24737C2.14613 6.23818 2.14996 6.22468 2.15196 6.20716C2.15484 6.18967 2.15691 6.1682 2.15781 6.14338C2.15779 6.13102 2.15827 6.11773 2.15779 6.10376C2.15687 6.08985 2.15641 6.07505 2.15429 6.05982C2.151 6.0292 2.14514 5.99609 2.13539 5.96193C2.12551 5.92785 2.11368 5.89192 2.09627 5.85692C2.07931 5.82181 2.05928 5.78637 2.03439 5.75346C2.009 5.71924 1.98193 5.6888 1.95104 5.66055C1.92031 5.63257 1.88821 5.60734 1.85643 5.58402C1.82509 5.56113 1.79426 5.5386 1.76441 5.5168C1.74971 5.50602 1.73595 5.49486 1.7222 5.48428C1.71563 5.47885 1.70913 5.4735 1.7027 5.4682L1.69286 5.4596L1.68833 5.45566L1.68381 5.45147C1.65982 5.42919 1.63848 5.40698 1.62049 5.38471C1.58477 5.33998 1.56025 5.29682 1.54287 5.26673C1.52554 5.23634 1.51562 5.21899 1.51562 5.21899Z" fill="#ED7455"/>
<path d="M2.81641 3.22351C2.81641 3.22351 2.84277 3.23344 2.88926 3.24904C2.91168 3.25877 2.93815 3.27086 2.96804 3.28469C2.99701 3.30162 3.03058 3.31797 3.06369 3.34191C3.08061 3.35317 3.09829 3.36458 3.11476 3.37912C3.13124 3.39352 3.15041 3.40541 3.16663 3.42207C3.18315 3.43828 3.20127 3.45353 3.21754 3.47143C3.2332 3.48992 3.25092 3.5071 3.2668 3.52644C3.28185 3.54647 3.29817 3.56601 3.31286 3.58711C3.32639 3.60901 3.34148 3.6302 3.35473 3.65274C3.36684 3.67592 3.38066 3.69844 3.39172 3.7224L3.40792 3.7586C3.4134 3.77065 3.41905 3.78264 3.42285 3.79534C3.4415 3.84485 3.4561 3.89587 3.46518 3.94696C3.46882 3.97263 3.47484 3.99793 3.4756 4.02338C3.47721 4.04875 3.48058 4.07395 3.47857 4.09866C3.47818 4.14804 3.47334 4.19703 3.46694 4.24393C3.46035 4.29105 3.45447 4.33663 3.45126 4.3793C3.44753 4.42189 3.44742 4.46176 3.45099 4.49687C3.45431 4.53195 3.46076 4.56222 3.46938 4.58591C3.47291 4.59796 3.47763 4.60817 3.48182 4.61693C3.4856 4.62583 3.48957 4.63302 3.49316 4.63866C3.5 4.64995 3.50365 4.65597 3.50365 4.65597C3.50365 4.65597 3.50166 4.64924 3.4979 4.63664C3.49578 4.6305 3.49362 4.62278 3.49205 4.61347C3.49019 4.60426 3.48779 4.59387 3.48671 4.5819C3.48311 4.55831 3.4833 4.52923 3.48521 4.49644C3.48749 4.46357 3.49376 4.42675 3.5021 4.38657C3.51069 4.3464 3.52213 4.30298 3.53266 4.25579C3.53795 4.23247 3.54351 4.2071 3.54814 4.18184L3.55148 4.16313L3.55224 4.15841L3.55277 4.15285L3.55367 4.14279C3.55485 4.12933 3.55605 4.11574 3.55726 4.10204C3.56086 4.07458 3.55897 4.04663 3.55872 4.01824C3.55953 3.98971 3.55438 3.96143 3.55077 3.9327C3.5427 3.87539 3.52667 3.81859 3.50645 3.7636C3.50201 3.74959 3.49571 3.73635 3.48956 3.72309L3.47125 3.68328C3.45892 3.65687 3.44269 3.63267 3.42868 3.60758C3.41366 3.5831 3.39594 3.56061 3.37965 3.53775C3.36232 3.51563 3.34338 3.49522 3.32573 3.47448C3.30713 3.45459 3.28742 3.43632 3.26835 3.41843C3.24901 3.40081 3.22788 3.38601 3.20859 3.37041C3.19903 3.36246 3.18891 3.35553 3.17859 3.34917C3.16841 3.34269 3.15838 3.33629 3.14852 3.33001C3.12914 3.317 3.10872 3.3072 3.08934 3.29766C3.05158 3.27665 3.01327 3.26527 2.98085 3.2531C2.94712 3.24328 2.91712 3.2369 2.89315 3.23176C2.84446 3.22586 2.81641 3.22351 2.81641 3.22351Z" fill="#ED7455"/>
<path d="M3.30664 3.58379C3.30664 3.58379 3.31118 3.58863 3.3197 3.5977C3.32825 3.60678 3.3404 3.62001 3.35748 3.63722C3.37427 3.65444 3.39469 3.67476 3.41969 3.69727C3.44433 3.71991 3.47398 3.7444 3.50917 3.7682C3.54433 3.79187 3.58636 3.81427 3.63423 3.82839C3.68199 3.84277 3.73442 3.84816 3.7864 3.84602C3.79949 3.84517 3.81222 3.84517 3.82584 3.84358C3.83851 3.84224 3.85077 3.84139 3.86438 3.83927C3.89126 3.8357 3.9172 3.83118 3.94333 3.82544C3.99555 3.81431 4.04726 3.79978 4.09833 3.7847C4.20032 3.75447 4.30076 3.72274 4.39819 3.71048C4.49458 3.69871 4.58795 3.70928 4.66197 3.73474C4.69925 3.74707 4.73142 3.76397 4.75772 3.78203C4.78463 3.7995 4.80422 3.81975 4.81982 3.83669C4.83431 3.85459 4.8451 3.86936 4.85075 3.88042C4.85697 3.89117 4.86031 3.89692 4.86031 3.89692C4.86031 3.89692 4.85729 3.891 4.85164 3.87992C4.84653 3.86849 4.83653 3.85314 4.82281 3.83423C4.80798 3.8163 4.78908 3.79461 4.76256 3.77532C4.73665 3.75542 4.70451 3.73633 4.66688 3.72163C4.59189 3.69145 4.49696 3.67534 4.39515 3.68234C4.29417 3.6897 4.18955 3.71686 4.0868 3.74148C4.03537 3.75378 3.98412 3.76526 3.93363 3.77327C3.90849 3.77744 3.8831 3.78044 3.85909 3.78237C3.84731 3.78366 3.83413 3.7839 3.82162 3.78457C3.8101 3.78535 3.79768 3.78472 3.78594 3.78487C3.73848 3.78433 3.6943 3.77703 3.65534 3.76302C3.6163 3.74919 3.58231 3.72882 3.55267 3.70652C3.52307 3.68414 3.4974 3.66071 3.4756 3.6384C3.45364 3.61646 3.43509 3.59596 3.42036 3.57913C3.40554 3.56259 3.39374 3.54834 3.38572 3.53887C3.3777 3.52936 3.37342 3.52429 3.37342 3.52429L3.30664 3.58379Z" fill="#ED7455"/>
<path d="M5.14522 2.38818C5.14522 2.38818 5.14584 2.39156 5.14704 2.39809C5.14763 2.40136 5.14839 2.40543 5.14925 2.41025C5.14969 2.41511 5.14966 2.42074 5.14992 2.427C5.15049 2.45226 5.14226 2.48904 5.11892 2.52978C5.09654 2.57116 5.05945 2.6152 5.02068 2.6709C5.00128 2.69906 4.98183 2.73009 4.96743 2.76786C4.95285 2.80515 4.9448 2.84644 4.94224 2.88988C4.93702 2.97657 4.95633 3.07227 5.00114 3.16053C5.04559 3.24984 5.11104 3.33144 5.18648 3.40477C5.22374 3.44157 5.26428 3.47721 5.30391 3.51155C5.34486 3.54655 5.38632 3.58086 5.42881 3.61432C5.51331 3.68177 5.59963 3.74846 5.68102 3.81928C5.76334 3.88903 5.84071 3.96327 5.90733 4.04367L5.9316 4.0742L5.93766 4.08181L5.93842 4.08276C5.93711 4.08093 5.93847 4.08285 5.93837 4.08269L5.93982 4.08474L5.94273 4.08884L5.95436 4.10518C5.97103 4.12704 5.98345 4.14783 5.99681 4.16866C6.02225 4.21185 6.04582 4.25655 6.06346 4.30238C6.10034 4.39357 6.1215 4.48754 6.12411 4.57713C6.12736 4.6667 6.11131 4.75146 6.07912 4.82259C6.0709 4.84027 6.06329 4.85794 6.05272 4.87345C6.04783 4.88147 6.04301 4.88939 6.03822 4.89721C6.03423 4.90412 6.02746 4.91242 6.02235 4.91984C6.00114 4.94839 5.97753 4.9742 5.95446 4.99765C5.90791 5.04427 5.8644 5.08356 5.8306 5.11801C5.79635 5.15205 5.7723 5.18172 5.75706 5.20251C5.74912 5.21268 5.74396 5.22117 5.74017 5.22662C5.73647 5.23214 5.73455 5.23498 5.73455 5.23498C5.73455 5.23498 5.73679 5.23238 5.74115 5.22737C5.74559 5.22242 5.7517 5.21472 5.76076 5.20564C5.77817 5.18682 5.8058 5.16145 5.8426 5.13115C5.87927 5.10063 5.92635 5.06671 5.9778 5.02266C6.00349 5.0006 6.03025 4.97608 6.05633 4.94654C6.06249 4.93901 6.06848 4.93316 6.07493 4.92396C6.08072 4.91576 6.08661 4.90748 6.09254 4.89909C6.10523 4.88273 6.11495 4.86402 6.1253 4.84506C6.14607 4.80715 6.16104 4.76445 6.17349 4.71949C6.18358 4.6741 6.19075 4.62615 6.19088 4.57681C6.19095 4.56446 6.191 4.55204 6.19107 4.53953C6.1902 4.5271 6.18934 4.51457 6.18846 4.50196C6.18754 4.47657 6.18224 4.45161 6.17897 4.42592C6.16941 4.37527 6.15604 4.32406 6.13696 4.27411C6.10048 4.17371 6.04493 4.07534 5.97423 3.98908C5.90402 3.90271 5.82343 3.82391 5.73925 3.75148C5.65466 3.67929 5.56686 3.61287 5.48223 3.54658C5.44031 3.51349 5.39872 3.48069 5.35765 3.44825C5.31645 3.41454 5.2776 3.3823 5.24075 3.34798C5.16768 3.27994 5.10353 3.2077 5.06023 3.12999C5.03801 3.09071 5.02211 3.05088 5.01082 3.01045C4.99926 2.97025 4.99366 2.92991 4.99333 2.89124C4.99186 2.81312 5.01552 2.74531 5.04945 2.68906C5.08263 2.63248 5.11577 2.58294 5.13478 2.53755C5.15524 2.49263 5.1583 2.45231 5.15471 2.42659C5.15363 2.42009 5.15295 2.41437 5.1519 2.4096C5.15044 2.40491 5.14922 2.40097 5.14821 2.39781C5.14623 2.39145 5.14522 2.38818 5.14522 2.38818Z" fill="#ED7455"/>
<path d="M5.07499 3.1605C5.07499 3.1605 5.06639 3.15406 5.05133 3.14275C5.04757 3.13992 5.0434 3.1368 5.03886 3.13339C5.03367 3.13006 5.02803 3.12646 5.02203 3.12261C5.00989 3.11507 4.99641 3.10593 4.98107 3.09878C4.9735 3.09493 4.9656 3.09092 4.95742 3.08676C4.94908 3.083 4.94021 3.07964 4.93127 3.07592C4.91355 3.06797 4.89378 3.06272 4.87386 3.0562C4.85347 3.05138 4.83264 3.04542 4.81102 3.04242C4.78957 3.0383 4.76759 3.03631 4.74574 3.03403C4.72381 3.03281 4.70198 3.03113 4.68049 3.03138C4.65901 3.0309 4.63797 3.03186 4.61765 3.03249C4.57704 3.03463 4.53939 3.03779 4.50726 3.04145C4.44298 3.04857 4.40039 3.05443 4.40039 3.05443C4.40039 3.05443 4.44344 3.05274 4.50787 3.05193C4.54008 3.05141 4.57762 3.05192 4.61762 3.05373C4.63758 3.05505 4.6582 3.05613 4.67896 3.05862C4.69979 3.06041 4.72065 3.0641 4.74146 3.06729C4.7621 3.07152 4.78271 3.07542 4.80243 3.08129C4.82245 3.08606 4.84117 3.09355 4.85949 3.09977C4.87719 3.10761 4.89472 3.11404 4.91 3.12286C4.91776 3.12701 4.92541 3.13077 4.93256 3.13487C4.93949 3.1393 4.9462 3.1436 4.95263 3.14771C4.96593 3.15552 4.97611 3.16425 4.98563 3.17142C4.99037 3.17508 4.99478 3.17849 4.99888 3.18165C5.00307 3.18548 5.0069 3.189 5.01038 3.19218C5.02427 3.2049 5.0322 3.21216 5.0322 3.21216L5.07499 3.1605Z" fill="#ED7455"/>
<path d="M1.82227 8.81212C1.82227 8.81212 1.83336 8.82035 1.85414 8.83581C1.87595 8.84972 1.9079 8.87173 1.95332 8.89019C1.99835 8.90915 2.05582 8.92752 2.12382 8.93674C2.19166 8.94644 2.26948 8.94935 2.35332 8.94273C2.52153 8.9316 2.71229 8.88501 2.91208 8.83473C2.9621 8.82233 3.01284 8.81005 3.06412 8.79926C3.09007 8.79407 3.11619 8.78884 3.14242 8.78359C3.16869 8.77845 3.19524 8.7726 3.22238 8.76599C3.33006 8.74055 3.43745 8.7087 3.54262 8.66821C3.64726 8.62687 3.74923 8.57701 3.84317 8.51619C3.93726 8.45575 4.02172 8.3821 4.0908 8.29956C4.12525 8.2582 4.15569 8.21453 4.18131 8.16939C4.19339 8.14773 4.20537 8.12627 4.21639 8.10335C4.22791 8.08087 4.23837 8.05882 4.24824 8.03712C4.28867 7.9504 4.32209 7.86782 4.35976 7.79592C4.39733 7.72418 4.43929 7.66293 4.48727 7.61915C4.4986 7.60744 4.51199 7.59917 4.52365 7.5894C4.53518 7.57931 4.54824 7.57267 4.56038 7.56544C4.58405 7.54963 4.609 7.54152 4.63088 7.53233C4.67586 7.51785 4.71296 7.50935 4.73863 7.50737C4.7643 7.50409 4.77799 7.50232 4.77799 7.50232C4.77799 7.50232 4.76418 7.50248 4.73828 7.5028C4.71226 7.50207 4.67396 7.50534 4.62603 7.51626C4.57838 7.52806 4.52144 7.55154 4.46628 7.59457C4.41094 7.63734 4.36078 7.69966 4.31757 7.77202C4.27363 7.84419 4.2346 7.92586 4.19167 8.00933C4.18095 8.03034 4.16986 8.0512 4.15827 8.07154C4.14733 8.09205 4.13438 8.11304 4.12126 8.13427C4.09552 8.17434 4.06736 8.21411 4.03435 8.25117C3.96904 8.32597 3.8877 8.3907 3.79918 8.44754C3.71024 8.50407 3.61258 8.55066 3.51188 8.58961C3.4115 8.62932 3.3072 8.66128 3.20381 8.68667C3.17828 8.69324 3.15203 8.69902 3.1256 8.70478C3.09924 8.7108 3.07299 8.71677 3.04691 8.72273C2.99437 8.73529 2.94325 8.74914 2.89323 8.76296C2.79317 8.79037 2.69791 8.81908 2.60677 8.84214C2.51564 8.86493 2.42908 8.88392 2.34836 8.89468C2.26768 8.9056 2.19305 8.90879 2.12716 8.90473C2.06128 8.90061 2.00451 8.88872 1.95908 8.87447C1.91341 8.8604 1.87968 8.84344 1.85661 8.83196C1.83423 8.81905 1.82227 8.81212 1.82227 8.81212Z" fill="#ED7455"/>
<path d="M15.3754 6.57378C15.3754 6.57378 15.3695 6.55789 15.3572 6.5312C15.3511 6.51784 15.3436 6.50156 15.3339 6.4835C15.3243 6.46532 15.3131 6.4449 15.2991 6.42347C15.2847 6.40218 15.2691 6.37877 15.2486 6.35641C15.2285 6.33388 15.2051 6.31113 15.1771 6.29168C15.1495 6.27203 15.1182 6.25433 15.0844 6.24231C15.0507 6.22968 15.0159 6.22103 14.9797 6.2168C14.9644 6.21444 14.9442 6.21408 14.9254 6.2135C14.9071 6.21403 14.8892 6.21449 14.8718 6.21709C14.8366 6.22069 14.8037 6.22931 14.7726 6.23816C14.7109 6.25685 14.6577 6.27977 14.6124 6.2983C14.5895 6.30717 14.5688 6.31558 14.5501 6.32247C14.5313 6.32909 14.5149 6.33501 14.5011 6.3392C14.4873 6.34385 14.4762 6.34651 14.4687 6.34885C14.4611 6.35116 14.457 6.3524 14.457 6.3524C14.457 6.3524 14.4612 6.35294 14.469 6.35397C14.4769 6.35448 14.4886 6.35701 14.5034 6.35683C14.5108 6.35699 14.5191 6.35717 14.5281 6.35736C14.5371 6.35731 14.5467 6.35646 14.5571 6.35595C14.5778 6.35455 14.6012 6.35215 14.6261 6.34777C14.6511 6.34377 14.6779 6.33876 14.7056 6.33282C14.7333 6.32697 14.7621 6.32068 14.7914 6.31523C14.8206 6.3101 14.8504 6.30517 14.8801 6.30342C14.895 6.30175 14.91 6.30268 14.9246 6.30213C14.9386 6.303 14.9515 6.30275 14.9689 6.30553C14.9984 6.30839 15.0282 6.31558 15.0558 6.32404C15.0839 6.33249 15.1098 6.34452 15.1343 6.3581C15.1589 6.3716 15.1813 6.3878 15.202 6.40462C15.2229 6.42121 15.2418 6.43907 15.2594 6.45564C15.2766 6.47311 15.2923 6.48912 15.3063 6.5033C15.3199 6.51804 15.3326 6.53051 15.3426 6.54109C15.363 6.56219 15.3754 6.57378 15.3754 6.57378Z" fill="#ED7455"/>
<path d="M14.311 3.2699C14.311 3.2699 14.3033 3.27083 14.2887 3.2726C14.2814 3.27355 14.2724 3.27472 14.2618 3.2761C14.2513 3.2782 14.2393 3.28106 14.2256 3.2843C14.1985 3.2911 14.1662 3.30212 14.1307 3.31973C14.096 3.33839 14.0578 3.3633 14.0229 3.39883C13.9878 3.43398 13.9561 3.47896 13.9325 3.53092C13.9086 3.58272 13.8912 3.64088 13.883 3.70197C13.8747 3.76297 13.8724 3.8267 13.8784 3.89049C13.8841 3.9543 13.8958 4.01829 13.9127 4.08085C13.9304 4.14316 13.9534 4.20386 13.981 4.26151C14.0081 4.31936 14.0422 4.37291 14.0796 4.42172C14.0864 4.43123 14.0967 4.44481 14.1039 4.45557C14.1105 4.46677 14.1179 4.47688 14.1244 4.48836C14.1377 4.51115 14.1494 4.53435 14.1591 4.55778C14.1783 4.60465 14.1915 4.65144 14.1993 4.69568C14.207 4.73999 14.209 4.78159 14.2087 4.81861C14.2084 4.85569 14.2041 4.88802 14.2001 4.91469C14.1951 4.94111 14.1911 4.96227 14.1868 4.97619C14.183 4.99041 14.181 4.99797 14.181 4.99797C14.181 4.99797 14.1847 4.99103 14.1915 4.97803C14.1986 4.96503 14.2077 4.94529 14.2173 4.91922C14.2262 4.89302 14.2371 4.86055 14.2428 4.8218C14.2491 4.78325 14.2536 4.73872 14.2504 4.69005C14.2477 4.64143 14.2394 4.58853 14.2218 4.53479C14.2132 4.50787 14.2023 4.48077 14.1895 4.45375C14.1834 4.44012 14.175 4.42644 14.1674 4.41273C14.1592 4.39927 14.1524 4.38943 14.1428 4.37475C14.1109 4.32945 14.0841 4.27804 14.0592 4.22483C14.0347 4.17135 14.0145 4.1147 13.9988 4.05693C13.9823 3.9994 13.9705 3.9405 13.9643 3.88217C13.9584 3.82387 13.9558 3.76613 13.9611 3.71103C13.9665 3.65605 13.9767 3.60355 13.9939 3.55641C14.0114 3.50947 14.034 3.46732 14.0612 3.43266C14.0887 3.39825 14.1192 3.37086 14.1485 3.34881C14.1787 3.32834 14.2071 3.31194 14.2314 3.30103C14.2438 3.2956 14.2548 3.29074 14.2644 3.28652C14.2744 3.28301 14.283 3.28 14.2899 3.27756C14.3037 3.27256 14.311 3.2699 14.311 3.2699Z" fill="#ED7455"/>
<path d="M10.8025 1.36666C10.8025 1.36666 10.799 1.36656 10.7922 1.36636C10.7854 1.36636 10.7754 1.36518 10.7622 1.36691C10.7358 1.36882 10.6962 1.3765 10.6525 1.40203C10.6305 1.41436 10.6078 1.43106 10.5857 1.45197C10.5633 1.47261 10.5418 1.49791 10.5221 1.52716C10.5024 1.55637 10.4842 1.58949 10.4693 1.62645C10.4656 1.63541 10.4616 1.64558 10.4588 1.6547C10.4556 1.66383 10.4525 1.67342 10.4495 1.68364C10.4434 1.70379 10.4383 1.72386 10.4334 1.74478C10.4135 1.82803 10.4017 1.91878 10.3801 2.00951C10.3744 2.03211 10.3683 2.05476 10.3608 2.077L10.3594 2.08121L10.3587 2.08331C10.3588 2.08295 10.358 2.0856 10.3589 2.08276L10.3585 2.08384L10.3551 2.09246L10.3481 2.10979C10.3435 2.12138 10.3388 2.13302 10.3341 2.14473C10.3239 2.16684 10.3125 2.18692 10.3021 2.2086C10.2893 2.22955 10.2765 2.25093 10.2629 2.27197C10.2066 2.35539 10.1332 2.43148 10.0545 2.50542C9.97555 2.57926 9.88952 2.64973 9.80391 2.7225C9.71884 2.79619 9.63461 2.87205 9.5591 2.95798L9.53217 2.98915C9.52316 2.99932 9.51428 3.00983 9.50576 3.02153C9.48889 3.04442 9.47138 3.06688 9.45547 3.08977C9.44034 3.11299 9.42531 3.13606 9.41036 3.15896C9.3963 3.18238 9.3833 3.2062 9.36991 3.2295C9.31839 3.32393 9.27979 3.42065 9.25043 3.51423C9.2217 3.60815 9.20464 3.69943 9.19372 3.78395C9.18494 3.86877 9.18126 3.9468 9.18512 4.01573C9.18584 4.03294 9.18653 4.04958 9.1872 4.06566C9.18849 4.0817 9.1904 4.09711 9.19202 4.11191C9.19513 4.14152 9.19819 4.1686 9.2031 4.19282C9.20743 4.21708 9.21089 4.23876 9.21501 4.2574C9.21969 4.27591 9.22366 4.29165 9.2269 4.30442C9.23333 4.32986 9.23677 4.34343 9.23677 4.34343C9.23677 4.34343 9.23499 4.32955 9.23167 4.30349C9.23001 4.29052 9.22797 4.27452 9.22557 4.2557C9.22419 4.23681 9.22259 4.2151 9.22078 4.19078C9.21835 4.16657 9.21803 4.13961 9.2179 4.11034C9.21773 4.09573 9.21753 4.08054 9.21734 4.06476C9.21799 4.049 9.21866 4.03268 9.21935 4.01582C9.2213 3.94842 9.2313 3.87295 9.24451 3.7916C9.26064 3.71061 9.28271 3.62407 9.31382 3.53522C9.34618 3.44683 9.3878 3.35672 9.43854 3.2681C9.45192 3.24634 9.46487 3.22408 9.4788 3.20226C9.49356 3.18099 9.50841 3.15954 9.52334 3.13799C9.55486 3.09689 9.58634 3.05614 9.62418 3.01473C9.69471 2.93583 9.77771 2.86223 9.86213 2.79029C9.94617 2.71745 10.0326 2.64537 10.1138 2.56811C10.195 2.49119 10.2695 2.40687 10.3286 2.31501C10.3428 2.29167 10.3561 2.26803 10.3694 2.2446C10.3809 2.21973 10.3932 2.19457 10.4029 2.17035C10.407 2.15844 10.4111 2.14659 10.4152 2.13481L10.4213 2.11717L10.4244 2.10839L10.4256 2.10456L10.4263 2.10223L10.4276 2.09756C10.4347 2.07273 10.4402 2.04806 10.445 2.02379C10.4641 1.92661 10.4696 1.83594 10.4835 1.75489C10.4869 1.73471 10.4906 1.71466 10.495 1.69609C10.497 1.68683 10.4993 1.67736 10.502 1.66781C10.5045 1.65807 10.5068 1.64993 10.5097 1.64095C10.5206 1.60597 10.5349 1.57386 10.551 1.54518C10.567 1.51635 10.5854 1.49141 10.6042 1.46994C10.6229 1.44833 10.6425 1.43056 10.662 1.41696C10.7007 1.38926 10.7374 1.3764 10.7627 1.37173C10.7753 1.36848 10.7855 1.36843 10.7922 1.36762C10.799 1.36698 10.8025 1.36666 10.8025 1.36666Z" fill="#ED7455"/>
<path d="M8.87106 1.52271C8.87106 1.52271 8.86747 1.52878 8.86074 1.5402C8.85406 1.55173 8.84279 1.5668 8.82725 1.58494C8.81094 1.60247 8.78914 1.62132 8.76174 1.63927C8.73423 1.65713 8.70079 1.67333 8.66311 1.68879C8.62525 1.704 8.58256 1.71741 8.53713 1.73237C8.49158 1.74709 8.44234 1.76163 8.39205 1.78164C8.34182 1.80163 8.28891 1.82498 8.23967 1.86049C8.21528 1.87846 8.19164 1.899 8.1709 1.92294C8.15009 1.94601 8.13212 1.97564 8.11938 2.00149C8.09064 2.06253 8.0817 2.12355 8.08087 2.18319C8.08011 2.24244 8.08866 2.29857 8.0977 2.35127C8.10643 2.40425 8.11887 2.45351 8.12696 2.49953C8.13486 2.54546 8.14042 2.58936 8.14185 2.62973C8.143 2.6701 8.14083 2.70709 8.13502 2.73932C8.12929 2.77161 8.11945 2.79869 8.10943 2.82034C8.10417 2.83102 8.09935 2.84067 8.0941 2.84843C8.08922 2.85646 8.08497 2.86337 8.08069 2.86828C8.07265 2.87876 8.06836 2.88434 8.06836 2.88434C8.06836 2.88434 8.07394 2.88 8.08442 2.87182C8.08989 2.86786 8.09571 2.86206 8.10258 2.8551C8.10991 2.84848 8.11692 2.83972 8.12463 2.82957C8.13956 2.80922 8.15645 2.78233 8.16798 2.7484C8.18022 2.71476 8.18929 2.67503 8.19316 2.63139C8.19752 2.58772 8.19763 2.54044 8.19316 2.49087C8.18911 2.44133 8.18182 2.39086 8.17561 2.33984C8.16924 2.28868 8.16613 2.23645 8.16759 2.18531C8.16895 2.15989 8.17137 2.13453 8.17657 2.11033C8.17923 2.09827 8.1821 2.08622 8.18609 2.07473L8.19211 2.05756L8.19885 2.04246C8.20038 2.03781 8.20453 2.03104 8.20775 2.02505L8.21282 2.01585L8.21409 2.01355L8.21473 2.01241C8.21506 2.0118 8.21294 2.01544 8.21399 2.0137L8.2143 2.01324L8.21683 2.00951L8.2269 1.9946L8.23822 1.98052C8.25404 1.96227 8.2717 1.9452 8.29135 1.92997C8.31135 1.9151 8.33251 1.90128 8.35445 1.88851C8.37668 1.87605 8.39952 1.86459 8.42265 1.85395C8.51545 1.81177 8.60966 1.77793 8.68524 1.73483C8.72326 1.71382 8.75631 1.69031 8.78266 1.66611C8.80931 1.6422 8.8282 1.61697 8.84147 1.59542C8.85421 1.5735 8.86147 1.55461 8.86544 1.54217C8.8691 1.52949 8.87106 1.52271 8.87106 1.52271Z" fill="#ED7455"/>
<path d="M8.20887 2.01685C8.20887 2.01685 8.21015 2.01335 8.21251 2.00681C8.21375 2.00289 8.21504 2.00111 8.21705 1.99279C8.21877 1.98567 8.22128 1.97676 8.22232 1.96805C8.22407 1.95122 8.225 1.93039 8.2202 1.90825C8.21591 1.88612 8.20774 1.86228 8.19446 1.83972C8.16838 1.79451 8.12536 1.75114 8.06729 1.72533L8.05627 1.72074L8.0535 1.71959L8.05131 1.71872L8.05005 1.71832L8.04502 1.71669C8.03836 1.71452 8.03171 1.71229 8.0235 1.71023C8.00762 1.70576 7.99292 1.70307 7.97735 1.70078C7.94656 1.69632 7.91547 1.69509 7.88497 1.69581C7.8239 1.69717 7.76498 1.70491 7.70995 1.70835C7.65538 1.71183 7.60392 1.70979 7.56102 1.70115C7.51791 1.69305 7.48415 1.67742 7.46226 1.66392C7.45151 1.65686 7.44313 1.65103 7.43794 1.64641C7.43257 1.642 7.42969 1.63965 7.42969 1.63965C7.42969 1.63965 7.43232 1.64226 7.43727 1.64716C7.44204 1.65228 7.44986 1.65889 7.46009 1.66708C7.48087 1.68279 7.51397 1.70215 7.55765 1.7147C7.60112 1.72781 7.65389 1.73491 7.7105 1.73664C7.76668 1.73839 7.82621 1.7363 7.88383 1.74051C7.91262 1.74254 7.94084 1.74643 7.96742 1.75291C7.98051 1.75607 7.9941 1.76001 8.00541 1.76445C8.01097 1.7663 8.0176 1.7692 8.02413 1.77204L8.02899 1.77414L8.03019 1.77467L8.03049 1.7748C8.02889 1.77416 8.03019 1.77471 8.02989 1.77459L8.03039 1.77487L8.0324 1.77595L8.04035 1.78022C8.08247 1.80379 8.11248 1.84117 8.12739 1.87442C8.13526 1.8911 8.13861 1.90705 8.13989 1.92049C8.1416 1.93408 8.13941 1.9451 8.13784 1.95388C8.1369 1.95797 8.13559 1.96012 8.13506 1.96281C8.13513 1.96443 8.1319 1.97016 8.13082 1.97277C8.12785 1.97906 8.12625 1.98242 8.12625 1.98242L8.20887 2.01685Z" fill="#ED7455"/>
<path d="M10.7988 3.85461C10.7988 3.85461 10.8024 3.85052 10.8093 3.84258C10.816 3.83437 10.8274 3.82356 10.839 3.80661C10.8643 3.7742 10.8964 3.72275 10.9285 3.6532C10.9616 3.58428 10.9946 3.4971 11.0442 3.40553C11.0697 3.36036 11.1009 3.31465 11.1421 3.27609C11.1518 3.26568 11.1636 3.25768 11.1748 3.24872L11.1833 3.24206L11.1872 3.23909L11.192 3.23593C11.1986 3.23157 11.205 3.22745 11.211 3.22418C11.2359 3.20973 11.2641 3.19754 11.2936 3.18837C11.3523 3.16984 11.4195 3.16074 11.4858 3.16C11.5034 3.16007 11.5211 3.16012 11.539 3.16019C11.5567 3.16058 11.5754 3.1591 11.5923 3.16175C11.6096 3.16352 11.627 3.16528 11.6446 3.16708C11.6621 3.16901 11.6797 3.16982 11.6975 3.17417C11.8407 3.19805 11.9863 3.25301 12.1214 3.33492C12.2563 3.4171 12.3811 3.52718 12.4784 3.66097C12.576 3.79375 12.6484 3.95017 12.6783 4.11287C12.7093 4.27983 12.707 4.45298 12.7258 4.62707C12.7351 4.71392 12.7502 4.80137 12.7797 4.88479C12.8091 4.9683 12.8515 5.04663 12.9073 5.11301C13.0178 5.24528 13.1549 5.33115 13.2641 5.42733C13.3188 5.47489 13.366 5.52798 13.4083 5.58209C13.4505 5.63627 13.4872 5.6921 13.5174 5.74823C13.5482 5.80443 13.5714 5.86023 13.5879 5.91631C13.604 5.97102 13.6131 6.02628 13.6178 6.07801C13.6263 6.18207 13.6199 6.27425 13.6126 6.34965C13.6046 6.42511 13.5963 6.48441 13.5902 6.52475C13.5842 6.5651 13.5809 6.58663 13.5809 6.58663C13.5809 6.58663 13.5858 6.56541 13.595 6.52565C13.6039 6.48581 13.6177 6.42746 13.6303 6.35204C13.6424 6.27665 13.6554 6.18392 13.652 6.07594C13.6499 6.0219 13.6438 5.96482 13.6294 5.90451C13.6155 5.84559 13.5925 5.78439 13.5631 5.72477C13.5041 5.60523 13.4219 5.48381 13.3091 5.37801C13.2525 5.32573 13.1924 5.2778 13.1335 5.22706C13.0747 5.17634 13.0166 5.12396 12.9684 5.06328C12.9449 5.034 12.9224 5.00081 12.9047 4.9665C12.886 4.93244 12.8714 4.8958 12.8586 4.85815C12.8337 4.78252 12.8204 4.70123 12.8117 4.61792C12.7943 4.45145 12.7979 4.27436 12.7664 4.09815C12.7323 3.91816 12.6532 3.75181 12.5476 3.60947C12.5353 3.59096 12.5206 3.57446 12.5063 3.55766C12.492 3.54091 12.4777 3.52418 12.4634 3.5075C12.4482 3.49171 12.4323 3.47671 12.4168 3.46136C12.4008 3.44652 12.3865 3.42998 12.3693 3.41673C12.3526 3.40292 12.336 3.38915 12.3194 3.37544L12.2945 3.35502L12.2682 3.33667C12.2507 3.32448 12.2332 3.31232 12.2158 3.30022C12.1987 3.28766 12.1795 3.27845 12.1616 3.2675C12.0167 3.18226 11.8599 3.12929 11.7074 3.10845C11.6887 3.10453 11.669 3.104 11.6498 3.10251C11.6307 3.1012 11.6116 3.0999 11.5927 3.09861C11.5734 3.09651 11.556 3.09852 11.538 3.09868C11.5201 3.0993 11.5024 3.09992 11.4848 3.10052C11.4466 3.10188 11.4127 3.10689 11.3776 3.11315C11.343 3.11954 11.3093 3.12829 11.277 3.14004C11.2447 3.15166 11.2144 3.16611 11.186 3.18426C11.1785 3.18887 11.1721 3.19339 11.1659 3.19786L11.1612 3.20122C11.1587 3.20304 11.1578 3.20397 11.156 3.2054L11.1468 3.21325C11.1345 3.22372 11.122 3.23363 11.1118 3.24559C11.0683 3.2908 11.038 3.34147 11.014 3.38977C10.9672 3.48733 10.9407 3.57594 10.9122 3.64622C10.8845 3.71671 10.8576 3.77013 10.835 3.80379C10.8249 3.82142 10.8142 3.83319 10.8083 3.84186C10.8021 3.85025 10.7988 3.85461 10.7988 3.85461Z" fill="#ED7455"/>
<path d="M11.7887 3.12504C11.7827 3.13852 11.7317 3.1114 11.7223 3.10843C11.6579 3.08831 11.599 3.02494 11.5702 2.96352C11.5682 2.95935 11.5664 2.95512 11.5647 2.95085C11.5643 2.94993 11.564 2.94899 11.5637 2.94806C11.5593 2.93631 11.5546 2.92431 11.5522 2.91375C11.5489 2.90308 11.5463 2.89128 11.544 2.87923C11.5346 2.83133 11.5315 2.78067 11.5264 2.73302C11.5238 2.70917 11.5212 2.68599 11.5169 2.66414C11.5151 2.6532 11.5127 2.64262 11.5099 2.63246C11.5077 2.62225 11.5044 2.6126 11.501 2.60344C11.4982 2.59414 11.4942 2.58563 11.4902 2.57768C11.4883 2.57368 11.4864 2.56982 11.4846 2.56603C11.4824 2.56243 11.4801 2.55906 11.4779 2.55575C11.4699 2.54206 11.4602 2.53229 11.4527 2.52401C11.4451 2.51579 11.4373 2.5112 11.4329 2.50724C11.4283 2.50355 11.4258 2.50159 11.4258 2.50159C11.4258 2.50159 11.428 2.50383 11.4323 2.50802C11.4362 2.51245 11.4433 2.51773 11.4498 2.52659C11.4563 2.53551 11.4646 2.54586 11.4707 2.55983C11.4724 2.56321 11.4742 2.56667 11.476 2.57026C11.4773 2.57406 11.4787 2.57796 11.4801 2.58197C11.4831 2.58988 11.4859 2.59828 11.4876 2.60748C11.4899 2.61649 11.492 2.62589 11.493 2.63592C11.4946 2.64582 11.4958 2.6561 11.4963 2.66684C11.4982 2.68811 11.4982 2.71087 11.4981 2.73445C11.498 2.78164 11.4953 2.83264 11.4997 2.88527C11.5013 2.91053 11.5067 2.94115 11.5129 2.9638C11.5204 2.99138 11.5316 3.01581 11.5454 3.03858C11.5591 3.06123 11.5754 3.08123 11.5928 3.09824C11.6103 3.1152 11.6283 3.12997 11.6467 3.14126C11.6648 3.15287 11.6826 3.16181 11.699 3.16838C11.7157 3.17511 11.73 3.17945 11.7434 3.18262C11.7502 3.18405 11.7563 3.18534 11.7615 3.18645C11.7658 3.18709 11.7694 3.18763 11.7724 3.18808C11.7782 3.18896 11.7814 3.18944 11.7814 3.18944C11.7814 3.18944 11.7885 3.1264 11.7887 3.12504Z" fill="#ED7455"/>
<path d="M12.7042 7.62905C12.7042 7.62905 12.6908 7.60883 12.6657 7.57088C12.6402 7.53316 12.6053 7.47642 12.5532 7.4085C12.5035 7.33904 12.4386 7.25776 12.3622 7.16582C12.3224 7.12103 12.2821 7.07164 12.2358 7.02261C12.1892 6.97382 12.1415 6.92129 12.0874 6.87024C12.0607 6.84432 12.0335 6.81787 12.0058 6.79092C11.9771 6.76487 11.9478 6.73832 11.918 6.71133C11.8593 6.65638 11.7933 6.60494 11.7279 6.5495C11.5931 6.44287 11.4475 6.33367 11.2885 6.23097C11.1295 6.12859 10.961 6.02788 10.7835 5.9353C10.694 5.89031 10.6042 5.84418 10.5117 5.8021L10.4426 5.76977L10.3721 5.73912L10.2324 5.67879C10.1363 5.642 10.0411 5.60232 9.94412 5.56976C9.89572 5.55309 9.84798 5.53508 9.79934 5.51959C9.75067 5.50419 9.70216 5.48885 9.65384 5.47355C9.4597 5.41469 9.26544 5.36517 9.075 5.32704C8.9802 5.30632 8.88582 5.2906 8.79348 5.27537C8.74747 5.26696 8.70128 5.26206 8.65596 5.25569C8.61056 5.24982 8.56584 5.24323 8.52148 5.2382C8.34392 5.21894 8.17536 5.20604 8.01933 5.2018C7.94131 5.19983 7.86669 5.19642 7.79547 5.19831C7.72433 5.19963 7.65693 5.19873 7.59358 5.20265C7.53025 5.20571 7.47101 5.20785 7.41631 5.21111C7.36167 5.21544 7.31148 5.21942 7.26615 5.223C7.24352 5.22482 7.22207 5.22656 7.20191 5.2282C7.18181 5.23062 7.16297 5.2329 7.14543 5.23502C7.1104 5.23928 7.0806 5.2429 7.05644 5.24585C7.00818 5.25171 6.98242 5.25486 6.98242 5.25486C6.98242 5.25486 7.00832 5.25346 7.05689 5.25083C7.08114 5.24952 7.11107 5.24791 7.14624 5.24601C7.1814 5.24389 7.22179 5.24182 7.2671 5.24094C7.31236 5.23963 7.36245 5.23818 7.41698 5.23661C7.47152 5.23609 7.53047 5.23693 7.59342 5.23705C7.65637 5.23629 7.72324 5.24056 7.79369 5.24279C7.86418 5.2444 7.93804 5.2498 8.01511 5.25477C8.16923 5.26475 8.33519 5.28357 8.50993 5.30648C8.6841 5.33273 8.86709 5.36374 9.05362 5.40626C9.10017 5.41712 9.14766 5.42612 9.19446 5.43875C9.2414 5.45083 9.28867 5.46302 9.33625 5.47527C9.38405 5.48675 9.43087 5.50221 9.47859 5.51565C9.52609 5.5297 9.57448 5.5421 9.62172 5.55816C9.66923 5.57347 9.71693 5.58884 9.76477 5.60425C9.81258 5.61974 9.8595 5.63774 9.90708 5.65444C10.0028 5.68707 10.0949 5.72638 10.1889 5.76259L10.329 5.82215L10.3981 5.85176L10.4663 5.88328C10.5579 5.92428 10.6467 5.96928 10.7352 6.01316C10.9103 6.10405 11.0792 6.19889 11.2375 6.29786C11.3955 6.39725 11.5428 6.50037 11.6791 6.60218C11.7454 6.65501 11.8118 6.7046 11.872 6.75661C11.9026 6.78219 11.9326 6.80735 11.9621 6.83204C11.9906 6.85768 12.0186 6.88282 12.0461 6.90746C12.1555 7.00639 12.2508 7.10174 12.3334 7.1879C12.4146 7.27514 12.4839 7.35268 12.5373 7.41902C12.5925 7.48415 12.6331 7.53767 12.6612 7.57376C12.6892 7.6098 12.7042 7.62905 12.7042 7.62905Z" fill="#ED7455"/>
<path d="M6.79669 1.34351C6.79669 1.34351 6.80558 1.35799 6.82225 1.38516C6.83769 1.41301 6.86146 1.45359 6.88209 1.50954C6.89244 1.53738 6.90108 1.56937 6.90506 1.60432C6.9088 1.63926 6.90647 1.67718 6.89456 1.71422C6.88315 1.7515 6.86186 1.78703 6.83587 1.82149C6.8099 1.85608 6.77906 1.89006 6.74659 1.92603C6.68216 1.99758 6.60801 2.07994 6.56144 2.19463L6.55701 2.20527L6.55589 2.20793L6.55459 2.21166L6.55279 2.21685L6.54552 2.23774C6.54112 2.25261 6.53602 2.26971 6.53295 2.2857C6.52561 2.31782 6.52295 2.35229 6.52351 2.38707C6.5242 2.45735 6.54713 2.52777 6.58001 2.58845C6.61342 2.64935 6.65665 2.70184 6.70306 2.74897C6.74957 2.79621 6.79973 2.83826 6.85121 2.87762C6.9026 2.91712 6.95521 2.95435 7.00671 2.9921C7.05854 3.03024 7.10972 3.06877 7.16043 3.10844C7.21111 3.14797 7.26104 3.18848 7.3096 3.23041C7.35792 3.27265 7.40469 3.31646 7.44951 3.36179C7.49381 3.40769 7.53613 3.455 7.57612 3.5036C7.61527 3.553 7.65218 3.60354 7.68513 3.65599C7.70124 3.68235 7.71735 3.70887 7.73177 3.73548C7.74645 3.76318 7.76217 3.79061 7.77533 3.81743C7.78908 3.84427 7.80266 3.87087 7.81492 3.89817C7.82121 3.91168 7.82747 3.92513 7.83368 3.93847C7.83943 3.95205 7.84513 3.96557 7.8508 3.97898C7.89578 4.08648 7.93069 4.19203 7.9547 4.29192C7.97852 4.39186 7.992 4.48576 7.99821 4.56952C7.99919 4.5905 8.00012 4.6108 8.00102 4.6304C8.00217 4.65004 8.00106 4.66889 8.00132 4.68711C8.00203 4.7236 7.99906 4.75682 7.99733 4.78699C7.99201 4.84699 7.98647 4.89437 7.98011 4.92594C7.97447 4.95781 7.97147 4.97481 7.97147 4.97481C7.97147 4.97481 7.9759 4.95825 7.98422 4.92721C7.9883 4.91165 7.99404 4.8926 7.9982 4.86943C8.0024 4.8463 8.00938 4.82006 8.01274 4.78971C8.01664 4.75949 8.02203 4.72604 8.02392 4.68903C8.02766 4.65216 8.02765 4.61199 8.02807 4.56895C8.02683 4.48297 8.01864 4.3854 7.99823 4.28104C7.97832 4.17665 7.9471 4.06551 7.90373 3.95285C7.89833 3.93875 7.89287 3.92456 7.88739 3.91029C7.88144 3.89626 7.87543 3.88214 7.86941 3.86794C7.85769 3.83939 7.84444 3.81098 7.83091 3.78226C7.81778 3.75291 7.80323 3.72592 7.78886 3.6977C7.77388 3.66864 7.7577 3.64069 7.74115 3.61236C7.70749 3.55621 7.6697 3.50207 7.6296 3.44922C7.5889 3.397 7.54528 3.34676 7.49926 3.29888C7.45299 3.25138 7.40486 3.20565 7.3554 3.16174C7.30568 3.11822 7.25487 3.07618 7.20334 3.03561C7.15152 2.9957 7.09897 2.95677 7.0468 2.91898C6.99417 2.88103 6.94203 2.84473 6.89195 2.80681C6.79272 2.73116 6.69689 2.65025 6.63767 2.54796C6.60881 2.4971 6.59029 2.44173 6.58757 2.38569C6.58628 2.35776 6.58727 2.32969 6.5926 2.30243C6.59485 2.28851 6.59799 2.27669 6.60144 2.26289L6.60799 2.24169L6.60962 2.23641C6.60972 2.23604 6.61055 2.23351 6.61004 2.23491L6.61096 2.23249L6.61462 2.22284C6.65287 2.11928 6.71791 2.0372 6.77902 1.96189C6.80959 1.92396 6.83999 1.88765 6.86545 1.84865C6.89089 1.8099 6.91232 1.76881 6.92288 1.72535C6.93389 1.68221 6.93428 1.63863 6.92728 1.60093C6.92029 1.56314 6.90875 1.53037 6.8961 1.50249C6.8711 1.44638 6.84312 1.40866 6.82557 1.38225C6.80674 1.357 6.79669 1.34351 6.79669 1.34351Z" fill="#ED7455"/>
<path d="M3.54374 7.54411C3.75567 7.40971 3.96666 7.27249 4.18921 7.14446C4.28498 7.08955 4.38333 7.03685 4.48869 6.99097C4.46002 6.97765 4.43108 6.96484 4.40257 6.95115C4.15709 6.83349 3.91796 6.70007 3.69472 6.54277C3.69151 6.54134 3.68801 6.54116 3.6849 6.53929L3.6813 6.53713C3.58162 6.47765 3.43843 6.4612 3.29894 6.45917C3.15764 6.45728 3.013 6.46829 2.86801 6.47855C2.72297 6.48901 2.57664 6.50002 2.42972 6.49795C2.28387 6.49511 2.13306 6.48198 2 6.42052C2.13833 6.46855 2.28535 6.46657 2.42829 6.4556C2.57199 6.44364 2.71449 6.41891 2.85785 6.39442C3.00131 6.37015 3.14543 6.34471 3.29461 6.3321C3.33252 6.32957 3.37114 6.32727 3.41029 6.32641C3.26415 6.20603 3.12596 6.07623 3.00525 5.93036C2.82095 5.7068 2.6682 5.45725 2.57415 5.18716C2.7037 5.44226 2.87497 5.66946 3.07667 5.86391C3.27459 6.06235 3.50602 6.22391 3.74629 6.36529C3.86529 6.4381 3.99177 6.49876 4.11533 6.56314C4.24239 6.62178 4.36892 6.68052 4.49967 6.73065C4.75963 6.83356 5.02583 6.92096 5.29599 6.99398C5.30161 6.99549 5.30726 6.99691 5.31288 6.99843C5.21714 6.87798 5.13575 6.74972 5.06501 6.61754C4.88771 6.28795 4.75912 5.94032 4.66335 5.58453C4.62019 5.41963 4.58261 5.2542 4.56003 5.08197C4.54708 4.97754 4.46758 4.8814 4.36482 4.80826C4.26242 4.73387 4.14294 4.67578 4.02219 4.62133L3.65391 4.46175C3.53228 4.4058 3.40854 4.34667 3.30698 4.25844C3.41642 4.33619 3.54275 4.38193 3.66822 4.42555L4.05055 4.54881C4.17819 4.59225 4.3065 4.63902 4.42875 4.71053C4.47085 4.73537 4.51216 4.76396 4.55078 4.79765C4.55173 4.78309 4.55256 4.76846 4.5539 4.75412C4.56141 4.66098 4.57441 4.57008 4.58788 4.48002C4.61618 4.30003 4.6481 4.12294 4.66105 3.94394C4.67644 3.76526 4.66893 3.58448 4.62413 3.40796C4.69216 3.5766 4.7208 3.76229 4.72398 3.94548C4.72781 4.12923 4.7135 4.31243 4.70106 4.49263C4.68845 4.67242 4.67571 4.8519 4.7069 5.01761C4.73739 5.17165 4.78062 5.32752 4.82874 5.48088L4.83185 5.47117L4.85563 5.4158C4.91951 5.26873 5.00583 5.13543 5.10549 5.01441C5.20515 4.8935 5.32123 4.78586 5.45257 4.70143C5.58295 4.61829 5.73507 4.55625 5.89008 4.5662C5.73486 4.56946 5.59378 4.64239 5.4746 4.7329C5.35484 4.82485 5.25198 4.93767 5.16647 5.06114C5.08104 5.18442 5.01016 5.318 4.96327 5.45702C4.93262 5.548 4.91299 5.6449 4.91432 5.73433C4.95008 5.83496 4.98735 5.93497 5.02846 6.03318C5.09574 6.19769 5.17093 6.35856 5.25728 6.51147C5.34342 6.66414 5.44009 6.81021 5.553 6.9358C5.60878 6.99834 5.66927 7.05567 5.73377 7.10319C5.85973 7.13137 5.98619 7.15614 6.11876 7.18417C6.40146 7.24519 6.68524 7.31358 6.96418 7.41287C7.2426 7.51208 7.52168 7.63114 7.77945 7.82159C7.81419 7.84842 7.84837 7.87713 7.8819 7.9072C7.91517 7.49806 7.97638 7.08833 8.09418 6.6855C8.10072 6.66396 8.10823 6.64259 8.11508 6.62109C8.12636 6.4659 8.10279 6.30208 8.05325 6.14018C7.99638 5.95516 7.91287 5.77252 7.81926 5.59335C7.737 5.43709 7.64706 5.28309 7.55488 5.12942C7.54922 5.12409 7.54398 5.11822 7.53945 5.11149C7.52592 5.0913 7.51596 5.07047 7.50735 5.04955C7.40298 4.8772 7.29604 4.705 7.19248 4.53053C7.119 4.4073 7.04693 4.28258 6.97774 4.1561C6.96575 4.15009 6.95504 4.14128 6.94764 4.12646C6.91753 4.06604 6.85362 4.01021 6.78523 3.96286C6.71635 3.91486 6.64058 3.87268 6.5636 3.83234C6.40914 3.75199 6.24862 3.67877 6.09061 3.59997C5.9325 3.52152 5.77567 3.43783 5.62913 3.33792C5.48368 3.2382 5.3453 3.11951 5.25502 2.96712C5.35439 3.11358 5.49733 3.22141 5.64642 3.31098C5.79659 3.40048 5.95592 3.4735 6.1174 3.54178C6.27887 3.61041 6.44292 3.67347 6.60549 3.74585C6.67828 3.77858 6.75073 3.81397 6.82168 3.85527C6.75177 3.71159 6.68739 3.56514 6.63142 3.41511C6.48506 3.02528 6.40038 2.60667 6.43223 2.19306C6.42723 2.60805 6.53749 3.01258 6.70508 3.38497C6.87268 3.75901 7.09374 4.10584 7.32653 4.44486C7.38395 4.52885 7.44229 4.61231 7.50092 4.69578C7.51832 4.62225 7.54219 4.55305 7.56848 4.48567C7.64096 4.30787 7.7328 4.14418 7.83228 3.98643C7.93128 3.82831 8.04244 3.67912 8.16027 3.53535C8.27928 3.39234 8.40397 3.25401 8.5477 3.12953C8.61975 3.06854 8.69767 3.00717 8.79297 2.9668L8.79793 2.96479C8.81811 2.94684 8.83521 2.92265 8.84712 2.89131C8.86448 2.84619 8.87312 2.79312 8.87696 2.73899C8.88439 2.63002 8.87455 2.51611 8.86222 2.40292L8.81972 2.06093C8.8133 2.00358 8.80779 1.94599 8.80601 1.88812C8.80443 1.83056 8.80583 1.77127 8.82399 1.71643C8.81138 1.77273 8.81585 1.83035 8.82293 1.88681C8.83033 1.94339 8.84132 1.9995 8.85321 2.05547L8.9293 2.39205C8.95298 2.50537 8.97497 2.62001 8.97884 2.74092C8.98018 2.79524 8.97748 2.8513 8.96435 2.90893C8.99949 2.8997 9.03465 2.89255 9.06972 2.88426C9.25431 2.84881 9.43649 2.83245 9.61766 2.81494C9.79861 2.79738 9.97854 2.77784 10.1544 2.73823C10.3301 2.70046 10.5032 2.64055 10.6529 2.5348C10.5173 2.65873 10.3438 2.73586 10.169 2.79268C9.99255 2.84743 9.81111 2.88168 9.63113 2.91368C9.45149 2.94659 9.27062 2.97034 9.09938 3.01496C9.05753 3.02761 9.01384 3.03703 8.97425 3.05303L8.91395 3.07515L8.85766 3.10216C8.7859 3.13623 8.72195 3.19394 8.65745 3.25245C8.40351 3.49475 8.19114 3.79152 8.00491 4.09351C7.91259 4.24541 7.82943 4.40317 7.76643 4.56393C7.73506 4.64391 7.70895 4.72537 7.69617 4.80344C7.68914 4.84261 7.68815 4.87965 7.68971 4.91349C7.69285 4.94619 7.70131 4.9726 7.71211 4.99122L7.71766 5.00076C7.71967 5.00427 7.71992 5.00821 7.72149 5.01185C7.82615 5.16322 7.92946 5.31653 8.02702 5.47595C8.13635 5.65637 8.23871 5.84483 8.31691 6.0507C8.32267 6.06598 8.3279 6.08167 8.33332 6.0972C8.34189 6.08148 8.34932 6.0654 8.3583 6.0498C8.41729 5.94854 8.4831 5.84939 8.56304 5.75869C8.58182 5.7353 8.60288 5.71341 8.62439 5.69182C8.64602 5.67036 8.66595 5.64771 8.68985 5.62812L8.75924 5.56824L8.82638 5.5163C8.98895 5.39433 9.15869 5.28645 9.3327 5.18829C9.3822 5.12633 9.42489 5.04989 9.45808 4.97048C9.51787 4.82916 9.55797 4.6753 9.58722 4.51952C9.61616 4.36336 9.63388 4.20403 9.64079 4.04385C9.64658 3.88368 9.64298 3.7224 9.61941 3.56249C9.66021 3.71898 9.68165 3.8808 9.6934 4.0431C9.70402 4.20557 9.70381 4.36918 9.69158 4.53304C9.67881 4.6968 9.65521 4.86119 9.60655 5.02399C9.60415 5.03171 9.60145 5.03945 9.59895 5.04719C9.72734 4.98332 9.85728 4.92349 9.98819 4.86753C10.3917 4.69578 10.8023 4.55378 11.2208 4.42394C11.4284 4.35946 11.6365 4.29793 11.8446 4.23733L11.9618 4.20369C11.9699 4.19553 11.9796 4.18869 11.9917 4.18583C12.0277 4.17734 12.0679 4.1361 12.0969 4.08535C12.1263 4.03418 12.149 3.9755 12.1676 3.91522C12.2043 3.79402 12.2263 3.66582 12.2405 3.53705C12.2545 3.40806 12.2609 3.27766 12.2592 3.14721C12.2575 3.0168 12.2491 2.88593 12.2251 2.75692C12.2596 2.88359 12.2789 3.0144 12.2914 3.1455C12.3037 3.27676 12.3082 3.40893 12.3047 3.54144C12.3009 3.67394 12.2895 3.8069 12.261 3.93967C12.2464 4.00542 12.2275 4.07127 12.1972 4.13614L12.4686 4.05823C12.6758 3.99678 12.8823 3.93366 13.0845 3.85909C13.1854 3.82151 13.2854 3.78173 13.3827 3.73565C13.4791 3.68862 13.5748 3.63667 13.6542 3.56252C13.5817 3.64368 13.4896 3.7052 13.3965 3.76143C13.3027 3.81724 13.205 3.86605 13.1058 3.91084C12.9075 4.00102 12.7047 4.07966 12.5016 4.15651L11.3551 4.57759C11.4969 4.60997 11.6334 4.65492 11.766 4.70576C12.0925 4.83519 12.4002 4.99498 12.7014 5.16241C12.7124 5.16854 12.7233 5.17481 12.7343 5.18096C12.7428 5.18246 12.7514 5.18511 12.7592 5.18984C12.7768 5.20043 12.7937 5.21177 12.8098 5.22368C13.0737 5.37229 13.3352 5.52318 13.5996 5.66727C13.7502 5.74866 13.9026 5.82637 14.0596 5.89322C14.2161 5.95889 14.3797 6.01984 14.5528 6.01643C14.3801 6.03434 14.2078 5.98647 14.0445 5.9332C13.8803 5.87801 13.7216 5.80913 13.5644 5.73809C13.3838 5.65624 13.2063 5.56862 13.0295 5.48072C13.0383 5.49611 13.0467 5.51159 13.0547 5.52712C13.1209 5.65702 13.1637 5.79441 13.1926 5.93318C13.2204 6.07226 13.2338 6.21336 13.2323 6.35393C13.2301 6.49408 13.2145 6.63564 13.1678 6.76715C13.2029 6.63215 13.2058 6.49221 13.196 6.35506C13.1854 6.21771 13.1604 6.08181 13.122 5.95067C13.0828 5.82001 13.0303 5.69341 12.9598 5.58084C12.8899 5.46899 12.799 5.37029 12.69 5.31777C12.688 5.31683 12.6861 5.31579 12.6842 5.31464C12.6803 5.31231 12.6779 5.30878 12.6746 5.3059C12.6619 5.29973 12.6493 5.29335 12.6365 5.28724C12.3286 5.13783 12.0191 4.99221 11.7013 4.88188C11.5431 4.82646 11.3822 4.78012 11.2217 4.75675C11.119 4.7412 11.0158 4.73578 10.9182 4.74602C10.6394 4.85697 10.3639 4.97375 10.0963 5.10407C9.71418 5.29227 9.34342 5.50307 9.02212 5.76542L8.96283 5.81528L8.91128 5.86372C8.89356 5.87891 8.87871 5.89799 8.86254 5.91524C8.84645 5.9326 8.83055 5.95023 8.81632 5.96984C8.75569 6.04395 8.70444 6.12829 8.65807 6.21578C8.56482 6.39114 8.49686 6.58519 8.44308 6.78404C8.42688 6.84582 8.41255 6.90826 8.39906 6.97099C8.4516 6.9596 8.50234 6.95804 8.54859 6.95866C8.71616 6.96684 8.86058 7.00696 9.0038 7.04501C9.28792 7.12405 9.56011 7.2115 9.83763 7.25708C10.1135 7.30293 10.3963 7.30323 10.655 7.20329C10.9138 7.10432 11.1322 6.90292 11.3007 6.66354C11.2411 6.79752 11.1637 6.92548 11.066 7.0401C10.9687 7.15471 10.8476 7.2529 10.7109 7.32501C10.6095 7.37865 10.4999 7.4167 10.3877 7.44151C10.4499 7.48735 10.5051 7.53904 10.5575 7.59174C10.6527 7.68797 10.7372 7.79069 10.8204 7.89328C10.8224 7.89541 10.8251 7.89683 10.8269 7.89934C10.8288 7.902 10.8301 7.90472 10.8319 7.90743C10.8588 7.94069 10.8856 7.97394 10.9126 8.00689C11.0267 8.14577 11.1378 8.28657 11.265 8.41027C11.329 8.47152 11.3969 8.52883 11.4729 8.57351C11.5486 8.61736 11.6373 8.64358 11.7274 8.63079C11.6397 8.65428 11.5431 8.63852 11.4589 8.60183C11.3737 8.56523 11.2972 8.5123 11.2256 8.45529C11.1108 8.36338 11.007 8.26039 10.9065 8.15564C10.9083 8.18151 10.909 8.20723 10.9089 8.23281C10.9076 8.34125 10.8919 8.44735 10.8663 8.55054C10.8407 8.65358 10.8039 8.75426 10.7503 8.84597C10.6973 8.93635 10.6253 9.02274 10.5274 9.0624C10.6208 9.01337 10.681 8.92379 10.7238 8.83215C10.7667 8.73931 10.7927 8.6393 10.8077 8.5386C10.8227 8.43794 10.8276 8.3357 10.8193 8.23624C10.8113 8.1393 10.7864 8.03426 10.7369 7.97824L10.733 7.97382C10.7317 7.97232 10.7304 7.97073 10.729 7.96839C10.6394 7.87439 10.5493 7.78237 10.4568 7.69605C10.3566 7.60494 10.2474 7.51624 10.1365 7.47516C10.0273 7.4811 9.91805 7.47695 9.81053 7.46733C9.50785 7.43785 9.21829 7.35646 8.9398 7.28123C8.80131 7.24472 8.66185 7.20705 8.53726 7.1976C8.47591 7.19265 8.42031 7.19829 8.39013 7.21509C8.37215 7.22408 8.35738 7.24124 8.34493 7.2656C8.30655 7.51634 8.28491 7.77187 8.27331 8.02763C8.26375 8.22571 8.26228 8.42322 8.26461 8.62388C8.26673 8.64971 8.26818 8.67554 8.26845 8.70128C8.26868 8.71659 8.26705 8.73143 8.26414 8.74585L8.26235 8.9956L8.2555 9.32141L8.22094 10.6211L8.14393 13.2179L8.05491 15.8135L7.96769 18.4082C7.93817 19.2721 7.91089 20.1426 7.89747 21H7.38254C7.38061 20.1257 7.40987 19.2578 7.43515 18.3908C7.46002 17.5246 7.49822 16.6592 7.53332 15.7938L7.64558 13.1983L7.77205 10.604L7.77438 10.5527C7.77308 10.5501 7.7723 10.5475 7.77081 10.5449C7.7509 10.5049 7.7088 10.4647 7.65644 10.4281C7.54816 10.3554 7.40079 10.3043 7.25052 10.265C6.94586 10.1879 6.61738 10.155 6.29007 10.1306C6.07669 10.1152 5.86192 10.1053 5.64655 10.0959C5.56388 10.1093 5.47606 10.1432 5.39374 10.1844C5.29071 10.2363 5.19167 10.3001 5.09722 10.3703C5.00267 10.4406 4.91328 10.5186 4.83054 10.6034C4.7485 10.6885 4.67126 10.7801 4.61559 10.8862C4.65992 10.7748 4.72829 10.6736 4.80242 10.5787C4.87731 10.484 4.95995 10.3951 5.04933 10.3129C5.13874 10.2308 5.23393 10.154 5.33814 10.087C5.34061 10.0855 5.34325 10.084 5.34574 10.0825C5.32975 10.0817 5.31374 10.0811 5.29775 10.0803C5.13155 10.0728 4.96497 10.0609 4.79844 10.0433C4.7153 10.033 4.63213 10.0207 4.54982 10.0031C4.46898 9.98325 4.38321 9.96168 4.31788 9.90805C4.39047 9.94969 4.47486 9.95483 4.55588 9.96214C4.63775 9.96813 4.72011 9.96877 4.80249 9.96748C4.96725 9.96707 5.1325 9.95714 5.2979 9.95038C5.62883 9.93502 5.96077 9.9149 6.29555 9.90766C6.63059 9.90174 6.96774 9.90213 7.31422 9.9555C7.47204 9.98175 7.63314 10.0178 7.79516 10.0974L7.83123 9.30788L7.84422 8.9846L7.85111 8.72391C7.85053 8.7181 7.84918 8.71253 7.84909 8.70661L7.84902 8.70131C7.84745 8.59609 7.82032 8.49783 7.76452 8.40432C7.709 8.3109 7.62521 8.22468 7.52786 8.14746C7.33115 7.99217 7.08535 7.87269 6.83111 7.77394C6.57544 7.67619 6.30924 7.59225 6.03827 7.52026C5.90457 7.48461 5.76272 7.44974 5.623 7.41004C5.48334 7.37093 5.34505 7.32719 5.2073 7.28203C5.09593 7.2436 4.98574 7.20188 4.87626 7.15824C4.85157 7.15538 4.82077 7.15614 4.78795 7.16112C4.73811 7.16736 4.68303 7.18478 4.6287 7.20255C4.51915 7.24193 4.40787 7.29298 4.29719 7.34708C4.07586 7.45659 3.85664 7.58114 3.63224 7.6976C3.54873 7.74104 3.46463 7.78411 3.37994 7.82636C3.32992 7.86966 3.28355 7.92009 3.24219 7.97468C3.17499 8.06335 3.11922 8.16241 3.07349 8.26594C3.02797 8.36957 2.99196 8.47827 2.97108 8.59026C2.95117 8.70175 2.94357 8.81897 2.97824 8.92988C2.93329 8.82259 2.92942 8.70172 2.93935 8.58597C2.95011 8.46938 2.97663 8.35437 3.01378 8.24277C3.04971 8.1357 3.09605 8.03139 3.15563 7.9331C3.08533 7.96467 3.01443 7.99509 2.94207 8.02258C2.82219 8.06712 2.69992 8.10789 2.57318 8.13102C2.44742 8.15547 2.31646 8.16541 2.1914 8.1431C2.44502 8.12902 2.67449 8.02721 2.89662 7.91898C3.11771 7.80604 3.33208 7.67856 3.54374 7.54411Z" fill="#FF0008"/>
<path d="M6.21472 7.54602C7.70647 7.54602 8.91577 6.33672 8.91577 4.84497C8.91577 3.35322 7.70647 2.14392 6.21472 2.14392C4.72297 2.14392 3.51367 3.35322 3.51367 4.84497C3.51367 6.33672 4.72297 7.54602 6.21472 7.54602Z" fill="url(#paint0_radial_20_14604)"/>
<defs>
<radialGradient id="paint0_radial_20_14604" cx="0" cy="0" r="1" gradientUnits="userSpaceOnUse" gradientTransform="translate(6.21472 4.84496) scale(2.70105)">
<stop offset="0.2021" stop-color="#FF0008"/>
<stop offset="0.4091" stop-color="#FF494F"/>
<stop offset="0.7002" stop-color="#FFAAAD"/>
<stop offset="0.9037" stop-color="#FFE7E8"/>
<stop offset="1" stop-color="white"/>
</radialGradient>
</defs>
</svg>
