<svg width="24" height="21" viewBox="0 0 24 21" fill="none" xmlns="http://www.w3.org/2000/svg">
<path d="M9.85553 11.7228C9.80312 10.751 9.97531 9.83647 10.2395 8.92587C10.3009 8.56695 10.367 8.20435 10.4302 7.83041C10.5455 7.14392 10.5575 6.52413 10.1365 5.95786C9.39308 4.95925 6.77673 6.05202 6.0592 6.51245C6.05779 6.51516 6.05486 6.5198 6.05149 6.52089C4.08812 7.39289 2.66249 8.66533 1.64559 10.6522C0.580842 12.7287 0.0508014 15.141 0.00164919 17.4766C-0.0473945 19.8435 0.997388 20.4753 3.13871 19.9758C4.86566 19.5739 7.17017 18.9157 8.49283 17.6504C9.03686 17.1307 9.4009 16.599 9.64069 16.0422C9.8846 14.583 9.93387 13.2204 9.85553 11.7228Z" fill="#F1A6A5"/>
<path d="M9.82817 10.8951C9.78444 10.0515 9.9281 9.25779 10.1489 8.46752C10.2002 8.15584 10.2552 7.84124 10.3081 7.5167C10.4044 6.92081 10.4144 6.38286 10.0629 5.89129C9.44201 5.02436 7.25717 5.97302 6.6578 6.37259C6.65661 6.37507 6.65422 6.37907 6.65129 6.37994C5.0118 7.13681 3.82119 8.24136 2.97193 9.9658C2.08274 11.7682 1.64015 13.8621 1.59903 15.8895C1.55812 17.9437 2.4306 18.4922 4.21885 18.0587C5.66098 17.7098 7.58561 17.1385 8.69007 16.0403C9.14438 15.5892 9.4483 15.1278 9.6486 14.6444C9.85258 13.3778 9.8936 12.1952 9.82817 10.8951Z" fill="#95303B"/>
<path d="M5.75562 17.4429C5.10514 17.66 4.40442 17.8595 3.74374 18.0206C2.2248 18.3888 1.73067 17.3241 1.74239 15.8576C1.75509 14.4453 1.99379 13.0275 2.4392 11.6967C2.99832 10.0247 3.68862 8.48565 5.07563 7.43353C5.46179 7.14066 6.47641 6.49796 7.50698 6.08433C8.38304 5.75579 9.55314 5.34033 10.0434 6.10358C10.4499 6.73677 10.0882 7.88607 9.83276 8.78878C9.73651 9.28835 9.66338 9.79214 9.62237 10.2985C9.77384 11.7719 9.9507 13.5247 9.33885 14.862C8.69987 16.2564 7.23203 16.9455 5.75562 17.4429Z" fill="#E14B4F"/>
<path opacity="0.5" d="M10.0432 6.10351C9.61455 5.43616 8.66395 5.66999 7.84529 5.96037C8.2946 5.84513 8.7692 5.80837 9.14885 6.04859C9.95721 6.55919 9.10773 7.90676 8.97449 8.51001C8.64984 9.98115 8.89495 11.5729 8.41124 13.0084C8.04179 14.1051 7.32458 14.8451 6.25473 15.2952C5.47058 15.625 3.55657 16.5237 2.71859 15.855C1.97068 15.2592 2.05553 14.0512 2.15665 13.2048C2.23619 12.538 2.40176 11.8909 2.59675 11.2515C2.54304 11.3988 2.4903 11.5469 2.4392 11.6966C1.9939 13.0275 1.75508 14.4452 1.74239 15.8575C1.73078 17.3239 2.22479 18.3888 3.74374 18.0206C4.40442 17.8595 5.10513 17.6599 5.75561 17.4428C7.23203 16.9454 8.69986 16.2563 9.33874 14.8618C9.9507 13.5245 9.77373 11.7718 9.62225 10.2983C9.66327 9.79196 9.7364 9.28818 9.83264 8.78861C10.0881 7.88601 10.4497 6.7367 10.0432 6.10351Z" fill="#CC4547"/>
<g opacity="0.5">
<path d="M3.49447 16.9506C3.48416 16.9607 3.47385 16.975 3.46094 16.985C3.47385 16.9736 3.48427 16.9623 3.49447 16.9506Z" fill="#E14B4F"/>
<path d="M5.77572 11.2429C5.32945 11.5623 4.90965 11.8769 4.52587 12.2015C4.50547 12.1951 4.47726 12.204 4.45936 12.2283C4.44275 12.2515 4.42995 12.2757 4.41585 12.2985C4.35422 12.3497 4.29779 12.4046 4.24007 12.4596C3.79358 12.5954 3.35989 12.7654 2.97774 13.0401C2.54654 13.3482 2.32444 13.761 2.12577 14.2275C2.12175 14.2365 2.13477 14.2353 2.13597 14.2302C2.44509 13.7279 2.71711 13.2868 3.26364 13.0017C3.50235 12.879 3.75376 12.7806 4.00147 12.6795C3.08288 13.5795 2.44271 14.619 2.24903 16.1259C2.24642 16.1336 2.25923 16.1285 2.26183 16.1224C2.36708 15.6083 2.52213 15.1546 2.72102 14.739C2.71722 14.8145 2.71722 14.8925 2.71722 14.9719C2.71722 15.4089 2.74543 15.9419 2.62868 16.3675C2.62749 16.3766 2.63888 16.3739 2.6417 16.3675C2.8829 15.7793 2.77755 15.1004 2.85317 14.4759C3.20874 13.8123 3.66793 13.2499 4.20557 12.7193C4.07091 13.0979 4.05019 13.5064 4.04248 13.9298C4.02979 14.6138 4.10531 16.3126 3.49346 16.9504C3.90913 16.5605 4.0631 15.938 4.13363 15.2553C4.20546 15.484 4.29779 15.7028 4.36713 15.9458C4.48757 16.3715 4.52999 16.815 4.48496 17.2545C4.48496 17.2648 4.49538 17.26 4.49787 17.2533C4.64403 16.4812 4.47346 15.704 4.15923 14.9943C4.22586 14.1046 4.19124 13.15 4.42854 12.5029C4.44004 12.49 4.45426 12.4798 4.46695 12.4672C4.49527 12.4531 4.52348 12.4402 4.55299 12.4237C4.5696 12.4148 4.5837 12.3828 4.5735 12.3703C4.95945 12.0145 5.36742 11.6619 5.79862 11.2925C5.82976 11.267 5.81544 11.2146 5.77572 11.2429Z" fill="#E14B4F"/>
<path d="M3.15991 17.1897C3.21145 17.164 3.25247 17.1308 3.29869 17.1001C3.25366 17.1244 3.20896 17.1503 3.15991 17.164C3.14201 17.1691 3.14201 17.1999 3.15991 17.1897Z" fill="#E14B4F"/>
<path d="M3.36664 17.0577C3.34624 17.0734 3.32194 17.0862 3.29883 17.1001C3.32324 17.0886 3.34353 17.0734 3.36664 17.0577Z" fill="#E14B4F"/>
<path d="M3.46083 16.985C3.43262 17.0117 3.39941 17.0349 3.36719 17.0576C3.3993 17.0336 3.43262 17.0108 3.46083 16.985Z" fill="#E14B4F"/>
<path d="M6.0449 11.0384C5.49978 11.1738 4.93773 11.0727 4.39608 11.2722C3.78802 11.4959 3.25831 11.796 2.82842 12.2806C2.8231 12.2845 2.82842 12.2883 2.83211 12.2858C3.40175 11.7771 4.10247 11.4383 4.85169 11.2903C5.25196 11.211 5.66622 11.2722 6.0449 11.0945C6.0665 11.0841 6.0832 11.0293 6.0449 11.0384Z" fill="#E14B4F"/>
<path d="M9.51523 8.65432C9.35464 8.7194 9.18418 8.75627 9.0109 8.77962C8.31702 8.68103 7.89353 8.04178 7.26746 7.74653C6.72093 7.49086 6.23733 7.4447 5.65347 7.51659C5.64696 7.51659 5.64056 7.52924 5.64945 7.52794C6.20521 7.49713 6.77225 7.60707 7.26746 7.85897C7.20703 7.86545 7.15093 7.87572 7.10709 7.88232C6.73753 7.94859 6.399 8.01108 6.02292 7.92037C6.01641 7.92037 6.00882 7.93086 6.01533 7.93324C6.25002 8.02145 6.48873 8.05086 6.73753 8.04178C6.86459 8.0381 6.97494 7.98686 7.09689 7.96654C7.22254 7.94621 7.33398 7.95616 7.45745 7.96264C7.61261 8.05875 7.76159 8.16719 7.89602 8.29508C8.12063 8.5087 8.37344 8.70167 8.65577 8.80124C7.77548 8.79757 6.82357 8.4447 5.97193 8.53302C5.02491 8.6314 4.04609 9.02503 3.53927 9.8713C3.53797 9.87768 3.54296 9.88017 3.54817 9.8752C4.04327 9.20784 4.71187 8.91389 5.43668 8.79887C5.34695 8.86276 5.26329 8.93551 5.17486 9.01616C4.99778 9.18233 4.80161 9.31898 4.59892 9.45206C4.43573 9.55811 4.24867 9.72168 4.04848 9.7473C4.04327 9.74849 4.03947 9.75638 4.04327 9.75638C4.28719 9.75638 4.5361 9.57098 4.73227 9.44806C4.91206 9.338 5.08382 9.21422 5.23898 9.07346C5.37765 8.94805 5.52261 8.85897 5.67528 8.76795C6.4233 8.69151 7.21744 8.78211 7.94485 8.85368C8.30812 8.88805 8.70449 8.93822 9.07275 8.86892C9.14208 8.86514 9.21369 8.85627 9.28433 8.83832C9.29974 8.83476 9.31113 8.81659 9.31113 8.80405C9.38437 8.77584 9.46 8.74265 9.52944 8.69897C9.55494 8.6834 9.54973 8.64016 9.51523 8.65432Z" fill="#E14B4F"/>
<path d="M9.99613 8.11216C9.58034 8.01022 9.4739 7.58697 9.30583 7.25054C9.17345 6.98826 8.96957 6.78913 8.73607 6.61767C8.33971 6.32685 7.73415 6.32837 7.29406 6.50923C7.27865 6.51572 7.26964 6.55248 7.29406 6.54631C8.1036 6.34826 8.76059 6.62815 9.2085 7.32081C9.27512 7.42427 9.32904 7.52924 9.38145 7.63021C9.23009 7.51908 9.07102 7.51129 8.7875 7.53291C8.0793 7.58686 7.39301 7.51659 6.8901 6.95907C6.88359 6.95259 6.87588 6.96307 6.87708 6.96794C7.09387 7.28891 7.41102 7.55616 7.80489 7.62254C8.06921 7.66708 8.33982 7.69789 8.60793 7.67108C9.00549 7.63021 9.20199 7.62502 9.50612 7.83854C9.61126 7.98676 9.74722 8.09822 9.98831 8.1287C9.99613 8.13 10.0063 8.11465 9.99613 8.11216Z" fill="#E14B4F"/>
<path d="M9.33316 12.4496C9.33316 12.4535 9.33717 12.4496 9.33717 12.4483C9.29225 12.1861 9.07535 11.951 8.87777 11.7862C8.74941 11.6814 8.60835 11.5932 8.4839 11.4821C8.42889 11.4321 8.38516 11.3656 8.34653 11.2928C8.37496 10.8341 8.5082 10.3672 8.82525 9.84461C8.83285 9.83283 8.81874 9.83023 8.81234 9.83932C8.43627 10.3519 8.05921 11.0048 8.09394 11.6712C8.11184 11.9599 8.14634 12.213 8.20569 12.4724C7.93226 12.9494 8.05292 13.5285 8.20797 14.0219C8.20928 14.0269 8.21947 14.0194 8.21817 14.0144C8.12204 13.5374 8.09383 13.0707 8.24009 12.6094C8.2568 12.6707 8.2734 12.7333 8.29402 12.7999C8.60955 13.8417 8.7098 14.5464 8.37355 15.6084C8.36465 15.6391 8.40415 15.6337 8.41196 15.6111C8.75331 14.8465 8.81104 14.1756 8.63917 13.3586C8.60076 13.168 8.55963 12.9866 8.51981 12.81C8.58003 12.8958 8.63917 12.9816 8.70058 13.0708C9.04074 13.5632 9.23312 14.1217 9.17518 14.7251C9.17518 14.73 9.18179 14.7265 9.1844 14.7227C9.28194 14.2253 9.2202 13.8099 8.99072 13.3572C8.84305 13.0658 8.62875 12.828 8.46708 12.5544C8.39156 12.1813 8.34013 11.8322 8.34273 11.4821C8.62636 11.8259 9.20122 11.9881 9.33316 12.4496Z" fill="#E14B4F"/>
<path d="M6.49312 13.59C6.74225 13.168 6.97933 12.7373 7.1065 12.2589C7.11669 12.2183 7.06776 12.2157 7.05257 12.2462C6.32766 13.6676 4.93045 15.208 5.87216 16.8344C5.87617 16.8418 5.88637 16.8317 5.88507 16.8253C5.28862 15.6046 5.82995 14.7046 6.38657 13.7688C6.36476 14.0771 6.4405 14.3798 6.49942 14.6943C6.59967 15.2247 6.65859 15.7427 6.55714 16.2794C6.55226 16.2872 6.56506 16.2846 6.56636 16.2783C6.6612 15.9163 6.6855 15.5624 6.6663 15.189C6.6383 14.6559 6.43171 14.1257 6.49312 13.59Z" fill="#E14B4F"/>
</g>
<path d="M8.62392 6.12139C6.98312 6.7189 5.74629 7.29166 4.48493 8.54032C2.99431 10.0209 2.40795 12.0776 2.45146 14.1088C2.45276 14.1564 2.51689 14.1143 2.52199 14.086C2.89155 12.0801 3.64848 9.92617 5.10199 8.46746C6.12084 7.44745 7.37298 6.81112 8.62522 6.13652C8.63412 6.13274 8.63553 6.11739 8.62392 6.12139Z" fill="#E14B4F"/>
<path d="M8.477 15.1405C7.48245 16.4878 3.42181 18.1918 2.11065 16.9097C2.10143 16.901 2.08114 16.9198 2.09014 16.9289C3.39751 18.9795 7.55808 16.6861 8.514 15.1546C8.53451 15.125 8.49479 15.1177 8.477 15.1405Z" fill="#E14B4F"/>
<path d="M13.0894 16.27C13.3559 16.9135 13.7593 17.528 14.3622 18.1285C15.8346 19.5906 18.3954 20.3515 20.3151 20.8157C22.6982 21.393 23.8617 20.6626 23.8083 17.9276C23.7538 15.2284 23.1628 12.4405 21.9806 10.0408C20.848 7.74472 19.2629 6.27422 17.08 5.26654C17.0747 5.26524 17.0747 5.25994 17.0714 5.25659C16.2755 4.72459 13.3613 3.46156 12.5379 4.61572C12.0698 5.27021 12.0834 5.98654 12.2114 6.77985C12.28 7.21206 12.3552 7.63099 12.4234 8.04591C12.7138 9.09802 12.9087 10.155 12.8504 11.278C12.7634 13.0089 12.8147 14.5836 13.0894 16.27Z" fill="#95303B"/>
<path d="M13.5039 16.5596C12.689 14.7792 12.9217 12.4455 13.1228 10.4837C13.0681 9.80953 12.9709 9.13904 12.8428 8.47374C12.5064 7.272 12.0247 5.74183 12.566 4.89879C13.2152 3.88257 14.7748 4.43566 15.9429 4.87306C17.3112 5.42399 18.6626 6.27956 19.18 6.6694C21.0268 8.07027 21.9422 10.1193 22.6887 12.3454C23.2816 14.1176 23.5996 16.005 23.6145 17.8855C23.635 19.8378 22.9756 21.2554 20.9532 20.7654C20.0752 20.5509 19.1391 20.2851 18.2713 19.9961C16.3089 19.3338 14.3564 18.4164 13.5039 16.5596Z" fill="#E14B4F"/>
<path opacity="0.5" d="M12.566 4.8986C13.1351 4.00995 14.4023 4.3213 15.4922 4.7079C14.8943 4.55438 14.2606 4.50541 13.757 4.8253C12.6805 5.50509 13.8113 7.29916 13.9888 8.10241C14.4181 10.0612 14.095 12.1805 14.739 14.0917C15.2311 15.5519 16.1858 16.5372 17.6104 17.1365C18.6525 17.5755 21.2026 18.7721 22.3183 17.8817C23.3143 17.0885 23.2029 15.4802 23.0666 14.3533C22.9568 13.4655 22.74 12.6037 22.4822 11.7526C22.552 11.9486 22.6224 12.1459 22.6888 12.345C23.2816 14.1171 23.5997 16.0046 23.6145 17.8851C23.635 19.8374 22.9757 21.255 20.9533 20.765C20.0752 20.5505 19.1392 20.2846 18.2714 19.9957C16.3089 19.3335 14.3563 18.4162 13.5039 16.5593C12.6891 14.7789 12.9217 12.4452 13.1229 10.4834C13.0682 9.80923 12.971 9.13874 12.8428 8.47344C12.5065 7.27191 12.0246 5.74174 12.566 4.8986Z" fill="#CC4547"/>
<g opacity="0.5">
<path d="M21.2852 19.3405C21.3023 19.354 21.3159 19.3729 21.3293 19.3864C21.3159 19.3712 21.2987 19.3562 21.2852 19.3405Z" fill="#E14B4F"/>
<path d="M18.2473 11.7411C18.8434 12.1665 19.4002 12.5854 19.9111 13.0175C19.9365 13.0089 19.9739 13.0208 19.9982 13.0531C20.0203 13.0842 20.0388 13.1164 20.0578 13.1467C20.1399 13.2149 20.2134 13.2881 20.2917 13.3612C20.8843 13.542 21.4618 13.7683 21.9725 14.134C22.5435 14.5442 22.8403 15.0939 23.1035 15.715C23.109 15.727 23.0948 15.7255 23.09 15.7186C22.6818 15.0497 22.3211 14.4627 21.5917 14.083C21.2741 13.9195 20.9392 13.7886 20.6079 13.6539C21.8308 14.8522 22.6818 16.2362 22.943 18.2425C22.943 18.2527 22.9279 18.2459 22.9279 18.2377C22.7857 17.5533 22.5759 16.9492 22.316 16.3959C22.3179 16.4964 22.3179 16.6002 22.3179 16.7058C22.3211 17.2878 22.2818 17.9974 22.4358 18.564C22.4409 18.5761 22.4238 18.5726 22.4219 18.564C22.0974 17.781 22.239 16.8771 22.1385 16.0455C21.6656 15.162 21.0505 14.4133 20.3378 13.7067C20.5155 14.2108 20.5447 14.7549 20.5549 15.3185C20.5717 16.2292 20.4695 18.491 21.2844 19.3401C20.7324 18.821 20.5258 17.9922 20.4301 17.0833C20.3362 17.3877 20.2134 17.6791 20.1209 18.0027C19.9621 18.5694 19.9059 19.1599 19.9656 19.7451C19.9656 19.7589 19.9486 19.7522 19.9486 19.7435C19.7538 18.7156 19.9792 17.6807 20.401 16.736C20.3107 15.5515 20.355 14.2804 20.0424 13.4189C20.0252 13.4017 20.0064 13.3882 19.9895 13.3714C19.9519 13.3526 19.9111 13.3354 19.8734 13.3135C19.8544 13.3016 19.8323 13.259 19.8497 13.2423C19.3355 12.7686 18.7905 12.2991 18.2149 11.8074C18.1754 11.7732 18.1925 11.7036 18.2473 11.7411Z" fill="#E14B4F"/>
<path d="M21.7296 19.6589C21.6611 19.6247 21.6049 19.5805 21.5449 19.5396C21.6016 19.5719 21.6611 19.6063 21.7296 19.6246C21.7551 19.6316 21.7551 19.6724 21.7296 19.6589Z" fill="#E14B4F"/>
<path d="M21.4531 19.4833C21.482 19.504 21.5144 19.521 21.5451 19.5396C21.5127 19.5244 21.4819 19.504 21.4531 19.4833Z" fill="#E14B4F"/>
<path d="M21.3281 19.3864C21.3675 19.4219 21.4087 19.4528 21.453 19.4831C21.4087 19.4512 21.3676 19.4208 21.3281 19.3864Z" fill="#E14B4F"/>
<path d="M17.8902 11.469C18.6158 11.6493 19.3624 11.5148 20.085 11.7805C20.8929 12.0782 21.5969 12.4778 22.1741 13.1231C22.1794 13.1284 22.1741 13.1334 22.1692 13.13C21.407 12.4525 20.476 12.0015 19.4786 11.8042C18.9456 11.6987 18.3939 11.7804 17.8902 11.5437C17.8609 11.5298 17.8388 11.4569 17.8902 11.469Z" fill="#E14B4F"/>
<path d="M13.2643 8.2947C13.4811 8.3814 13.7082 8.43048 13.939 8.46151C14.863 8.33026 15.4268 7.47923 16.2587 7.08604C16.9881 6.74571 17.6288 6.6842 18.4093 6.77988C18.4178 6.77988 18.4228 6.79674 18.4161 6.79512C17.6729 6.75425 16.9197 6.90074 16.2619 7.23577C16.337 7.24442 16.4155 7.25826 16.4706 7.2668C16.9657 7.35523 17.415 7.43826 17.9172 7.31761C17.9258 7.31761 17.9361 7.33145 17.9258 7.3348C17.6165 7.4522 17.2955 7.49112 16.9624 7.47923C16.7967 7.47426 16.6496 7.40593 16.4874 7.37891C16.3219 7.35188 16.1697 7.36507 16.0091 7.37372C15.7992 7.50172 15.6025 7.64615 15.4217 7.81642C15.1244 8.10064 14.7844 8.35762 14.412 8.49016C15.5823 8.48529 16.8512 8.01545 17.982 8.13286C19.248 8.26389 20.5477 8.78811 21.2223 9.91481C21.2278 9.92336 21.2157 9.9266 21.2138 9.92011C20.5531 9.03146 19.6628 8.64032 18.6978 8.48691C18.8156 8.572 18.9264 8.66908 19.0464 8.77621C19.282 8.99762 19.5415 9.17946 19.8131 9.35665C20.0285 9.49806 20.2811 9.71568 20.5477 9.74984C20.5531 9.75146 20.5545 9.76184 20.5494 9.76184C20.2266 9.76184 19.8967 9.51514 19.6357 9.35146C19.3963 9.20497 19.1691 9.04011 18.9625 8.85275C18.7746 8.68583 18.5816 8.56702 18.38 8.44605C17.3841 8.3441 16.3268 8.46486 15.3585 8.5601C14.8749 8.60594 14.3437 8.67264 13.8567 8.58043C13.7642 8.57535 13.6707 8.56356 13.5751 8.53967C13.5529 8.53481 13.5393 8.5107 13.5393 8.49383C13.4382 8.45632 13.3409 8.4121 13.2452 8.35405C13.213 8.33362 13.2179 8.27589 13.2643 8.2947Z" fill="#E14B4F"/>
<path d="M12.6287 7.57316C13.1823 7.43716 13.3239 6.8738 13.5477 6.42601C13.7221 6.07693 13.9937 5.81174 14.303 5.58352C14.8341 5.19628 15.6421 5.19822 16.2264 5.43909C16.2452 5.44752 16.2588 5.49671 16.2264 5.48849C15.15 5.2246 14.2738 5.59736 13.6777 6.51953C13.589 6.65737 13.5171 6.79694 13.4436 6.93164C13.6489 6.78353 13.8608 6.77337 14.238 6.80202C15.1826 6.87391 16.0967 6.78018 16.7643 6.03823C16.7696 6.02958 16.7833 6.04342 16.7779 6.05001C16.4892 6.47715 16.0692 6.83304 15.5431 6.92137C15.1961 6.98072 14.8307 7.02169 14.4753 6.98602C13.9478 6.93164 13.6827 6.92472 13.2812 7.20905C13.1395 7.40624 12.9569 7.55467 12.639 7.59532C12.6287 7.59672 12.6152 7.5764 12.6287 7.57316Z" fill="#E14B4F"/>
<path d="M13.5111 13.3477C13.5111 13.353 13.5059 13.3477 13.5059 13.346C13.5656 12.997 13.8545 12.6839 14.1176 12.4647C14.29 12.325 14.4762 12.2075 14.6419 12.0598C14.7151 11.9931 14.7734 11.9046 14.823 11.8077C14.7836 11.1969 14.6095 10.5754 14.1857 9.87947C14.1772 9.86379 14.1962 9.86044 14.2046 9.87255C14.7053 10.555 15.2092 11.4243 15.1595 12.3116C15.1374 12.696 15.0913 13.0329 15.0092 13.3784C15.3761 14.0134 15.2157 14.7845 15.0092 15.4414C15.0073 15.448 14.9938 15.4382 14.9938 15.4312C15.1235 14.7964 15.1627 14.1751 14.9664 13.5607C14.9424 13.6423 14.9219 13.7254 14.8964 13.8142C14.471 15.2012 14.3378 16.1396 14.7867 17.5536C14.8005 17.5944 14.7494 17.5874 14.7356 17.5571C14.283 16.5391 14.2044 15.6457 14.4348 14.5581C14.4878 14.3044 14.5424 14.0627 14.5905 13.8277C14.5155 13.9419 14.4334 14.0561 14.3515 14.1751C13.9004 14.8306 13.644 15.5741 13.721 16.3774C13.721 16.3842 13.7093 16.3793 13.7093 16.3743C13.5791 15.712 13.6612 15.159 13.9688 14.5562C14.1636 14.1684 14.4489 13.8516 14.6625 13.4874C14.7631 12.9905 14.8296 12.5258 14.8296 12.0599C14.449 12.5174 13.6889 12.7331 13.5111 13.3477Z" fill="#E14B4F"/>
<path d="M17.2929 14.8661C16.9612 14.3044 16.6436 13.731 16.4745 13.094C16.4609 13.0399 16.5257 13.0364 16.548 13.077C17.5131 14.9697 19.3732 17.0206 18.1196 19.1859C18.1141 19.1959 18.1006 19.1823 18.1023 19.1738C18.8948 17.5486 18.174 16.3503 17.4311 15.1044C17.4617 15.5147 17.3627 15.9178 17.2842 16.3365C17.1506 17.0427 17.0705 17.7322 17.209 18.4469C17.2107 18.4573 17.1952 18.4537 17.1918 18.4453C17.0707 17.9633 17.0365 17.4922 17.062 16.995C17.0964 16.2853 17.3712 15.5793 17.2929 14.8661Z" fill="#E14B4F"/>
</g>
<path d="M14.4552 4.92225C16.6348 5.71782 18.2831 6.48053 19.9642 8.14292C21.9488 10.1142 22.7263 12.8525 22.67 15.5569C22.67 15.6203 22.5825 15.564 22.5777 15.5264C22.0856 12.8559 21.0794 9.98812 19.1408 8.04605C17.7862 6.68799 16.1155 5.84074 14.4516 4.94279C14.4416 4.9375 14.4384 4.91695 14.4552 4.92225Z" fill="#E14B4F"/>
<path d="M14.6476 16.9306C15.9747 18.7245 21.3796 20.9931 23.1271 19.286C23.1376 19.2745 23.1613 19.2995 23.1529 19.3117C21.4138 22.0418 15.8741 18.9884 14.6014 16.9494C14.5745 16.91 14.6255 16.9002 14.6476 16.9306Z" fill="#E14B4F"/>
<path d="M22.704 16.4951C22.6628 16.0183 22.5653 15.547 22.4236 15.0753C21.6227 13.3426 19.9895 11.9865 18.2282 10.9651C18.0812 10.8424 17.9293 10.7196 17.7757 10.6042C17.3623 10.1616 16.9302 9.73602 16.4708 9.32575C16.4654 9.31915 16.4568 9.31267 16.4502 9.30564C16.9796 9.40099 17.5347 9.39559 18.0731 9.45364C18.3824 9.48759 18.6963 9.53007 19.0055 9.58467C19.1251 9.85354 19.4104 10.0595 19.6291 10.2434C19.9928 10.5548 20.3892 10.8085 20.7735 11.0912C20.7787 11.0944 20.7787 11.0891 20.7751 11.0874C20.227 10.6227 19.5437 10.1875 19.1063 9.60337C19.7554 9.72586 20.3927 9.92132 20.953 10.2773C20.9665 10.2875 20.9805 10.2995 20.994 10.3113C20.8113 10.1344 20.6164 9.9691 20.415 9.8091C18.9187 8.99742 16.9764 8.9651 15.294 8.35385C14.2194 7.49612 13.1364 6.58714 12.7315 5.26637C12.2771 3.79188 12.3456 2.15295 12.3814 0.576939L12.3829 0.575209C12.3829 0.556398 12.3814 0.542884 12.3814 0.529046C12.3456 0.413694 12.3028 0.297477 12.2532 0.18699C12.226 0.158233 12.1952 0.130882 12.1558 0.105584C11.9747 -0.0118219 11.7886 -0.0224166 11.5838 0.0303405C11.4727 0.0594217 11.3483 0.13099 11.2831 0.232828C11.2831 0.219423 11.2797 0.205801 11.2797 0.191963C11.2473 0.263855 11.2218 0.337153 11.2013 0.413694C11.2013 0.446019 11.2013 0.476289 11.2013 0.510668C11.2013 0.519316 11.2029 0.529154 11.2029 0.537695C11.2029 0.58029 11.2029 0.622777 11.2029 0.66375C11.1791 0.79467 11.1737 0.922454 11.2148 1.0311C11.2473 2.4643 11.2628 3.93318 10.8526 5.26637C10.4444 6.58714 9.36314 7.49612 8.28863 8.35385C6.6078 8.9651 4.66547 8.99742 3.17116 9.8091C2.96966 9.969 2.77295 10.1344 2.59023 10.3113C2.60368 10.2995 2.61768 10.2874 2.63124 10.2773C3.18971 9.92132 3.82543 9.72575 4.47787 9.60337C4.04049 10.1874 3.35724 10.6227 2.80539 11.0874C2.80539 11.0892 2.80539 11.0944 2.80897 11.0912C3.19503 10.8085 3.58955 10.5548 3.95672 10.2434C4.17026 10.0595 4.45899 9.85364 4.57682 9.58467C4.88931 9.53007 5.2018 9.4877 5.51093 9.45364C6.04922 9.39559 6.60269 9.40099 7.13556 9.30564C7.12731 9.31256 7.11863 9.31915 7.11006 9.32575C6.65391 9.73602 6.22174 10.1616 5.80834 10.6042C5.65296 10.7196 5.50279 10.8424 5.35414 10.9651C3.59454 11.9864 1.95982 13.3425 1.16026 15.0753C1.01703 15.547 0.92144 16.0183 0.876953 16.4951C1.36359 14.3197 3.04301 12.7385 4.93206 11.382C4.88074 11.4398 4.8228 11.4926 4.77669 11.5572C4.53744 11.8944 4.37685 12.2057 4.28484 12.5377C4.01293 12.963 3.76543 13.402 3.55884 13.86C3.35203 14.4265 3.17615 15.0394 3.0773 15.6574C3.12656 15.5282 3.173 15.4004 3.22747 15.2743C3.47518 14.4457 3.79625 13.6711 4.20986 12.9306C4.19619 13.0599 4.19098 13.1945 4.19261 13.3376C4.17373 13.5622 4.16342 13.7938 4.15691 14.0251C4.1312 14.8574 4.05958 15.6642 3.95358 16.4758C4.0457 16.2071 4.12783 15.933 4.19619 15.6574C4.23037 15.419 4.26118 15.1808 4.27627 14.9392C4.28994 14.7023 4.29352 14.4643 4.29688 14.2261C4.32075 13.9757 4.33974 13.7252 4.36177 13.4754C4.38076 13.2556 4.43002 13.0566 4.48297 12.8524C5.02299 11.4552 6.66433 10.294 8.079 9.5624C7.9591 9.65072 7.84322 9.73927 7.73732 9.82791C7.30667 10.1852 6.9855 10.6463 6.70903 11.1282C5.63777 12.7807 5.45494 14.8302 6.22716 16.6851C6.31451 16.8352 6.41184 16.9746 6.52273 17.1072C6.29563 15.812 6.30431 14.6003 6.58599 13.4631C6.58067 13.78 6.62711 14.1051 6.71912 14.5083C6.8694 15.1585 7.22822 15.8169 7.41799 16.4891C7.40226 16.2168 7.35636 15.9398 7.27585 15.6488C7.22822 15.4751 7.17852 15.3012 7.12764 15.1296C6.81634 14.4588 6.52273 13.6469 6.70914 12.9422C6.79269 12.626 6.93103 12.3449 7.09519 12.0795C7.43166 11.3835 7.88933 10.7182 8.48361 10.0815C9.37887 9.1251 10.6514 8.4851 11.3023 7.39233C11.3211 7.34639 11.3349 7.30011 11.3503 7.25438C11.5141 7.03309 11.644 6.78833 11.7498 6.53438C11.7996 6.65914 11.8541 6.77979 11.9138 6.90054C12.1035 7.26801 12.3564 7.58466 12.6397 7.88088C13.3334 8.69256 14.3512 9.27807 15.0978 10.0815C15.694 10.7183 16.1502 11.3836 16.4883 12.0795C16.6504 12.3449 16.7905 12.6261 16.8742 12.9422C17.0621 13.647 16.7685 14.4588 16.4558 15.1296C16.4065 15.3012 16.3552 15.475 16.3091 15.6488C16.227 15.9397 16.1843 16.2168 16.1637 16.4891C16.3552 15.8169 16.7173 15.1584 16.8661 14.5083C16.9563 14.1051 17.0044 13.78 16.9974 13.4631C17.2824 14.6003 17.2878 15.812 17.0622 17.1072C17.1731 16.9746 17.2707 16.8351 17.356 16.6851C18.1282 14.8302 17.9454 12.7807 16.8779 11.1282C16.5997 10.6463 16.2784 10.1851 15.8497 9.82791C15.7401 9.73927 15.6238 9.65072 15.506 9.5624C16.9205 10.294 18.5638 11.4552 19.0982 12.8524C19.1566 13.0566 19.2043 13.2555 19.223 13.4754C19.2452 13.7253 19.2624 13.9757 19.2861 14.2261C19.2894 14.4643 19.2912 14.7022 19.3084 14.9392C19.3238 15.1807 19.3545 15.419 19.3869 15.6574C19.457 15.9331 19.5355 16.2071 19.6312 16.4758C19.5253 15.6642 19.4555 14.8574 19.4281 14.0251C19.4198 13.7937 19.411 13.5622 19.3922 13.3376C19.3955 13.1945 19.3905 13.06 19.3734 12.9306C19.7901 13.6711 20.1096 14.4457 20.3573 15.2743C20.4119 15.4004 20.4582 15.5282 20.5042 15.6574C20.407 15.0394 20.2327 14.4265 20.0258 13.86C19.8192 13.402 19.5716 12.9629 19.2998 12.5377C19.2078 12.2057 19.0473 11.8944 18.8046 11.5572C18.7586 11.4926 18.7039 11.4398 18.6528 11.382C20.5429 12.7385 22.2205 14.3197 22.704 16.4951Z" fill="#96192E"/>
<path d="M11.3282 0.417315C11.3674 0.218071 11.5451 0.187368 11.7105 0.158611C11.8474 0.134827 12.0424 0.238503 12.1377 0.321963C12.2078 0.386612 12.2334 0.469964 12.2797 0.543262C12.2659 0.728668 12.2539 0.912778 12.2437 1.09602C12.189 1.11527 12.1414 1.15581 12.0816 1.1677C11.9124 1.19505 11.7382 1.18813 11.569 1.16932C11.4529 1.15937 11.3813 1.10802 11.3333 1.04013C11.3247 0.866507 11.3145 0.692992 11.3008 0.520883C11.3145 0.481964 11.3214 0.444342 11.3282 0.417315Z" fill="#ED7C70"/>
<path d="M11.6147 2.9056C11.8319 2.94128 12.0416 2.9175 12.2125 2.79814C12.2163 2.93804 12.223 3.07728 12.2315 3.21371C12.0763 3.31566 11.9497 3.38031 11.7396 3.37339C11.5825 3.3668 11.4375 3.31912 11.3535 3.17955C11.3622 3.03998 11.3689 2.89879 11.3725 2.75598C11.4218 2.83047 11.497 2.88506 11.6147 2.9056Z" fill="#ED7C70"/>
<path d="M11.375 2.03088C11.4998 2.12915 11.6484 2.16018 11.8036 2.18072C11.8686 2.18894 12.0733 2.17013 12.207 2.10548C12.2034 2.29456 12.2034 2.48354 12.207 2.66883C12.207 2.67208 12.2016 2.67424 12.1982 2.67575C12.1059 2.77975 11.9146 2.76581 11.7935 2.77597C11.6092 2.79478 11.4551 2.71132 11.3766 2.55997C11.3766 2.38321 11.3766 2.20775 11.375 2.03088Z" fill="#ED7C70"/>
<path d="M12.2081 1.95234C12.0406 2.06975 11.7984 2.05094 11.6154 1.98477C11.4582 1.93202 11.4071 1.83169 11.3658 1.71428C11.3574 1.54412 11.3523 1.37385 11.3438 1.2052C11.3762 1.22736 11.4156 1.25104 11.4616 1.26996C11.5367 1.30066 12.0321 1.3465 12.2353 1.25439C12.2218 1.48607 12.2151 1.71915 12.2081 1.95234Z" fill="#ED7C70"/>
<path d="M11.3441 3.34106C11.3954 3.43793 11.5234 3.48744 11.6464 3.50463C11.8721 3.54031 12.0835 3.49609 12.2393 3.35296C12.2496 3.49934 12.2615 3.64063 12.2767 3.78377C12.1284 3.91631 11.9832 3.9895 11.7663 3.98291C11.5955 3.9761 11.4023 3.91966 11.3066 3.76982C11.3219 3.62712 11.3339 3.48582 11.3441 3.34106Z" fill="#ED7C70"/>
<path d="M11.2844 3.92322C11.4265 4.21576 12.0515 4.18873 12.2994 3.93176C12.3232 4.11392 12.354 4.29435 12.3882 4.46949C12.3827 4.47446 12.3779 4.4816 12.3742 4.48668C12.2157 4.91382 11.3222 4.90344 11.1973 4.45068C11.2298 4.27554 11.2627 4.1003 11.2844 3.92322Z" fill="#ED7C70"/>
<path d="M11.1736 4.57495C11.2472 4.8303 11.5461 4.89863 11.8175 4.90349C12.0022 4.90717 12.3267 4.78965 12.4104 4.59052C12.4598 4.82003 12.5246 5.04641 12.5948 5.27031C12.5813 5.27528 12.5709 5.28587 12.5625 5.29236C12.419 5.46425 12.0552 5.49658 11.8484 5.50674C11.5838 5.52382 11.1567 5.5035 10.9941 5.25139C11.0627 5.02955 11.1276 4.8049 11.1736 4.57495Z" fill="#ED7C70"/>
<path d="M10.9642 5.33984C11.1025 5.64309 11.5739 5.66514 11.8919 5.65314C12.0441 5.64795 12.5155 5.5713 12.635 5.38601C12.6777 5.51001 12.7323 5.63098 12.7838 5.75682C12.5016 6.06482 12.1892 6.20796 11.7639 6.2165C11.762 6.21455 11.7588 6.2112 11.7588 6.20958C11.7572 6.21131 11.7537 6.2165 11.7537 6.21823C11.7449 6.21823 11.7366 6.21996 11.7297 6.21996C11.4053 6.2232 10.9866 6.01066 10.8262 5.71131C10.8754 5.58666 10.9218 5.46428 10.9642 5.33984Z" fill="#ED7C70"/>
<path d="M11.6231 6.43959C11.5432 6.62164 11.4627 6.80381 11.3687 6.98056C10.2499 9.0316 7.60546 10.0053 6.69664 12.3129C6.25937 13.4296 6.04941 14.7367 6.17766 15.9724C5.82242 14.3298 5.92832 12.6958 6.75132 11.2409C7.21463 10.6452 7.6416 10.0885 8.22914 9.57982C8.26321 9.5488 8.30271 9.52004 8.34003 9.48955C8.34871 9.47085 8.35891 9.45063 8.37584 9.42804C8.43237 9.3568 8.49563 9.2902 8.55683 9.22069C8.55021 9.22404 8.54153 9.23085 8.53306 9.23744C7.70637 9.52339 6.88305 10.1907 6.20294 10.679C5.47358 11.2017 4.647 11.9642 4.41133 12.8678C4.3994 12.8882 4.39082 12.907 4.38377 12.9258C4.41307 12.7589 4.41784 12.4984 4.47253 12.3385C4.79033 11.4314 5.14221 11.4243 5.56397 10.9173C5.60335 10.8922 6.54451 10.0017 7.20075 9.46371C7.2793 9.36339 7.36101 9.25788 7.45703 9.17128C7.4669 9.15928 7.48578 9.14912 7.49935 9.13712C7.41764 9.13896 7.33713 9.1356 7.25174 9.12555C6.09368 9.27679 4.85847 9.29236 3.76367 9.67009C4.28981 9.45896 4.86379 9.30588 5.46501 9.15766C6.08511 9.00598 6.71877 8.94501 7.32867 8.80868C7.34907 8.80014 7.36958 8.79355 7.39008 8.7916C7.56955 8.75074 7.75227 8.70512 7.92631 8.64533C7.91644 8.65355 7.90418 8.66414 7.89061 8.67409C8.04621 8.62663 8.19811 8.56728 8.34861 8.49538C9.0848 7.91679 9.83793 7.35213 10.3828 6.59116C10.5449 6.33418 10.6785 6.0651 10.7927 5.79126C10.844 6.14683 11.3154 6.33407 11.6623 6.3718C11.652 6.39029 11.6435 6.4091 11.6331 6.42791C11.6301 6.43105 11.6286 6.43429 11.6231 6.43959Z" fill="#ED7C70"/>
<path d="M19.1094 12.3386C19.1623 12.4985 19.1706 12.759 19.2015 12.9259C19.1895 12.9071 19.1825 12.8883 19.1744 12.8679C18.935 11.9642 18.1098 11.2018 17.3823 10.679C16.6989 10.1908 15.8773 9.52348 15.0491 9.23753C15.0404 9.23083 15.0354 9.22412 15.0268 9.22077C15.0896 9.29028 15.1495 9.35688 15.2096 9.42812C15.2248 9.45072 15.2368 9.47093 15.2437 9.48964C15.2795 9.52012 15.3204 9.54888 15.3564 9.57991C15.9422 10.0886 16.3692 10.6453 16.8288 11.241C17.6538 12.6959 17.7597 14.3298 17.4027 15.9725C17.5341 14.7368 17.3242 13.4297 16.8832 12.313C15.9782 10.0053 13.3338 9.03158 12.2114 6.98065C12.0751 6.78876 11.9553 6.58616 11.8477 6.37675C12.193 6.36119 12.6676 6.18778 12.818 5.84399C12.9272 6.0974 13.0487 6.34929 13.2005 6.59103C13.7454 7.352 14.4969 7.91676 15.2332 8.49525C15.3818 8.56715 15.5355 8.6265 15.6926 8.67396C15.6789 8.66401 15.6687 8.65352 15.6568 8.6452C15.8309 8.70498 16.0104 8.75061 16.1931 8.79147C16.2116 8.79353 16.2341 8.80001 16.2528 8.80855C16.8647 8.94488 17.4981 9.00574 18.1147 9.15753C18.7194 9.30574 19.2898 9.45883 19.8211 9.66996C18.7211 9.29223 17.4897 9.27666 16.3317 9.12542C16.2478 9.13558 16.1657 9.13882 16.084 9.13699C16.0975 9.14899 16.1146 9.15915 16.1283 9.17115C16.2223 9.25774 16.3025 9.36326 16.3826 9.46358C17.0354 10.0016 17.9767 10.892 18.021 10.9172C18.4414 11.4244 18.7933 11.4315 19.1094 12.3386Z" fill="#ED7C70"/>
<path d="M15.9265 10.4492C14.7053 9.12206 13.26 8.16703 12.3034 6.58929C12.3018 6.58734 12.2949 6.59102 12.2949 6.59437C12.9457 7.84216 13.7826 8.79838 14.8844 9.68336C16.3399 10.8509 17.0759 12.3268 17.4791 14.1272C17.4877 14.1564 17.5289 14.1308 17.5251 14.1067C17.3083 12.7502 16.8694 11.4758 15.9265 10.4492Z" fill="#ED7C70"/>
<path d="M11.1291 5.51207C10.4662 7.03002 9.44303 7.98322 7.95512 8.68582C7.94492 8.69111 7.94329 8.70993 7.95848 8.70495C9.55576 8.15154 10.589 7.10851 11.1409 5.51369C11.141 5.50515 11.1324 5.50677 11.1291 5.51207Z" fill="#ED7C70"/>
<path d="M6.87415 9.94064C6.52552 10.1735 6.18222 10.3676 5.85942 10.6366C5.54704 10.8986 5.28543 11.2238 5.01396 11.5284C5.00365 11.5384 5.01396 11.5572 5.02752 11.547C5.33176 11.3002 5.57579 10.9308 5.90054 10.7232C6.05776 10.6227 6.18222 10.4664 6.32392 10.3522C6.50165 10.211 6.70011 10.0916 6.87935 9.94885C6.88445 9.94388 6.88283 9.93534 6.87415 9.94064Z" fill="#ED7C70"/>
<path d="M6.9696 11.0434C6.24523 12.2224 5.92938 13.397 6.10353 14.7827C6.10689 14.8066 6.13597 14.7844 6.13597 14.7692C6.09865 13.443 6.36318 12.2245 6.98848 11.0503C6.99695 11.0366 6.97655 11.0315 6.9696 11.0434Z" fill="#ED7C70"/>
<path d="M11.54 0.856414C11.5367 0.842793 11.5182 0.856414 11.5182 0.863225C11.441 2.2335 11.4172 3.60335 11.3421 4.96984C11.3388 4.99557 11.3677 4.98022 11.3746 4.96325C11.6135 3.54886 11.6411 2.2895 11.54 0.856414Z" fill="#ED7C70"/>
<path d="M16.5827 9.93691C16.574 9.93215 16.5605 9.94567 16.5693 9.95064C17.2676 10.5344 17.9423 11.1079 18.5677 11.7771C18.5813 11.7922 18.6154 11.7601 18.6053 11.7412C18.0725 10.9665 17.3411 10.4632 16.5827 9.93691Z" fill="#ED7C70"/>
<path d="M12.3911 5.62758C13.0522 7.16629 14.1642 8.29484 15.7631 8.51257C15.5973 8.46305 15.4313 8.41397 15.2711 8.35419C14.1967 7.49645 13.1153 6.58747 12.7089 5.26671C12.2542 3.79221 12.3209 2.15328 12.3585 0.577275L12.3618 0.575545C12.3618 0.556734 12.3585 0.54322 12.3585 0.529383C12.3261 0.41403 12.28 0.297814 12.2304 0.187326C12.203 0.158569 12.1741 0.131218 12.1347 0.105921C12.0611 0.05965 11.9914 0.0343525 11.9178 0.0186768C11.8223 1.88247 11.6378 3.86551 12.3911 5.62758Z" fill="#ED7C70"/>
<path d="M11.7569 5.70776C10.9574 7.49977 9.17392 8.41751 7.9679 9.96779C6.62028 11.7069 5.89081 13.8705 6.36237 15.9332C6.30768 15.0741 6.36769 14.2516 6.5656 13.4634C6.55702 13.7804 6.60336 14.1054 6.69526 14.5086C6.84564 15.1588 7.20447 15.8172 7.39587 16.4895C7.37872 16.2171 7.33586 15.9401 7.25416 15.6491C7.20447 15.4754 7.15488 15.3016 7.10334 15.1299C6.79454 14.4591 6.50049 13.6472 6.68864 12.9425C6.7723 12.6263 6.90879 12.3452 7.07101 12.0798C7.40769 11.3838 7.86883 10.7185 8.4617 10.0818C9.35327 9.12541 10.6275 8.4854 11.2817 7.39264C11.2972 7.34669 11.3108 7.30042 11.3244 7.25469C11.4746 7.05393 11.5909 6.83296 11.6919 6.60453C11.7467 6.30842 11.7808 6.00387 11.7569 5.70776Z" fill="#ED7C70"/>
<path d="M1.9771 11.9818C2.07448 11.9818 2.15342 11.9032 2.15342 11.8062C2.15342 11.7091 2.07448 11.6305 1.9771 11.6305C1.87972 11.6305 1.80078 11.7091 1.80078 11.8062C1.80078 11.9032 1.87972 11.9818 1.9771 11.9818Z" fill="#8BE0EE"/>
<path d="M2.91851 19.225C3.01588 19.225 3.09482 19.1464 3.09482 19.0493C3.09482 18.9523 3.01588 18.8737 2.91851 18.8737C2.82113 18.8737 2.74219 18.9523 2.74219 19.0493C2.74219 19.1464 2.82113 19.225 2.91851 19.225Z" fill="#8BE0EE"/>
<path d="M0.350147 16.8107C0.447525 16.8107 0.526465 16.7321 0.526465 16.635C0.526465 16.538 0.447525 16.4594 0.350147 16.4594C0.252769 16.4594 0.173828 16.538 0.173828 16.635C0.173828 16.7321 0.252769 16.8107 0.350147 16.8107Z" fill="#8BE0EE"/>
<path d="M6.82866 17.8196C6.92604 17.8196 7.00498 17.741 7.00498 17.6439C7.00498 17.5469 6.92604 17.4683 6.82866 17.4683C6.73128 17.4683 6.65234 17.5469 6.65234 17.6439C6.65234 17.741 6.73128 17.8196 6.82866 17.8196Z" fill="#8BE0EE"/>
<path d="M8.45171 17.0269C8.54909 17.0269 8.62803 16.9482 8.62803 16.8512C8.62803 16.7542 8.54909 16.6755 8.45171 16.6755C8.35433 16.6755 8.27539 16.7542 8.27539 16.8512C8.27539 16.9482 8.35433 17.0269 8.45171 17.0269Z" fill="#8BE0EE"/>
<path d="M5.70757 18.3603C5.80495 18.3603 5.88389 18.2816 5.88389 18.1846C5.88389 18.0876 5.80495 18.0089 5.70757 18.0089C5.61019 18.0089 5.53125 18.0876 5.53125 18.1846C5.53125 18.2816 5.61019 18.3603 5.70757 18.3603Z" fill="#8BE0EE"/>
<path d="M0.711475 19.2926C0.808853 19.2926 0.887793 19.214 0.887793 19.117C0.887793 19.0199 0.808853 18.9413 0.711475 18.9413C0.614097 18.9413 0.535156 19.0199 0.535156 19.117C0.535156 19.214 0.614097 19.2926 0.711475 19.2926Z" fill="#8BE0EE"/>
<path d="M1.00054 14.5765C1.09792 14.5765 1.17686 14.4978 1.17686 14.4008C1.17686 14.3038 1.09792 14.2251 1.00054 14.2251C0.903159 14.2251 0.824219 14.3038 0.824219 14.4008C0.824219 14.4978 0.903159 14.5765 1.00054 14.5765Z" fill="#8BE0EE"/>
<path d="M2.33843 19.6575C2.43581 19.6575 2.51475 19.5789 2.51475 19.4818C2.51475 19.3848 2.43581 19.3062 2.33843 19.3062C2.24105 19.3062 2.16211 19.3848 2.16211 19.4818C2.16211 19.5789 2.24105 19.6575 2.33843 19.6575Z" fill="#8BE0EE"/>
<path d="M1.47124 13.7475C1.56862 13.7475 1.64756 13.6688 1.64756 13.5718C1.64756 13.4748 1.56862 13.3961 1.47124 13.3961C1.37386 13.3961 1.29492 13.4748 1.29492 13.5718C1.29492 13.6688 1.37386 13.7475 1.47124 13.7475Z" fill="#8BE0EE"/>
<path d="M0.536886 17.7882C0.536886 17.8488 0.487517 17.898 0.426646 17.898C0.365775 17.898 0.316406 17.8489 0.316406 17.7882C0.316406 17.7275 0.365775 17.6783 0.426646 17.6783C0.487517 17.6783 0.536886 17.7275 0.536886 17.7882Z" fill="#8BE0EE"/>
<path d="M5.08962 18.2584C5.08962 18.319 5.04025 18.3682 4.97938 18.3682C4.91851 18.3682 4.86914 18.319 4.86914 18.2584C4.86914 18.1977 4.91851 18.1486 4.97938 18.1486C5.04025 18.1486 5.08962 18.1977 5.08962 18.2584Z" fill="#8BE0EE"/>
<path d="M3.75173 19.2999C3.75173 19.3607 3.70236 19.4097 3.64149 19.4097C3.58062 19.4097 3.53125 19.3607 3.53125 19.2999C3.53125 19.2393 3.58062 19.1901 3.64149 19.1901C3.70236 19.1902 3.75173 19.2394 3.75173 19.2999Z" fill="#8BE0EE"/>
<path d="M1.10991 17.9999C1.20729 17.9999 1.28623 17.9213 1.28623 17.8242C1.28623 17.7272 1.20729 17.6486 1.10991 17.6486C1.01253 17.6486 0.933594 17.7272 0.933594 17.8242C0.933594 17.9213 1.01253 17.9999 1.10991 17.9999Z" fill="#8BE0EE"/>
<path d="M1.20594 13.1395C1.20594 13.2123 1.1467 13.2713 1.07367 13.2713C1.00065 13.2713 0.941406 13.2123 0.941406 13.1395C0.941406 13.0667 1.00065 13.0077 1.07367 13.0077C1.1468 13.0077 1.20594 13.0667 1.20594 13.1395Z" fill="#8BE0EE"/>
<path d="M2.90516 9.53585C2.90516 9.60861 2.84591 9.66764 2.77289 9.66764C2.69987 9.66764 2.64062 9.60861 2.64062 9.53585C2.64062 9.46309 2.69987 9.40417 2.77289 9.40417C2.84602 9.40417 2.90516 9.46309 2.90516 9.53585Z" fill="#8BE0EE"/>
<path d="M4.82313 18.8208C4.82313 18.8935 4.76388 18.9525 4.69086 18.9525C4.61784 18.9525 4.55859 18.8935 4.55859 18.8208C4.55859 18.748 4.61784 18.6891 4.69086 18.6891C4.76388 18.6891 4.82313 18.748 4.82313 18.8208Z" fill="#8BE0EE"/>
<path d="M0.649735 15.5178C0.649735 15.5634 0.612735 15.6002 0.567055 15.6002C0.521375 15.6002 0.484375 15.5634 0.484375 15.5178C0.484375 15.4724 0.521375 15.4355 0.567055 15.4355C0.612843 15.4355 0.649735 15.4724 0.649735 15.5178Z" fill="#8BE0EE"/>
<path d="M2.3138 11.1214C2.3138 11.1668 2.2768 11.2038 2.23112 11.2038C2.18544 11.2038 2.14844 11.1668 2.14844 11.1214C2.14844 11.0759 2.18544 11.0391 2.23112 11.0391C2.2768 11.0391 2.3138 11.0759 2.3138 11.1214Z" fill="#8BE0EE"/>
<path d="M1.37239 12.0222C1.37239 12.0678 1.33539 12.1046 1.28971 12.1046C1.24403 12.1046 1.20703 12.0678 1.20703 12.0222C1.20703 11.9768 1.24403 11.9399 1.28971 11.9399C1.33539 11.9399 1.37239 11.9768 1.37239 12.0222Z" fill="#8BE0EE"/>
<path d="M7.6302 16.9232C7.6302 16.9687 7.5932 17.0056 7.54752 17.0056C7.50184 17.0056 7.46484 16.9687 7.46484 16.9232C7.46484 16.8778 7.50184 16.8409 7.54752 16.8409C7.59331 16.8409 7.6302 16.8778 7.6302 16.9232Z" fill="#8BE0EE"/>
<path d="M4.12239 18.6168C4.12239 18.6624 4.08539 18.6992 4.03971 18.6992C3.99403 18.6992 3.95703 18.6624 3.95703 18.6168C3.95703 18.5714 3.99403 18.5345 4.03971 18.5345C4.0855 18.5345 4.12239 18.5714 4.12239 18.6168Z" fill="#8BE0EE"/>
<path d="M0.902992 16.7174C0.948655 16.7174 0.985672 16.6805 0.985672 16.635C0.985672 16.5895 0.948655 16.5526 0.902992 16.5526C0.85733 16.5526 0.820312 16.5895 0.820312 16.635C0.820312 16.6805 0.85733 16.7174 0.902992 16.7174Z" fill="#8BE0EE"/>
<path d="M7.81184 17.6903C7.81184 17.7357 7.77484 17.7727 7.72916 17.7727C7.68348 17.7727 7.64648 17.7357 7.64648 17.6903C7.64648 17.6448 7.68348 17.6079 7.72916 17.6079C7.77495 17.6079 7.81184 17.6448 7.81184 17.6903Z" fill="#8BE0EE"/>
<path d="M6.07552 18.6168C6.07552 18.6624 6.03852 18.6992 5.99284 18.6992C5.94716 18.6992 5.91016 18.6624 5.91016 18.6168C5.91016 18.5714 5.94716 18.5345 5.99284 18.5345C6.03862 18.5345 6.07552 18.5714 6.07552 18.6168Z" fill="#8BE0EE"/>
<path d="M1.66145 17.1755C1.66145 17.221 1.62445 17.2579 1.57877 17.2579C1.53309 17.2579 1.49609 17.221 1.49609 17.1755C1.49609 17.1301 1.53309 17.0931 1.57877 17.0931C1.62445 17.0931 1.66145 17.1301 1.66145 17.1755Z" fill="#8BE0EE"/>
<path d="M1.495 16.4548C1.495 16.5276 1.43576 16.5866 1.36273 16.5866C1.28971 16.5866 1.23047 16.5276 1.23047 16.4548C1.23047 16.382 1.28971 16.3231 1.36273 16.3231C1.43587 16.3231 1.495 16.382 1.495 16.4548Z" fill="#8BE0EE"/>
<path d="M2.19422 18.5089C2.19422 18.5816 2.13498 18.6407 2.06195 18.6407C1.98893 18.6407 1.92969 18.5816 1.92969 18.5089C1.92969 18.4361 1.98893 18.3772 2.06195 18.3772C2.13498 18.3772 2.19422 18.4361 2.19422 18.5089Z" fill="#8BE0EE"/>
<path d="M1.63953 19.073C1.63953 19.1458 1.58029 19.2047 1.50727 19.2047C1.43424 19.2047 1.375 19.1458 1.375 19.073C1.375 19.0003 1.43424 18.9413 1.50727 18.9413C1.5804 18.9413 1.63953 19.0003 1.63953 19.073Z" fill="#8BE0EE"/>
<path d="M2.11024 10.7486C2.11024 10.8215 2.05099 10.8804 1.97797 10.8804C1.90495 10.8804 1.8457 10.8215 1.8457 10.7486C1.8457 10.676 1.90495 10.6169 1.97797 10.6169C2.0511 10.6169 2.11024 10.676 2.11024 10.7486Z" fill="#8BE0EE"/>
</svg>
