<svg width="100" height="45" viewBox="0 0 100 45" fill="none" xmlns="http://www.w3.org/2000/svg">
<path d="M92.2415 22.7406C90.7973 22.5166 89.2998 22.3456 87.8814 21.9856C87.9828 22.1767 87.9949 22.3528 88.0053 22.5647C88.0963 24.45 88.0029 26.3779 88.0013 28.2667C88.0005 29.2121 88.1663 32.5529 87.9337 33.2757C87.7542 33.8345 87.2679 34.2573 86.7567 34.5133C86.667 34.5575 86.5758 34.598 86.483 34.6348C86.3896 34.6715 86.2951 34.7044 86.1996 34.7335C86.1041 34.7625 86.0075 34.7876 85.9098 34.8088C85.8121 34.8299 85.7136 34.847 85.6143 34.8601C84.9735 34.9514 84.3037 34.934 83.6564 34.954C81.8917 35.0085 80.1246 34.9871 78.3599 34.9865C77.4913 34.9862 76.2845 34.8981 75.4802 35.2501C75.4223 35.2753 75.4456 35.2658 75.3691 35.2829C77.6805 35.8413 80.0312 36.2461 82.3691 36.6765C85.5845 37.2682 88.8055 37.8879 92.029 38.4246C94.6165 38.8554 97.2305 39.2024 99.8099 39.6768C99.7342 39.2707 93.9176 31.2204 93.681 31.0447C93.801 30.9649 99.7399 24.4654 99.925 24.1967C99.9693 24.1319 99.9814 24.0749 100.001 23.9999C99.0837 23.771 98.071 23.6894 97.1339 23.5425L92.2415 22.7406Z" fill="#EE2728"/>
<path d="M78.3598 34.9866C80.1245 34.9871 81.8916 35.0086 83.6563 34.9541C84.3036 34.9341 84.9734 34.9514 85.6142 34.8602C85.7135 34.8471 85.812 34.83 85.9097 34.8088C86.0074 34.7877 86.104 34.7626 86.1995 34.7335C86.2951 34.7045 86.3895 34.6716 86.4829 34.6348C86.5758 34.598 86.667 34.5575 86.7566 34.5133C87.2678 34.2574 87.7541 33.8346 87.9336 33.2758C88.1663 32.5529 88.0005 29.2121 88.0012 28.2667C88.0028 26.3779 88.0962 24.45 88.0052 22.5647C87.9948 22.3528 87.9827 22.1767 87.8813 21.9857C87.8918 21.9634 87.903 21.9416 87.9119 21.9188C88.0624 21.5499 88.031 18.7901 87.8869 18.4496C87.1028 18.1658 85.1256 17.722 84.2681 17.6263C84.0902 18.0155 84.2062 19.4059 84.2078 19.9054L84.2344 26.3942C84.2392 27.0534 84.3503 28.3587 84.2375 28.9293C84.2231 29.0051 84.1748 29.0568 84.1265 29.1136L84.1088 29.2685C82.7385 30.1176 75.6846 35.0113 74.8965 35.1684L75.369 35.283C75.4455 35.2658 75.4222 35.2754 75.4801 35.2502C76.2844 34.8982 77.4912 34.9863 78.3598 34.9866Z" fill="#BD1717"/>
<path d="M84.125 29.1136H78.013C77.2716 29.1117 75.457 28.9854 74.8242 29.172C75.0512 29.7482 74.9023 34.2105 74.8951 35.1684C75.6832 35.0113 82.7371 30.1175 84.1074 29.2685L84.125 29.1136Z" fill="#8B0E12"/>
<path d="M21.6925 35.2587L16.1365 35.2573C14.9727 35.2536 13.7565 35.3052 12.601 35.1651C12.3956 35.1401 12.1837 35.1118 12.0253 34.969C11.8434 34.3707 11.995 32.2069 11.9958 31.4324C11.9995 28.2934 11.9643 25.1578 12.0173 22.0184L4.86118 23.2387C3.25058 23.5147 1.62428 23.8277 0 24.0079C2.08534 26.2134 4.14275 28.4447 6.17224 30.7017C4.28655 33.7125 2.29064 36.6503 0.383706 39.6466C2.66543 39.1591 4.99936 38.8423 7.29965 38.4454L19.1982 36.3623C21.062 36.04 22.9671 35.8055 24.8127 35.3981C24.2645 35.1363 22.3557 35.2559 21.6925 35.2587Z" fill="#EE2728"/>
<path d="M21.9373 29.1689C23.0021 29.1675 24.1104 29.2347 25.1682 29.1379C24.5525 29.0026 23.1885 29.1098 22.5043 29.111L15.9192 29.1245C15.9264 27.772 16.0279 17.9759 15.8624 17.5314C14.5802 17.874 13.2945 18.2025 12.0053 18.517C12.0069 19.6688 11.9327 20.8731 12.017 22.0184C11.964 25.1577 11.9992 28.2934 11.9956 31.4324C11.9947 32.2068 11.8431 34.3706 12.025 34.9689C12.1835 35.1117 12.3954 35.14 12.6007 35.165C13.7562 35.3052 14.9724 35.2536 16.1362 35.2572L21.6922 35.2586C22.3554 35.2558 24.2643 35.1363 24.8124 35.3979C24.8939 35.3901 24.9748 35.3835 25.0519 35.3539C25.187 35.3022 25.1763 35.2838 25.2289 35.155C24.6846 35.0723 17.1115 30.0068 15.8675 29.1794L21.9373 29.1689Z" fill="#BD1717"/>
<path d="M25.1679 29.1378C24.11 29.2347 23.0018 29.1675 21.9369 29.1689L15.8672 29.1793C17.1112 30.0068 24.6843 35.0723 25.2287 35.1549C25.1521 34.0989 25.2054 33.0018 25.2002 31.9409C25.0609 31.4728 25.1647 29.7212 25.1679 29.1378Z" fill="#8B0E12"/>
<path d="M34.3913 11.2441L38.746 11.2738C39.2947 11.2739 39.9485 11.3464 40.4843 11.249C39.87 11.1739 39.1943 11.2537 38.5692 11.2203C39.7584 10.706 41.1445 10.4479 42.3876 10.0692C43.9882 9.58149 45.5773 9.07056 47.185 8.6034C47.9116 8.39228 48.675 8.1151 49.4248 8.01708C50.1828 7.91804 50.9791 7.96136 51.7443 7.95701L55.7909 7.93778L70.075 7.92142C70.0765 8.42884 70.05 8.95228 70.1289 9.45452L70.1378 0.000972711C67.7386 0.945478 65.3269 1.85672 62.9026 2.73471L55.3641 5.58024C53.5858 6.24775 51.7516 6.85289 50.0042 7.59088C46.3099 6.14104 42.5693 4.80295 38.8626 3.38407C36.8537 2.60589 34.841 1.83768 32.8245 1.07957C31.8993 0.725606 30.988 0.326469 30.0531 1.52588e-05L30.0584 7.54813C30.0557 8.77788 30.1105 10.0421 30.0371 11.2674C31.4753 11.3493 32.9471 11.2347 34.3913 11.2441Z" fill="#EE2728"/>
<path d="M70.0742 7.92146L55.7901 7.93782L51.7435 7.95705C50.9783 7.9614 50.182 7.91808 49.424 8.01712C48.6742 8.11514 47.9108 8.39232 47.1842 8.60344C45.5765 9.0706 43.9874 9.58156 42.3868 10.0692C41.1438 10.4479 39.7576 10.706 38.5684 11.2203C39.1935 11.2537 39.8692 11.1739 40.4835 11.249C46.8349 11.1793 53.193 11.2238 59.5451 11.232C63.063 11.2365 66.6178 11.1152 70.1313 11.2468C70.1372 10.6494 70.1361 10.052 70.1281 9.45456C70.0492 8.95236 70.0758 8.42891 70.0742 7.92146Z" fill="#BD1717"/>
<path d="M70.1226 31.0381C68.9351 31.0622 67.7475 31.075 66.5597 31.0765C65.8776 31.0802 65.1803 31.1145 64.5004 31.0619L64.3038 31.1049C63.4603 31.4894 62.5698 31.7898 61.7012 32.114C60.1182 32.7075 58.5303 33.2877 56.9375 33.8547C55.9648 34.2052 54.8919 34.7466 53.8779 34.9313C53.163 35.0615 52.3218 34.9473 51.5922 34.931C50.2748 34.9029 48.9574 34.886 47.6398 34.8804L36.4903 34.8707C34.3462 34.8767 32.179 34.968 30.0372 34.8882L30.0312 44.0622C31.8072 43.3065 33.6701 42.6716 35.4745 41.9779L41.7776 39.5284C44.5584 38.4978 47.3303 37.4437 50.0933 36.3662C52.2082 37.3112 54.4444 38.0357 56.5989 38.8915L70.1862 44.3603C70.1314 39.3222 70.2755 34.2779 70.1813 29.2419C70.0123 29.7215 70.1194 30.522 70.1226 31.0381Z" fill="#EE2728"/>
<path d="M69.6605 29.1226C69.2443 29.3471 68.7572 29.49 68.3142 29.6557C67.4573 29.9798 66.5975 30.2956 65.7346 30.603C65.3294 30.7459 64.8836 30.867 64.502 31.0619C65.1819 31.1145 65.8792 31.0802 66.5613 31.0765C67.749 31.075 68.9366 31.0622 70.1242 31.0381C70.1209 30.522 70.0139 29.7215 70.1829 29.2419L70.2039 29.1524C70.0187 29.0932 69.8512 29.1113 69.6605 29.1226Z" fill="#BD1717"/>
<path d="M36.4902 34.8707L47.6397 34.8804C48.9573 34.886 50.2748 34.9029 51.5921 34.931C52.3217 34.9473 53.163 35.0615 53.8778 34.9313C54.8918 34.7466 55.9648 34.2052 56.9375 33.8547C58.5302 33.2877 60.1181 32.7075 61.7012 32.114C62.5697 31.7898 63.4602 31.4894 64.3038 31.1049C60.433 31.0184 56.5559 31.0907 52.684 31.0815C49.8534 31.0675 47.0228 31.0597 44.1922 31.0579C39.4746 31.0551 34.7569 31.0694 30.0392 31.1007L30.0371 34.8882C32.179 34.968 34.3462 34.8767 36.4902 34.8707Z" fill="#BD1717"/>
<path d="M78.0146 29.1136H84.1266C84.1749 29.0568 84.2232 29.0051 84.2377 28.9293C84.3504 28.3587 84.2393 27.0535 84.2345 26.3942L84.2079 19.9054C84.2063 19.4059 84.0904 18.0156 84.2683 17.6263C84.1798 17.4195 84.2015 17.1219 84.1967 16.8978C84.1677 15.6193 84.4881 13.9534 83.799 12.8254C83.4383 12.2349 82.8538 11.6736 82.1881 11.4492C81.2349 11.1279 78.5782 11.2957 77.4116 11.2968L72.2456 11.2879C71.6965 11.2866 70.6725 11.3936 70.2023 11.2671C70.179 11.2608 70.1556 11.2535 70.1323 11.2468C66.6188 11.1152 63.064 11.2365 59.5461 11.232C53.194 11.2238 46.8359 11.1792 40.4845 11.249C39.9487 11.3465 39.2949 11.2739 38.7462 11.2739L34.3915 11.2441C32.9473 11.2347 31.4754 11.3494 30.0372 11.2675C27.3535 11.2383 24.6697 11.2284 21.9857 11.2376C21.0289 11.2372 19.4316 11.1179 18.5607 11.2758C17.947 11.387 17.34 11.6713 16.8878 12.1046C16.1549 12.8069 15.9657 13.6972 15.9548 14.6755C15.9492 15.1799 16.0894 17.2182 15.8633 17.5315C16.0288 17.9759 15.9273 27.772 15.9201 29.1245L22.5053 29.1111C23.1894 29.1098 24.5534 29.0026 25.1691 29.1379C25.166 29.7213 25.0621 31.4728 25.2014 31.941C25.2781 31.0247 25.2073 30.0417 25.2058 29.1185L30.0455 29.135L69.6605 29.1227C69.8513 29.1114 70.0187 29.0933 70.2039 29.1525C70.5469 29.0639 74.5858 29.0402 74.7839 29.1422C74.7992 29.1501 74.812 29.1621 74.8258 29.1721C75.4586 28.9855 77.2732 29.1118 78.0146 29.1136ZM24.9655 20.7149C25.1056 21.3766 25.2112 22.0445 25.321 22.7117C24.789 22.4549 24.3139 22.0781 23.798 21.7869C23.2184 21.9904 22.6421 22.3892 22.0778 22.6572C22.1867 22.044 22.2349 21.4196 22.3451 20.8047C21.9261 20.3247 21.4415 19.8862 21.004 19.4197C21.619 19.3819 22.2426 19.2976 22.8481 19.1843C23.1629 18.6955 23.4128 18.1346 23.679 17.6173C24.0705 18.0644 24.3098 18.7445 24.5383 19.2869C25.1346 19.3363 25.7306 19.389 26.3263 19.4449C25.8963 19.8978 25.4379 20.3069 24.9655 20.7149ZM35.6913 24.4781C35.2514 25.0376 34.5989 25.1574 33.9308 25.2335C33.229 25.2012 32.5138 25.0954 32.0005 24.5663C31.3758 23.9223 31.3803 22.9748 31.387 22.1362L33.0057 22.139C33.002 22.4266 32.9847 22.7275 33.013 23.0137C33.039 23.2767 33.1508 23.6348 33.3705 23.798C33.4974 23.8922 33.6419 23.9211 33.7958 23.8881C34.0304 23.8379 34.2185 23.6692 34.3334 23.4634C35.1016 22.0864 32.9902 20.8093 32.2352 19.9367C31.886 19.5331 31.614 19.073 31.482 18.5529C31.3202 17.9156 31.3566 17.0204 31.7083 16.4476C32.0454 15.8984 32.6043 15.7295 33.198 15.5957C33.3964 15.5833 33.5964 15.5703 33.7953 15.5704C34.3655 15.5706 34.9592 15.7536 35.3678 16.164C35.9553 16.754 35.9768 17.5375 35.9698 18.3152C35.4312 18.3527 34.8864 18.348 34.3465 18.3563C34.3457 18.117 34.3802 17.7992 34.3221 17.5693C34.2653 17.3444 34.0578 16.9947 33.8503 16.8832C33.7351 16.8214 33.6187 16.8152 33.4988 16.8672C33.2086 16.9928 33.076 17.3711 32.9908 17.6467C33.3228 19.6634 35.8945 20.2437 36.1719 22.3475C36.2626 23.035 36.1297 23.9204 35.6913 24.4781ZM42.1089 20.0236C41.7853 21.1475 40.8311 21.6264 39.719 21.6656C39.4926 21.6736 39.1686 21.5959 38.9692 21.7061L38.9488 21.8498C38.9589 22.9413 38.9592 24.0328 38.9496 25.1243L37.2478 25.1278C37.2112 21.988 37.2248 18.844 37.2362 15.7041C38.3315 15.6975 39.6069 15.565 40.6631 15.8511C41.2006 15.9967 41.5684 16.2617 41.842 16.7535C42.302 17.5799 42.3705 19.1155 42.1089 20.0236ZM45.0673 19.5799L46.9514 19.5683C46.9556 20.0477 46.948 20.5278 46.9459 21.0072L45.022 21.0104L45.0206 23.3296C45.0178 23.427 45.0351 23.4979 45.0598 23.5909C45.4834 23.8142 46.9908 23.6812 47.5126 23.6796C47.523 24.1534 47.5114 24.6283 47.507 25.1021C46.1114 25.1223 44.7122 25.096 43.3164 25.0911L43.316 18.8082C43.3184 17.8033 43.2449 16.7271 43.3557 15.7301C44.7441 15.7491 46.1325 15.7501 47.5208 15.7332L47.5123 17.2632C46.6852 17.2682 45.8582 17.2617 45.0313 17.2434L45.0673 19.5799ZM53.456 18.9C52.9194 18.9218 52.3827 18.9401 51.8458 18.955C51.8477 18.4891 51.9297 17.8097 51.7172 17.3863C51.633 17.2186 51.4889 17.0967 51.3064 17.0502C51.0631 16.9882 50.7512 17.0023 50.5382 17.1469C50.3219 17.2936 50.2279 17.5465 50.1874 17.7945C50.0856 18.4176 50.1819 19.1682 50.1834 19.804C50.1859 20.8509 50.0885 21.9761 50.2037 23.0144C50.2257 23.2132 50.2639 23.4117 50.3913 23.5719C50.5414 23.7606 50.7516 23.8505 50.9883 23.8703C51.2037 23.8884 51.4172 23.8388 51.5752 23.6847C52.0045 23.2656 51.8643 22.2459 51.8562 21.7076C52.3364 21.6251 52.9308 21.6846 53.4239 21.6803C53.4386 22.5873 53.5233 23.6072 52.9736 24.3901C52.6013 24.9201 52.0785 25.107 51.4607 25.2074C50.7447 25.3237 49.9399 25.2683 49.3377 24.8256C48.8226 24.4468 48.5722 23.8815 48.4884 23.2612C48.3947 22.568 48.3964 18.1903 48.5069 17.5266C48.5706 17.1438 48.7129 16.7368 48.9545 16.4288C49.3999 15.861 50.1223 15.6844 50.8025 15.6049C50.86 15.6007 50.9146 15.5979 50.9724 15.5986C51.6662 15.6076 52.3544 15.7631 52.8414 16.289C53.5151 17.0165 53.4839 17.9768 53.456 18.9ZM56.4928 25.1023L54.7306 25.1058C54.679 21.9845 54.674 18.834 54.7322 15.7126L56.4525 15.706C56.4879 18.838 56.5013 21.9701 56.4928 25.1023ZM61.3582 25.1145C61.2312 24.5433 61.1312 23.9635 61.0193 23.3891C61.0146 23.2875 61.0025 23.2714 60.9461 23.1853C60.5015 23.0605 59.8498 23.1587 59.3801 23.174C59.2742 23.822 59.1881 24.4725 59.1218 25.1257L57.4195 25.119C57.5679 24.0821 57.7848 23.0497 57.958 22.0158C58.3103 19.9115 58.6536 17.7929 59.1347 15.7138L61.2852 15.7081C61.5801 17.522 61.9813 19.3318 62.3369 21.1352C62.5969 22.4535 62.8059 23.7814 63.0688 25.1003C62.5005 25.1225 61.9272 25.1109 61.3582 25.1145ZM63.9211 25.1241L63.929 15.7097L65.6895 15.7095L65.6773 23.6718L68.1373 23.6658L68.1599 25.1217L63.9211 25.1241ZM74.5569 22.628C74.573 22.6065 74.5996 22.5725 74.6125 22.5466C74.7606 22.2417 74.9241 21.061 74.8379 20.7419C74.7783 20.4998 73.619 19.5791 73.3598 19.4215C74.0151 19.3921 74.6962 19.3752 75.3419 19.2531C75.6848 18.9734 75.998 18.0359 76.1654 17.6063C76.2693 17.6574 76.283 17.6718 76.3458 17.772C76.5591 18.1115 77.072 18.922 76.9834 19.3152C77.584 19.3051 78.195 19.3724 78.7899 19.449C78.7883 19.4615 78.7891 19.4743 78.7859 19.4865C78.728 19.7126 77.6709 20.6548 77.4375 20.809C77.4439 20.8191 77.4504 20.8291 77.4567 20.839C77.4986 20.9014 77.5373 20.9635 77.5662 21.033C77.7087 21.3727 77.8802 22.2042 77.7401 22.5592C77.7104 22.5196 77.6846 22.4958 77.6419 22.4698C77.394 22.3171 76.5132 21.7405 76.2685 21.7093C76.2266 21.7039 76.1228 21.7415 76.076 21.7518C75.8587 22.0875 74.9353 22.4753 74.5569 22.628Z" fill="#EE2728"/>
<path d="M76.268 21.7093C76.5128 21.7405 77.3935 22.3171 77.6415 22.4698C77.6841 22.4959 77.7099 22.5196 77.7397 22.5592C77.8798 22.2042 77.7083 21.3727 77.5658 21.033C77.5368 20.9635 77.4982 20.9015 77.4563 20.8391C77.4499 20.8292 77.4434 20.8191 77.437 20.809C77.6705 20.6549 78.7275 19.7126 78.7855 19.4865C78.7887 19.4743 78.7879 19.4615 78.7895 19.449C78.1946 19.3724 77.5835 19.3052 76.983 19.3152C77.0715 18.9221 76.5587 18.1115 76.3454 17.772C76.2826 17.6718 76.2689 17.6574 76.165 17.6064C75.9976 18.0359 75.6844 18.9734 75.3414 19.2532C74.6958 19.3752 74.0147 19.3921 73.3594 19.4215C73.6186 19.5792 74.7779 20.4999 74.8375 20.742C74.9236 21.061 74.7602 22.2417 74.6121 22.5466C74.5992 22.5725 74.5726 22.6066 74.5565 22.628C74.9349 22.4754 75.8583 22.0876 76.0756 21.7518C76.1223 21.7416 76.2262 21.7039 76.268 21.7093Z" fill="#F7F6F4"/>
<path d="M23.679 17.6173C23.4127 18.1346 23.1628 18.6955 22.848 19.1843C22.2425 19.2975 21.619 19.3818 21.0039 19.4197C21.4414 19.8862 21.9259 20.3247 22.345 20.8047C22.2349 21.4196 22.1867 22.044 22.0777 22.6572C22.642 22.3892 23.2183 21.9904 23.798 21.7869C24.3138 22.0781 24.789 22.4548 25.3209 22.7117C25.2112 22.0445 25.1055 21.3766 24.9654 20.7149C25.4378 20.3069 25.8962 19.8978 26.3261 19.4449C25.7305 19.389 25.1345 19.3363 24.5382 19.2869C24.3098 18.7445 24.0705 18.0644 23.679 17.6173Z" fill="#F7F6F4"/>
<path d="M54.7315 15.7125C54.6732 18.8339 54.6782 21.9844 54.7299 25.1058L56.492 25.1023C56.5005 21.9701 56.4871 18.838 56.4518 15.706L54.7315 15.7125Z" fill="#F7F6F4"/>
<path d="M65.6762 23.6717L65.6883 15.7094L63.9279 15.7097L63.9199 25.1241L68.1587 25.1217L68.1362 23.6657L65.6762 23.6717Z" fill="#F7F6F4"/>
<path d="M47.511 17.2632L47.5195 15.7332C46.1311 15.7501 44.7427 15.749 43.3544 15.7301C43.2435 16.7271 43.3171 17.8033 43.3147 18.8082L43.315 25.091C44.7109 25.096 46.1101 25.1222 47.5057 25.1021C47.5101 24.6283 47.5217 24.1533 47.5113 23.6796C46.9894 23.6812 45.482 23.8142 45.0584 23.5908C45.0337 23.4979 45.0165 23.427 45.0192 23.3296L45.0207 21.0104L46.9445 21.0072C46.9466 20.5278 46.9543 20.0476 46.9501 19.5683L45.066 19.5798L45.0299 17.2435C45.8568 17.2616 46.6839 17.2682 47.511 17.2632Z" fill="#F7F6F4"/>
<path d="M32.9899 17.6467C33.0751 17.3711 33.2076 16.9928 33.4979 16.8671C33.6178 16.8152 33.7342 16.8214 33.8494 16.8832C34.0569 16.9946 34.2644 17.3444 34.3212 17.5693C34.3793 17.7991 34.3448 18.1169 34.3456 18.3562C34.8855 18.3479 35.4303 18.3527 35.9689 18.3152C35.9759 17.5375 35.9544 16.754 35.3669 16.164C34.9583 15.7536 34.3646 15.5705 33.7944 15.5704C33.5955 15.5703 33.3955 15.5834 33.1971 15.5957C32.6034 15.7295 32.0445 15.8984 31.7074 16.4475C31.3557 17.0204 31.3194 17.9156 31.4811 18.5528C31.6131 19.073 31.8851 19.533 32.2343 19.9367C32.9893 20.8093 35.1007 22.0864 34.3325 23.4634C34.2176 23.6692 34.0296 23.8379 33.7949 23.8881C33.641 23.921 33.4965 23.8922 33.3696 23.798C33.1499 23.6348 33.0381 23.2767 33.0121 23.0137C32.9838 22.7275 33.0011 22.4266 33.0048 22.139L31.3861 22.1361C31.3794 22.9748 31.3749 23.9222 31.9996 24.5663C32.5129 25.0953 33.228 25.2012 33.9299 25.2334C34.598 25.1574 35.2505 25.0375 35.6904 24.478C36.1288 23.9204 36.2617 23.035 36.171 22.3475C35.8936 20.2436 33.3219 19.6633 32.9899 17.6467Z" fill="#F7F6F4"/>
<path d="M50.9714 15.5986C50.9137 15.5978 50.859 15.6007 50.8016 15.6048C50.1214 15.6843 49.399 15.861 48.9535 16.4288C48.7119 16.7368 48.5697 17.1438 48.5059 17.5265C48.3955 18.1903 48.3937 22.568 48.4874 23.2612C48.5713 23.8815 48.8217 24.4468 49.3368 24.8256C49.9389 25.2683 50.7438 25.3237 51.4598 25.2073C52.0776 25.107 52.6004 24.9201 52.9727 24.3901C53.5223 23.6072 53.4377 22.5873 53.423 21.6803C52.9299 21.6845 52.3355 21.625 51.8553 21.7076C51.8634 22.2459 52.0036 23.2655 51.5743 23.6846C51.4163 23.8388 51.2028 23.8884 50.9874 23.8703C50.7507 23.8505 50.5404 23.7606 50.3904 23.5719C50.263 23.4117 50.2248 23.2131 50.2027 23.0143C50.0876 21.9761 50.185 20.8509 50.1825 19.8039C50.1809 19.1682 50.0846 18.4175 50.1865 17.7945C50.227 17.5464 50.3209 17.2935 50.5373 17.1468C50.7503 17.0022 51.0621 16.9882 51.3054 17.0501C51.488 17.0967 51.6321 17.2186 51.7163 17.3863C51.9288 17.8097 51.8467 18.489 51.8449 18.9549C52.3818 18.9401 52.9185 18.9217 53.4551 18.9C53.483 17.9768 53.5142 17.0164 52.8404 16.2889C52.3535 15.7631 51.6653 15.6076 50.9714 15.5986Z" fill="#F7F6F4"/>
<path d="M61.2837 15.7081L59.1332 15.7138C58.6522 17.7929 58.3088 19.9116 57.9565 22.0158C57.7833 23.0497 57.5664 24.0822 57.418 25.1191L59.1203 25.1257C59.1866 24.4725 59.2727 23.822 59.3786 23.174C59.8484 23.1587 60.5 23.0605 60.9446 23.1853C61.001 23.2714 61.0131 23.2875 61.0178 23.3891C61.1297 23.9635 61.2297 24.5433 61.3568 25.1145C61.9257 25.111 62.4991 25.1225 63.0673 25.1003C62.8044 23.7815 62.5954 22.4535 62.3354 21.1352C61.9798 19.3318 61.5786 17.522 61.2837 15.7081ZM60.3741 21.828L59.5667 21.8347C59.7902 20.4568 59.892 19.0555 60.1584 17.6847C60.325 18.0851 60.7414 21.1821 60.7773 21.7318C60.6554 21.8491 60.5366 21.8209 60.3741 21.828Z" fill="#F7F6F4"/>
<path d="M59.5684 21.8346L60.3757 21.828C60.5383 21.8209 60.6571 21.8491 60.7789 21.7318C60.7431 21.182 60.3266 18.0851 60.1601 17.6846C59.8937 19.0555 59.7919 20.4567 59.5684 21.8346Z" fill="#EE2728"/>
<path d="M40.6618 15.8511C39.6055 15.565 38.3302 15.6975 37.2349 15.704C37.2235 18.844 37.2099 21.988 37.2465 25.1278L38.9483 25.1242C38.9578 24.0328 38.9576 22.9413 38.9475 21.8498L38.9678 21.7061C39.1673 21.5959 39.4912 21.6736 39.7177 21.6656C40.8298 21.6264 41.7839 21.1475 42.1076 20.0236C42.3692 19.1154 42.3006 17.5799 41.8407 16.7535C41.5671 16.2617 41.1992 15.9967 40.6618 15.8511ZM40.2493 20.0836C39.8621 20.307 39.382 20.2577 38.9496 20.2586C38.966 19.2338 38.9461 18.2079 38.9853 17.1837C39.3542 17.1699 39.9298 17.0937 40.2424 17.3164C40.3976 17.4271 40.4568 17.6719 40.4861 17.8505C40.5843 18.4478 40.6032 19.5814 40.2493 20.0836Z" fill="#F7F6F4"/>
<path d="M40.2421 17.3164C39.9294 17.0938 39.3538 17.1699 38.9849 17.1838C38.9458 18.2079 38.9656 19.2339 38.9492 20.2586C39.3816 20.2577 39.8617 20.307 40.249 20.0836C40.6028 19.5814 40.5839 18.4478 40.4857 17.8505C40.4564 17.6719 40.3973 17.4271 40.2421 17.3164Z" fill="#EE2728"/>
<path d="M44.194 31.058C47.0246 31.0597 49.8552 31.0676 52.6858 31.0816C56.5577 31.0907 60.4348 31.0185 64.3056 31.1049L64.5021 31.062C64.8837 30.867 65.3296 30.7459 65.7348 30.603C66.5977 30.2956 67.4575 29.9798 68.3143 29.6557C68.7573 29.49 69.2444 29.3471 69.6606 29.1226L30.0457 29.135L30.041 31.1007C34.7587 31.0694 39.4764 31.0551 44.194 31.058Z" fill="#8B0E12"/>
</svg>
