<svg width="20" height="20" viewBox="0 0 20 20" fill="none" xmlns="http://www.w3.org/2000/svg">
<path d="M1.87465 0.702875C1.40981 0.816156 1.04262 1.12475 0.827775 1.57788C0.7184 1.81225 0.706682 1.87866 0.706682 2.19116C0.706682 2.51538 0.769182 2.77709 1.49184 5.65991C1.92543 7.37475 2.28481 8.78881 2.29653 8.79663C2.31606 8.81616 3.77309 8.95678 8.85903 9.42163C9.99184 9.52709 10.9176 9.62084 10.9176 9.63256C10.9176 9.64428 9.99184 9.73803 8.85903 9.8435C3.77309 10.3083 2.31606 10.449 2.29653 10.4685C2.25746 10.5037 0.726213 16.6833 0.698869 16.9021C0.609025 17.6951 1.17153 18.4333 1.98403 18.5818C2.51137 18.6794 2.01528 18.906 10.3747 14.7263C16.2223 11.8044 18.0309 10.8826 18.1598 10.7654C18.3786 10.5623 18.5543 10.2263 18.6168 9.89428C18.7067 9.40209 18.5231 8.83178 18.1598 8.49975C17.9411 8.29663 2.88637 0.761469 2.56606 0.691156C2.31215 0.636469 2.12856 0.640375 1.87465 0.702875Z" fill="#E26C39"/>
</svg>
