<svg width="26" height="26" viewBox="0 0 26 26" fill="none" xmlns="http://www.w3.org/2000/svg">
<g clip-path="url(#clip0_20_2705)">
<path d="M19.2894 13.3008H18.6272V12.6386C18.6272 12.2811 18.3387 11.9927 17.9812 11.9927C17.6237 11.9927 17.3394 12.2811 17.3394 12.6386V13.3008H16.6772C16.3197 13.3008 16.0312 13.5892 16.0312 13.9467C16.0312 14.3042 16.3197 14.5886 16.6772 14.5886H17.3394V15.2508C17.3394 15.6042 17.6278 15.8927 17.9812 15.8927C18.3347 15.8927 18.6272 15.6042 18.6272 15.2508V14.5886H19.2894C19.6469 14.5886 19.9353 14.3002 19.9353 13.9467C19.9353 13.5933 19.6469 13.3008 19.2894 13.3008Z" fill="#026672"/>
<path d="M17.9839 10.9363C16.3264 10.9363 14.9736 12.2851 14.9736 13.9426V14.0319C14.5877 13.9182 14.2708 13.8369 14.1205 13.7963L14.0677 13.7841L13.312 13.2438C13.312 13.2438 13.2308 13.1829 13.1455 13.0448C13.0602 12.9066 12.9667 12.6873 12.9423 12.3704C13.2511 11.9723 13.4623 11.4604 13.568 10.8348H13.5802C13.702 10.8551 13.8361 10.7779 13.9742 10.6113C14.2627 10.2538 14.5958 9.42101 14.4495 9.04726C14.3764 8.86039 14.2627 8.73851 14.1123 8.69789C14.0677 8.68164 14.0189 8.68164 13.9742 8.68164C14.1448 8.10882 14.4373 6.67476 13.3973 5.9232C12.5645 5.32195 11.232 5.09039 10.2977 5.38695C9.88328 5.51695 9.59891 5.73632 9.46484 6.02882C9.23328 6.04101 8.70922 6.18726 8.48578 7.19476C8.35578 7.77164 8.44516 8.2632 8.55891 8.68976C8.42891 8.71007 8.27453 8.79539 8.17297 9.05132C8.02672 9.41289 8.35172 10.201 8.63203 10.5585C8.78234 10.7494 8.92453 10.8348 9.05859 10.8144C9.06266 10.8144 9.07078 10.8144 9.07891 10.8104C9.20891 11.4726 9.46484 12.0048 9.82234 12.411C9.76547 13.0001 9.47297 13.2276 9.45672 13.2398L8.70516 13.7801C7.77484 14.0157 5.64203 14.6169 5.47953 15.0923C5.00422 16.5141 4.99609 20.4385 4.99609 20.6051C4.99609 20.6782 5.05703 20.7351 5.12609 20.7351H17.6345C17.7077 20.7351 17.7645 20.6741 17.7645 20.6051C17.7645 20.5848 17.7645 18.5941 17.602 16.9285C17.7239 16.9448 17.8498 16.9529 17.9717 16.9529C19.6333 16.9529 20.9861 15.6001 20.9861 13.9385C20.9861 12.2769 19.6333 10.9323 17.9717 10.9323L17.9839 10.9363ZM10.7852 16.8798C10.7852 16.8798 10.7811 16.9082 10.773 16.9244C10.7608 16.9894 10.7486 17.0544 10.7323 17.1235C10.7323 17.1438 10.7242 17.1641 10.7202 17.1844C10.6877 17.351 10.6511 17.5338 10.6267 17.7166C10.6227 17.741 10.6186 17.7654 10.6145 17.7898C10.6023 17.8629 10.5942 17.936 10.5861 18.0091C10.5861 18.0254 10.582 18.0416 10.578 18.0538C10.5333 17.8873 10.4845 17.7207 10.4358 17.5501C10.4236 17.5013 10.4114 17.4526 10.3992 17.4038C10.3545 17.2454 10.3139 17.0829 10.2773 16.9163C10.2611 16.8635 10.2489 16.8107 10.2367 16.7579C10.192 16.5669 10.1473 16.3719 10.1027 16.1769L10.6145 15.7504L10.9517 16.181C10.9436 16.2135 10.9355 16.2501 10.9192 16.2907V16.3029C10.907 16.3435 10.8989 16.3882 10.8867 16.4369C10.8867 16.4491 10.8827 16.4613 10.8745 16.4735C10.8623 16.5263 10.8502 16.5791 10.8339 16.6401C10.8339 16.6482 10.8298 16.6563 10.8258 16.6644C10.8095 16.7335 10.7933 16.8026 10.777 16.8798H10.7852ZM10.8258 15.5838L11.1955 15.2548L11.3945 15.0801L11.9633 15.5838L11.6139 16.0266H11.167L10.8258 15.5838ZM12.1623 15.7544L12.6742 16.181C12.6295 16.3841 12.5848 16.5832 12.5361 16.7782C12.5239 16.8229 12.5117 16.8676 12.5036 16.9082C12.4589 17.0829 12.4142 17.2576 12.3736 17.4282C12.3614 17.4688 12.3533 17.5094 12.3411 17.5501C12.2923 17.7248 12.2477 17.8954 12.1948 18.0619C12.1948 18.0498 12.1948 18.0376 12.1908 18.0213C12.1827 17.9482 12.1745 17.871 12.1623 17.7938C12.1583 17.7694 12.1542 17.7451 12.1502 17.7207C12.1217 17.5379 12.0892 17.3591 12.0567 17.1926C12.0527 17.1682 12.0445 17.1479 12.0445 17.1194C12.0323 17.0585 12.0202 16.9976 12.0039 16.9366C11.9998 16.9204 11.9917 16.9001 11.9917 16.8798C11.9755 16.8066 11.9592 16.7376 11.943 16.6726C11.943 16.6563 11.9389 16.6441 11.9348 16.6319C11.9227 16.5791 11.9105 16.5304 11.8983 16.4857C11.8942 16.4694 11.8861 16.4532 11.8861 16.4369C11.8739 16.3923 11.8617 16.3557 11.8536 16.3191C11.8536 16.3151 11.8495 16.3069 11.8495 16.2988C11.8373 16.2582 11.8292 16.2257 11.8211 16.1973C11.8211 16.1973 11.8211 16.1973 11.8211 16.1932L12.1583 15.7626L12.1623 15.7544ZM13.0723 13.7923C13.0683 13.8369 13.0602 13.8816 13.0561 13.9304V13.9629C13.048 14.0279 13.0398 14.0929 13.0317 14.166C13.0317 14.1782 13.0317 14.1904 13.0277 14.2026C13.0195 14.2635 13.0114 14.3244 13.0033 14.3894C13.0033 14.4098 12.9952 14.4301 12.9911 14.4504C12.983 14.5113 12.9748 14.5682 12.9667 14.6291C12.9627 14.6535 12.9586 14.6819 12.9545 14.7104C12.9423 14.7713 12.9383 14.8363 12.922 14.9013C12.922 14.9257 12.9139 14.9501 12.9098 14.9744C12.8936 15.0598 12.8814 15.1451 12.8652 15.2344C12.8652 15.2385 12.8652 15.2466 12.8611 15.2548C12.8448 15.3482 12.8245 15.4498 12.8083 15.5513C12.8042 15.5716 12.7961 15.596 12.792 15.6204C12.7758 15.6976 12.7595 15.7788 12.7433 15.856L12.7352 15.8966L12.6823 15.8519L12.2517 15.4944L11.943 15.2223L11.6302 14.9419C11.6302 14.9419 11.6302 14.9419 11.6342 14.9419C11.7073 14.9054 11.7805 14.8648 11.8495 14.8241C11.8658 14.8119 11.8861 14.8038 11.9023 14.7916C11.9552 14.7591 12.008 14.7266 12.0567 14.6901C12.0811 14.6738 12.1014 14.6576 12.1258 14.6454C12.1705 14.6129 12.2152 14.5844 12.2558 14.5519C12.2802 14.5357 12.3005 14.5194 12.3248 14.4991C12.3655 14.4666 12.4061 14.4341 12.4467 14.4016C12.463 14.3854 12.4833 14.3691 12.4995 14.3529C12.5442 14.3123 12.5889 14.2716 12.6336 14.2351C12.6417 14.2269 12.6498 14.2188 12.662 14.2107C12.7148 14.1619 12.7636 14.1173 12.8083 14.0644L12.8448 14.0279C12.8773 13.9913 12.9098 13.9588 12.9383 13.9263C12.9505 13.9101 12.9667 13.8938 12.9789 13.8816C13.0033 13.8532 13.0277 13.8248 13.052 13.8004C13.0602 13.7923 13.0642 13.7841 13.0723 13.776V13.7963V13.7923ZM9.31047 10.5666C9.33484 10.4976 9.30234 10.4244 9.23734 10.4001C9.17234 10.3757 9.09516 10.4041 9.07078 10.4732C9.07078 10.4732 9.05859 10.4976 9.05859 10.5016C9.05859 10.5016 9.05859 10.503 9.05859 10.5057C9.04641 10.5423 9.03422 10.5544 9.03422 10.5544C9.00984 10.5544 8.92453 10.5057 8.79047 10.3066C8.53047 9.91257 8.34766 9.34382 8.42891 9.14476C8.51828 8.92132 8.63203 8.92945 8.70922 8.94976C8.75391 8.96195 8.78234 8.98226 8.78641 8.98226C8.79047 8.98632 8.79859 8.98632 8.80266 8.99038C8.81078 9.00257 8.81891 9.01476 8.83109 9.02288C8.83516 9.02288 8.84328 9.02289 8.85141 9.02695C8.86766 9.03507 8.88391 9.03914 8.90422 9.03914H8.91641C8.97328 9.03914 9.02609 8.98226 9.03422 8.92538C9.11547 8.50289 9.18453 8.1657 9.77359 7.7107C9.84672 7.76351 9.96047 7.83257 10.1148 7.88945C10.1189 7.88945 10.123 7.89351 10.127 7.89351C10.6633 8.17382 11.297 8.14539 12.1298 8.0682C12.1745 8.0682 12.2111 8.04382 12.2314 8.00726C12.2314 8.00726 12.2355 7.99507 12.2436 7.98289C12.2436 7.98289 12.2477 7.97882 12.2477 7.97476C12.2558 7.96257 12.2639 7.95039 12.2802 7.93414C12.2802 7.93007 12.2883 7.92195 12.2923 7.91789C12.3045 7.90164 12.3167 7.88539 12.333 7.8732C12.333 7.86914 12.3411 7.86101 12.3452 7.85695C12.3614 7.8407 12.3858 7.82039 12.4061 7.80414C12.4102 7.80414 12.4183 7.80007 12.4183 7.79195C12.4427 7.7757 12.467 7.75945 12.4955 7.7432C12.4955 7.7432 12.5036 7.73914 12.5077 7.73507C12.5361 7.72289 12.5645 7.7107 12.597 7.70257H12.6173C12.6458 7.69445 12.6742 7.69445 12.7067 7.69445H12.7473C12.7839 7.69851 12.8205 7.70664 12.857 7.71882C12.8814 7.73101 12.9017 7.7432 12.9261 7.75132C13.3933 8.01539 13.6452 8.89289 13.6452 8.90101C13.6533 8.92539 13.6695 8.9457 13.6858 8.96195C13.6898 8.96601 13.698 8.97007 13.702 8.97414C13.7102 8.9782 13.7142 8.98632 13.7223 8.99038H13.7508C13.7508 8.99038 13.7589 8.99445 13.763 8.99445H13.7792H13.7873C13.7873 8.99445 13.8239 8.98632 13.8402 8.97414C13.8402 8.97414 13.9092 8.93351 13.9783 8.93351C13.9945 8.93351 14.0148 8.93351 14.0311 8.94164C14.1002 8.96195 14.153 9.02695 14.1977 9.13664C14.2708 9.32757 14.1083 9.90445 13.8605 10.2985C13.7223 10.5138 13.633 10.5707 13.6208 10.5707C13.6208 10.5707 13.6045 10.5585 13.5883 10.5138C13.5883 10.5138 13.5883 10.5125 13.5883 10.5098C13.5883 10.5098 13.5883 10.4976 13.5802 10.4935C13.5558 10.4244 13.4827 10.3919 13.4136 10.4123C13.3445 10.4366 13.312 10.5057 13.3323 10.5707C13.243 11.2735 13.0317 11.8341 12.6986 12.2404C12.1705 12.8904 11.5123 12.9229 11.488 12.9269C11.4839 12.9269 11.4473 12.931 11.3945 12.931C11.3905 12.931 11.358 12.931 11.3092 12.9269C11.2402 12.9188 11.1264 12.9026 10.9883 12.8619C10.907 12.8376 10.8177 12.8091 10.7242 12.7685C10.513 12.671 10.2773 12.5166 10.0539 12.2769C9.66797 11.8626 9.41609 11.2857 9.30234 10.5585L9.31047 10.5666ZM9.71672 13.3616C9.82234 13.2479 9.98484 13.0244 10.058 12.6507C10.062 12.6548 10.0702 12.6629 10.0742 12.6629C10.1433 12.7238 10.2083 12.7726 10.2773 12.8213C10.2855 12.8294 10.2936 12.8335 10.3058 12.8416C10.3748 12.8863 10.4439 12.9269 10.5089 12.9594C10.513 12.9635 10.5211 12.9676 10.5252 12.9716C10.5942 13.0041 10.6592 13.0366 10.7242 13.061H10.7283C10.7933 13.0854 10.8542 13.1057 10.9111 13.1219C10.9192 13.1219 10.9273 13.1219 10.9355 13.126C10.9883 13.1423 11.0411 13.1544 11.0858 13.1666H11.1102C11.1548 13.1788 11.1955 13.1829 11.232 13.1869H11.2483C11.2848 13.1869 11.3133 13.191 11.3377 13.1951H11.3498H11.3986C11.4758 13.1951 11.5205 13.1869 11.5245 13.1869C11.5327 13.1869 11.5448 13.1869 11.5652 13.1829H11.5773C11.5977 13.1829 11.622 13.1788 11.6505 13.1707H11.6667C11.6992 13.1626 11.7358 13.1585 11.7764 13.1463C11.7805 13.1463 11.7886 13.1423 11.7967 13.1423C11.8414 13.1301 11.8861 13.1179 11.9348 13.1016C11.9389 13.1016 11.947 13.0976 11.9511 13.0976C11.9998 13.0813 12.0527 13.0569 12.1055 13.0366C12.1095 13.0366 12.1136 13.0366 12.1177 13.0326C12.1745 13.0082 12.2314 12.9757 12.2883 12.9432C12.3005 12.9351 12.3086 12.931 12.3167 12.9269C12.3777 12.8944 12.4345 12.8538 12.4914 12.8091C12.5036 12.801 12.5117 12.7929 12.5239 12.7848C12.5848 12.7401 12.6458 12.6913 12.7027 12.6344C12.7027 12.6344 12.7067 12.6304 12.7148 12.6263C12.788 13.0123 12.9545 13.2438 13.0642 13.3576C13.0642 13.3576 13.0642 13.3616 13.0602 13.3657C13.0358 13.3941 13.0114 13.4307 12.9789 13.4673C12.9748 13.4754 12.9667 13.4835 12.9586 13.4916C12.8895 13.5769 12.7961 13.6826 12.6864 13.8004C12.6742 13.8126 12.662 13.8207 12.6539 13.8329C12.6011 13.8898 12.5402 13.9466 12.4752 14.0076C12.463 14.0157 12.4548 14.0238 12.4427 14.036C12.3817 14.0929 12.3167 14.1498 12.2477 14.2066C12.2395 14.2107 12.2314 14.2188 12.2233 14.2269C12.1502 14.2879 12.073 14.3448 11.9958 14.4016C11.9795 14.4138 11.9633 14.426 11.947 14.4382C11.8658 14.491 11.7805 14.5479 11.6952 14.5966C11.683 14.6007 11.6789 14.6088 11.6667 14.6129C11.5855 14.6576 11.5042 14.7023 11.4148 14.7388C11.4027 14.7429 11.3945 14.751 11.3823 14.7551C11.3702 14.751 11.358 14.7429 11.3498 14.7388C11.2645 14.6982 11.1792 14.6576 11.098 14.6129C11.0898 14.6088 11.0817 14.6007 11.0695 14.5966C10.9842 14.5438 10.903 14.491 10.8177 14.4382C10.8014 14.426 10.7852 14.4138 10.7689 14.4016C10.6917 14.3448 10.6145 14.2879 10.5414 14.2269C10.5333 14.2188 10.5252 14.2107 10.517 14.2066C10.448 14.1498 10.387 14.0888 10.322 14.0319C10.3098 14.0238 10.3017 14.0157 10.2895 14.0076C10.2286 13.9466 10.1677 13.8898 10.1108 13.8288C10.0986 13.8166 10.0905 13.8085 10.0783 13.7963C9.96859 13.6785 9.87516 13.5729 9.80203 13.4835C9.79797 13.4794 9.78984 13.4713 9.78578 13.4673C9.75328 13.4266 9.72078 13.386 9.69641 13.3576L9.71672 13.3616ZM9.72891 13.7963C9.74922 13.8207 9.77359 13.8451 9.79797 13.8694C9.81422 13.8857 9.83047 13.906 9.84672 13.9223C9.87109 13.9507 9.90359 13.9832 9.93203 14.0116C9.94828 14.0279 9.96047 14.0441 9.97672 14.0563C10.0214 14.101 10.0702 14.1498 10.123 14.1944C10.1352 14.2066 10.1473 14.2188 10.1595 14.2269C10.2002 14.2676 10.2408 14.3001 10.2814 14.3407C10.3017 14.3569 10.322 14.3732 10.3423 14.3935C10.383 14.426 10.4155 14.4544 10.4602 14.4869C10.4845 14.5032 10.5048 14.5235 10.5292 14.5398C10.5698 14.5723 10.6105 14.6007 10.6511 14.6332C10.6755 14.6494 10.6958 14.6657 10.7202 14.6819C10.773 14.7144 10.8217 14.7469 10.8705 14.7754C10.8867 14.7876 10.907 14.7998 10.9233 14.8079C10.9964 14.8485 11.0695 14.8891 11.1427 14.9257H11.1467L10.9233 15.1248L10.5536 15.4538L10.4155 15.5716L10.0377 15.8844C10.0377 15.8844 10.0336 15.8601 10.0295 15.8479C10.0133 15.7666 9.99703 15.6813 9.97672 15.6041C9.97672 15.5838 9.96859 15.5635 9.96453 15.5432C9.94422 15.4416 9.92391 15.3401 9.90766 15.2426C9.90766 15.2385 9.90766 15.2304 9.90766 15.2263C9.89141 15.1369 9.87516 15.0516 9.86297 14.9663C9.85891 14.9338 9.85078 14.9094 9.84672 14.881C9.83859 14.8201 9.83047 14.7591 9.82234 14.6982C9.81828 14.6698 9.81016 14.6413 9.81016 14.6129C9.79797 14.556 9.79391 14.4991 9.78578 14.4463C9.78578 14.4219 9.78172 14.3976 9.77359 14.3732C9.76547 14.3123 9.76141 14.2554 9.75328 14.2026C9.75328 14.1863 9.74922 14.1701 9.74516 14.1498C9.73703 14.0807 9.72891 14.0157 9.72484 13.9548L9.71672 13.9019C9.71672 13.8613 9.70859 13.8248 9.70453 13.7882C9.70453 13.7801 9.70453 13.7719 9.70453 13.7638C9.70859 13.7719 9.72078 13.7801 9.72484 13.7882L9.72891 13.7963ZM5.26828 20.4751C5.27234 19.7682 5.32109 16.4166 5.73547 15.1776C5.80859 14.9623 7.02734 14.4951 8.55891 14.0888V14.101C8.54672 14.1335 8.53859 14.1741 8.52641 14.2107C8.52641 14.2269 8.51828 14.2391 8.51422 14.2513C8.50203 14.2919 8.49391 14.3326 8.48172 14.3813C8.48172 14.3935 8.47766 14.4057 8.46953 14.4179C8.45734 14.4788 8.44516 14.5398 8.42891 14.6088C8.42484 14.6251 8.42078 14.6413 8.41672 14.6535C8.40453 14.7104 8.39641 14.7713 8.38422 14.8323C8.38422 14.8566 8.37609 14.881 8.37203 14.9054C8.35984 14.9785 8.34766 15.0516 8.33547 15.1288C8.33547 15.1451 8.33547 15.1573 8.33141 15.1694C8.31922 15.2629 8.30703 15.3604 8.29484 15.4619C8.29484 15.4904 8.29078 15.5188 8.28266 15.5473C8.27453 15.6285 8.26641 15.7138 8.25828 15.8032C8.25828 15.8357 8.25016 15.8723 8.24609 15.9048C8.23391 16.0266 8.22984 16.1485 8.22172 16.2826C8.22172 16.3313 8.24609 16.3801 8.29078 16.4044L8.96109 16.7579V18.1188C8.96109 18.1513 8.97328 18.1838 8.99766 18.2082L11.0777 20.471H5.25203L5.26828 20.4751ZM11.5936 19.8332C11.557 19.9226 11.5205 20.0119 11.4839 20.0973C11.4677 20.1419 11.4433 20.1866 11.427 20.2273C11.4148 20.2516 11.4027 20.276 11.3905 20.3004C11.3783 20.276 11.3661 20.2557 11.3539 20.2313C11.3336 20.1866 11.3133 20.1379 11.293 20.0891C11.2564 20.0079 11.2198 19.9226 11.1873 19.8332C11.167 19.7844 11.1467 19.7398 11.1264 19.6869C11.0858 19.5854 11.0452 19.4798 11.0045 19.366C10.9883 19.3254 10.972 19.2848 10.9598 19.2441C10.907 19.0938 10.8502 18.9354 10.7973 18.7688C10.7973 18.7079 10.7973 18.6429 10.8014 18.5779C10.8014 18.5657 10.8014 18.5535 10.8014 18.5373C10.8014 18.4804 10.8055 18.4276 10.8136 18.3707C10.8136 18.3463 10.8136 18.3219 10.8177 18.2976C10.8217 18.2529 10.8258 18.2041 10.8298 18.1594C10.8298 18.131 10.8339 18.1066 10.842 18.0782C10.8461 18.0335 10.8542 17.9888 10.8583 17.9482C10.8583 17.9238 10.8623 17.8954 10.8705 17.8669C10.8745 17.8223 10.8827 17.7776 10.8867 17.7329C10.8908 17.7085 10.8948 17.6882 10.8989 17.6638C10.907 17.6069 10.9152 17.5541 10.9233 17.4973C10.9233 17.4851 10.9273 17.4769 10.9314 17.4648C10.9436 17.3998 10.9517 17.3348 10.9639 17.2738C10.968 17.2494 10.9761 17.2291 10.9802 17.2007C10.9883 17.1641 10.9923 17.1276 11.0005 17.091C11.0086 17.0626 11.0127 17.0382 11.0167 17.0098C11.0248 16.9773 11.0289 16.9488 11.037 16.9204C11.0411 16.8919 11.0492 16.8676 11.0533 16.8391C11.0614 16.8148 11.0655 16.7863 11.0695 16.7619C11.0777 16.7376 11.0817 16.7091 11.0858 16.6848C11.0898 16.6644 11.098 16.6441 11.102 16.6238C11.1386 16.4735 11.1711 16.3516 11.1914 16.2744H11.5692C11.5895 16.3516 11.622 16.4735 11.6586 16.6238C11.6627 16.6441 11.6708 16.6644 11.6748 16.6848C11.6789 16.7091 11.687 16.7376 11.6911 16.7619C11.6952 16.7863 11.7033 16.8148 11.7073 16.8391C11.7114 16.8635 11.7195 16.8919 11.7236 16.9204C11.7277 16.9488 11.7358 16.9773 11.7398 17.0098C11.748 17.0382 11.752 17.0626 11.7561 17.091C11.7642 17.1276 11.7723 17.1641 11.7805 17.2007C11.7805 17.2251 11.7886 17.2494 11.7927 17.2738C11.8048 17.3348 11.817 17.3998 11.8292 17.4648C11.8292 17.4769 11.8292 17.4851 11.8333 17.4973C11.8455 17.5541 11.8495 17.6069 11.8617 17.6638C11.8617 17.6882 11.8698 17.7085 11.8739 17.7329C11.882 17.7776 11.8861 17.8223 11.8902 17.8669C11.8942 17.8913 11.8983 17.9198 11.9023 17.9482C11.9064 17.9929 11.9145 18.0376 11.9186 18.0782C11.9186 18.1026 11.9227 18.131 11.9267 18.1594C11.9308 18.2041 11.9389 18.2488 11.9389 18.2976C11.9389 18.3219 11.943 18.3423 11.943 18.3707C11.947 18.4276 11.9511 18.4804 11.9552 18.5373V18.5779C11.9552 18.6429 11.9592 18.7079 11.9592 18.7688C11.9064 18.9354 11.8536 19.0898 11.8008 19.2441C11.7845 19.2888 11.7683 19.3254 11.7561 19.3701C11.7155 19.4798 11.6748 19.5854 11.6342 19.691C11.618 19.7398 11.5977 19.7844 11.5773 19.8332H11.5936ZM11.687 20.4751L13.7711 18.2123C13.7914 18.1879 13.8036 18.1554 13.8036 18.1229V16.7619L14.4739 16.4085C14.5186 16.3841 14.547 16.3354 14.543 16.2866C14.5348 16.1566 14.5267 16.0307 14.5186 15.9129C14.5186 15.8763 14.5145 15.8438 14.5105 15.8073C14.5023 15.7219 14.4942 15.6366 14.4861 15.5554C14.4861 15.5269 14.482 15.4944 14.4739 15.466C14.4617 15.3644 14.4495 15.2629 14.4373 15.1735C14.4373 15.1613 14.4373 15.1491 14.4333 15.1369C14.4211 15.0557 14.4089 14.9785 14.3967 14.9054C14.3967 14.881 14.3927 14.8607 14.3845 14.8363C14.3723 14.7713 14.3602 14.7104 14.352 14.6494C14.352 14.6373 14.348 14.621 14.3439 14.6088C14.3277 14.5398 14.3155 14.4748 14.3033 14.4138C14.3033 14.4057 14.2992 14.3976 14.2952 14.3894C14.283 14.3366 14.2708 14.2919 14.2627 14.2473C14.2627 14.2351 14.2586 14.2269 14.2545 14.2148C14.2423 14.1701 14.2302 14.1254 14.218 14.0848C14.4048 14.1376 14.6811 14.2107 14.9939 14.3082C14.9939 14.3366 15.002 14.3651 15.0061 14.3976C15.0102 14.4301 15.0183 14.4666 15.0223 14.5032C15.0305 14.5479 15.0386 14.5926 15.0508 14.6332C15.0589 14.6698 15.067 14.7023 15.0752 14.7348C15.0873 14.7794 15.0995 14.8241 15.1158 14.8648C15.128 14.8973 15.1361 14.9338 15.1483 14.9663C15.1645 15.0069 15.1808 15.0516 15.197 15.0923C15.2092 15.1248 15.2214 15.1532 15.2377 15.1857C15.2539 15.2304 15.2783 15.271 15.2986 15.3116C15.3108 15.3401 15.327 15.3685 15.3433 15.3969C15.3677 15.4416 15.392 15.4823 15.4164 15.5229C15.4327 15.5473 15.4489 15.5757 15.4611 15.6001C15.4936 15.6448 15.5261 15.6894 15.5586 15.7341C15.5708 15.7504 15.583 15.7748 15.5992 15.791C15.648 15.8519 15.7008 15.9129 15.7495 15.9698L15.7942 16.0144L15.9161 16.1363C15.9405 16.1566 15.9608 16.1769 15.9852 16.1973L16.0948 16.2907C16.1192 16.311 16.1477 16.3313 16.1761 16.3516C16.2127 16.3801 16.2452 16.4044 16.2858 16.4329C16.3142 16.4532 16.3467 16.4735 16.3752 16.4898C16.4117 16.5141 16.4483 16.5344 16.4848 16.5588C16.5173 16.5751 16.5458 16.5954 16.5783 16.6116C16.6189 16.6319 16.6514 16.6523 16.6961 16.6726C16.7286 16.6888 16.7652 16.701 16.7977 16.7173C16.8383 16.7335 16.8789 16.7498 16.9155 16.766C16.952 16.7782 16.9845 16.7904 17.0211 16.8026C17.0617 16.8148 17.1023 16.831 17.147 16.8432C17.1795 16.8554 17.2161 16.8635 17.2527 16.8716C17.2811 16.8798 17.3055 16.8879 17.3339 16.8919C17.4761 18.3138 17.5005 20.0038 17.5005 20.4832H11.6748L11.687 20.4751ZM17.9839 16.6929C17.8173 16.6929 17.6467 16.6766 17.4883 16.6482C17.1105 16.5791 16.7611 16.4329 16.4523 16.2298C15.782 15.7788 15.323 15.0394 15.2458 14.1985C15.2377 14.1173 15.2336 14.0319 15.2336 13.9426C15.2336 12.4273 16.4686 11.1963 17.9839 11.1963C19.4992 11.1963 20.7342 12.4273 20.7342 13.9426C20.7342 15.4579 19.5033 16.6929 17.9839 16.6929Z" fill="#026672"/>
<path d="M13 25.5938C6.05719 25.5938 0.40625 19.9428 0.40625 13C0.40625 6.05719 6.05719 0.40625 13 0.40625C19.9428 0.40625 25.5938 6.05719 25.5938 13C25.5938 19.9428 19.9428 25.5938 13 25.5938ZM13 0.804375C6.27656 0.804375 0.804375 6.27656 0.804375 13C0.804375 19.7234 6.27656 25.1956 13 25.1956C19.7234 25.1956 25.1956 19.7275 25.1956 13C25.1956 6.2725 19.7234 0.804375 13 0.804375Z" fill="#026672"/>
</g>
<defs>
<clipPath id="clip0_20_2705">
<rect width="26" height="26" fill="white"/>
</clipPath>
</defs>
</svg>
