<svg width="296" height="191" viewBox="0 0 296 191" fill="none" xmlns="http://www.w3.org/2000/svg">
<path fill-rule="evenodd" clip-rule="evenodd" d="M199.913 106.268C253.411 75.8456 291.33 38.278 294.562 13.7471C304.722 37.2798 259.976 84.5255 194.211 119.68C194.584 118.925 194.941 118.17 195.253 117.419L199.913 106.268Z" fill="#00663D"/>
<path fill-rule="evenodd" clip-rule="evenodd" d="M116.229 174.075C174.651 167.244 226.389 126.08 231.158 82.5876C232.793 67.7304 228.734 54.4482 220.355 43.6606C237.706 26.4587 273.264 8.80259 294.329 8.9747C221.5 -3.46498 135.361 114.692 116.999 138.256L62.605 94.7017L94.0872 90.0993L116.471 104.056C150.827 67.1684 176.175 45.9262 203.415 28.6499C185.849 17.7581 161.38 12.6804 133.604 15.9196C75.1653 22.7504 23.4581 63.9084 18.6837 107.409C13.9087 150.881 57.7971 180.893 116.229 174.075Z" fill="#1CC783"/>
<path fill-rule="evenodd" clip-rule="evenodd" d="M185.052 175.133C175.649 175.133 168.033 167.514 168.033 158.114C168.033 150.192 173.457 143.535 180.799 141.638C180.84 129.719 190.526 120.05 202.474 120.05C211.488 120.05 219.216 125.549 222.49 133.38C225.001 132.35 227.756 131.79 230.636 131.79C242.609 131.79 252.312 141.497 252.312 153.462C252.312 165.43 242.609 175.133 230.636 175.133H185.052Z" fill="#EAEBED"/>
<path fill-rule="evenodd" clip-rule="evenodd" d="M134.775 190.069C125.379 190.069 117.762 182.466 117.762 173.066C117.762 165.14 123.188 158.483 130.529 156.59C130.563 144.655 140.257 134.998 152.196 134.998C161.218 134.998 168.946 140.501 172.212 148.328C174.731 147.303 177.478 146.743 180.359 146.743C192.331 146.743 202.042 156.446 202.042 168.414C202.042 180.379 192.331 190.069 180.359 190.069L134.775 190.069Z" fill="#EAEBED"/>
<path fill-rule="evenodd" clip-rule="evenodd" d="M17.2472 181.1C9.95166 181.1 4.0293 175.182 4.0293 167.899C4.0293 161.74 8.24173 156.574 13.9479 155.113C13.9729 145.842 21.5011 138.334 30.7764 138.334C37.7755 138.334 43.7786 142.618 46.314 148.681C48.2731 147.896 50.4059 147.465 52.6364 147.465C61.9388 147.465 69.467 154.984 69.467 164.273C69.467 173.577 61.9388 181.101 52.6364 181.101L17.2472 181.1Z" fill="#EAEBED"/>
<path fill-rule="evenodd" clip-rule="evenodd" d="M248.933 118.523C246.564 118.523 244.646 116.618 244.646 114.257C244.646 112.252 246.012 110.584 247.867 110.103C247.876 107.102 250.312 104.666 253.324 104.666C255.586 104.666 257.537 106.061 258.354 108.02C258.989 107.763 259.678 107.634 260.408 107.634C263.426 107.634 265.865 110.07 265.865 113.087C265.865 116.087 263.425 118.523 260.408 118.523H248.933V118.523Z" fill="#EAEBED"/>
<path fill-rule="evenodd" clip-rule="evenodd" d="M15.8096 78.5456C7.07986 78.5456 0 71.4679 0 62.736C0 55.3778 5.04855 49.1946 11.8713 47.4368C11.9026 36.348 20.8911 27.3696 32.0134 27.3696C40.3921 27.3696 47.5575 32.4989 50.5912 39.7493C52.9422 38.799 55.4862 38.2906 58.1836 38.2906C61.2402 38.2906 64.1304 38.9711 66.7222 40.187C50.4876 50.8195 37.2134 64.0805 28.7083 78.5456H15.8096Z" fill="#EAEBED"/>
<path fill-rule="evenodd" clip-rule="evenodd" d="M200.549 13.8633C198.183 13.8633 196.266 11.9499 196.266 9.58448C196.266 7.58609 197.635 5.90963 199.482 5.43633C199.491 2.43397 201.93 0 204.939 0C207.201 0 209.152 1.3859 209.969 3.35507C210.604 3.10009 211.301 2.95454 212.027 2.95454C215.036 2.95454 217.481 5.39702 217.481 8.41159C217.481 11.4203 215.036 13.8628 212.027 13.8628H200.549V13.8633Z" fill="#EAEBED"/>
</svg>
