<svg width="80" height="80" viewBox="0 0 80 80" fill="none" xmlns="http://www.w3.org/2000/svg">
<g clip-path="url(#clip0_20_13047)">
<path d="M79.7069 45.0039C78.9835 41.8293 78.9829 38.1665 79.7057 34.9917C80.1267 33.1426 80.0902 31.2187 79.5993 29.3869C79.1084 27.5551 78.178 25.8707 76.8888 24.4799C74.6753 22.0919 72.8438 18.9197 71.8823 15.8087C71.3223 13.9968 70.3286 12.3488 68.9875 11.0079C67.6464 9.66695 65.9983 8.67349 64.1863 8.1137C61.0754 7.15263 57.9034 5.32043 55.5158 3.10672C54.1249 1.8172 52.4403 0.88666 50.6083 0.39589C48.7762 -0.0948799 46.8521 -0.131045 45.0028 0.290534C41.8284 1.01423 38.1653 1.01553 34.9907 0.292748C33.1416 -0.128248 31.2176 -0.0917268 29.3858 0.399143C27.554 0.890014 25.8697 1.82041 24.4789 3.10961C22.0908 5.32317 18.9191 7.155 15.8082 8.11686C13.9965 8.67703 12.3488 9.67075 11.0081 11.0118C9.66739 12.3529 8.67409 14.0008 8.11438 15.8127C7.15337 18.9235 5.32197 22.0955 3.10855 24.4834C1.81935 25.8742 0.888948 27.5586 0.398078 29.3904C-0.0927923 31.2222 -0.129319 33.1461 0.291678 34.9952C1.01452 38.17 1.01388 41.8332 0.290916 45.0081C-0.130201 46.8574 -0.093642 48.7815 0.397443 50.6135C0.888528 52.4454 1.81929 54.1299 3.10893 55.5206C5.32272 57.9078 7.15475 61.0799 8.11576 64.1906C8.67553 66.0025 9.66908 67.6505 11.0101 68.9914C12.3512 70.3323 13.9993 71.3256 15.8113 71.8851C18.9222 72.8458 22.0945 74.6765 24.4823 76.8899C25.8731 78.1791 27.5575 79.1095 29.3893 79.6004C31.2211 80.0912 33.145 80.1278 34.9941 79.7068C38.169 78.9839 41.8322 78.9846 45.007 79.7075C46.8563 80.1286 48.7804 80.0921 50.6124 79.601C52.4444 79.1099 54.1288 78.1792 55.5195 76.8895C57.9068 74.6756 61.0789 72.8436 64.1897 71.8825C66.0016 71.3227 67.6496 70.3292 68.9906 68.9882C70.3316 67.6472 71.3252 65.9992 71.8849 64.1873C72.846 61.0763 74.6774 57.9042 76.8909 55.5163C78.1802 54.1254 79.1105 52.4409 79.6013 50.609C80.092 48.7771 80.1283 46.8531 79.7069 45.0039Z" fill="#E26C39"/>
<path d="M32.8173 55.2669L21.7018 44.1583C21.2799 43.7357 21.043 43.1631 21.043 42.566C21.043 41.9689 21.2799 41.3962 21.7018 40.9737L23.0522 39.6215C23.4747 39.1997 24.0474 38.9628 24.6445 38.9628C25.2415 38.9628 25.8142 39.1997 26.2368 39.6215L34.3168 47.6964L53.3461 27.4745C53.7555 27.0401 54.3206 26.7859 54.9174 26.7677C55.5141 26.7494 56.0937 26.9688 56.5289 27.3775L57.9157 28.6863C58.3507 29.0958 58.6053 29.6613 58.6235 30.2585C58.6417 30.8556 58.422 31.4356 58.0128 31.8708L36.0556 55.2166C35.8489 55.4369 35.5999 55.6134 35.3236 55.7356C35.0473 55.8578 34.7492 55.9232 34.4471 55.9279C34.145 55.9326 33.845 55.8765 33.5651 55.7629C33.2851 55.6494 33.0308 55.4807 32.8173 55.2669Z" fill="white"/>
</g>
<defs>
<clipPath id="clip0_20_13047">
<rect width="80" height="80" fill="white"/>
</clipPath>
</defs>
</svg>
