<svg width="24" height="24" viewBox="0 0 24 24" fill="none" xmlns="http://www.w3.org/2000/svg">
<path d="M9.86719 0.130795C9.1875 0.360481 8.7 0.777668 8.36719 1.41048C8.0625 1.99642 8.0625 1.95423 8.0625 5.68079V9.04642H5.26406C2.13281 9.04642 2.06719 9.05111 1.45312 9.36048C0.984375 9.59954 0.553125 10.0308 0.314062 10.4995C0 11.1277 0 11.1089 0 14.9995C0 18.8855 0 18.862 0.309375 19.4995C0.707812 20.3152 1.67812 20.9433 2.55469 20.9527C2.80781 20.9574 2.88281 21.0089 3.26719 21.4449C4.02656 22.3074 5.31094 23.3761 6.19219 23.8824C6.6 24.1167 7.07344 24.0042 7.27031 23.6245C7.40625 23.3761 7.37812 23.198 7.125 22.6074C6.94219 22.1902 6.5625 21.0886 6.5625 20.9761C6.5625 20.9667 8.01094 20.948 9.7875 20.9433L13.0078 20.9292L13.2984 20.8167C14.0719 20.5308 14.6719 19.9261 14.9625 19.1433C15.0562 18.8949 15.0703 18.7542 15.0844 17.8449C15.0937 17.2777 15.0891 16.7667 15.075 16.7011C15.0328 16.5511 14.7703 16.4339 14.6062 16.4949C14.3625 16.5886 14.3437 16.6824 14.3437 17.648C14.3437 18.8386 14.2687 19.1058 13.7859 19.6074C13.5281 19.8745 13.2844 20.0245 12.9422 20.1277C12.7172 20.1933 12.2953 20.2027 9.56719 20.2027C6.62344 20.2027 6.43594 20.212 6.25312 20.2917C6.02344 20.3949 5.85937 20.6105 5.82656 20.8495C5.78906 21.1308 6.09375 22.1761 6.42656 22.912C6.49687 23.0714 6.53437 23.1886 6.50156 23.1745C5.67656 22.687 4.43437 21.6324 3.75469 20.8449C3.32812 20.3433 3.16875 20.2589 2.61562 20.198C1.90312 20.1277 1.37344 19.8089 1.04531 19.2605C0.740625 18.7542 0.745312 18.8105 0.759375 14.873C0.773437 11.362 0.773437 11.3152 0.871875 11.0761C1.09219 10.5417 1.56562 10.0824 2.07656 9.90423C2.30156 9.82454 2.55 9.81986 5.22187 9.81986H8.12344L8.17969 10.0074C8.41406 10.7902 9.05156 11.4417 9.85781 11.723L10.2422 11.8589H12.2953H14.3437V13.5886C14.3437 15.262 14.3484 15.3183 14.4422 15.4402C14.5641 15.5949 14.8547 15.6136 15 15.4683C15.0891 15.3792 15.0937 15.3136 15.0937 13.6167V11.8589H15.8437H16.5937L16.5656 11.9855C16.4812 12.3464 16.1859 13.1855 16.0031 13.5933C15.8906 13.8417 15.7969 14.1183 15.7969 14.198C15.7969 14.5589 16.0687 14.8777 16.4203 14.9292C16.6734 14.9667 16.8375 14.9011 17.3297 14.573C18.1125 14.048 18.7125 13.5464 19.5187 12.7355L20.3531 11.8917L20.7141 11.8589C20.9109 11.8355 21.1922 11.7792 21.3328 11.7324C22.1953 11.4417 22.8984 10.6449 23.0906 9.75423C23.1844 9.29486 23.1844 2.55892 23.0859 2.09954C22.8844 1.13861 22.1016 0.313606 21.1547 0.0698566C20.9344 0.013607 20.4703 -0.000455856 18.5578 -0.000455856H16.2234L16.1297 0.121418C16.0734 0.19173 16.0312 0.294857 16.0312 0.351107C16.0312 0.407356 16.0734 0.510481 16.1297 0.580793L16.2234 0.702669H18.2953C20.4937 0.702669 20.8734 0.730793 21.2672 0.913607C21.7781 1.14329 22.2375 1.72923 22.3547 2.28704C22.3875 2.45579 22.4062 3.62767 22.4062 5.94329C22.4062 9.65579 22.4062 9.64173 22.1391 10.1339C21.975 10.4339 21.5766 10.8042 21.2625 10.9495C21.1031 11.0199 20.8453 11.0855 20.5687 11.1183C20.3297 11.1464 20.0719 11.198 19.9922 11.2402C19.9172 11.2777 19.4812 11.6855 19.0312 12.1402C18.2484 12.937 17.7234 13.3777 16.9828 13.8839C16.7953 14.0105 16.6406 14.0902 16.6406 14.062C16.6406 14.0339 16.6781 13.9355 16.7297 13.837C16.9453 13.4058 17.3437 12.1495 17.3437 11.8917C17.3437 11.6667 17.1703 11.362 16.9781 11.2402L16.8047 11.1324L13.5234 11.1089L10.2422 11.0855L9.93281 10.9355C9.53906 10.7386 9.17812 10.3824 8.98594 9.98861L8.83594 9.67923V5.92923V2.17923L8.99531 1.85111C9.3 1.23704 9.8625 0.83392 10.5375 0.744856C10.7109 0.726107 11.775 0.707355 12.9047 0.702669C14.8875 0.702669 14.9578 0.697981 15.0469 0.608919C15.1031 0.55267 15.1406 0.454231 15.1406 0.351107C15.1406 0.247982 15.1031 0.149544 15.0469 0.0932941C14.9578 0.0042305 14.8922 -0.000455856 12.6 -0.000455856H10.2422L9.86719 0.130795Z" fill="white"/>
<path d="M15.5344 2.67188C15.4031 2.72344 15.2812 2.89688 15.2812 3.02813C15.2812 3.08438 15.3234 3.18281 15.3797 3.25313L15.4734 3.375H18.1828H20.8922L20.9906 3.26719C21.1781 3.06563 21.1078 2.76563 20.8547 2.67656C20.6719 2.61563 15.6891 2.61094 15.5344 2.67188Z" fill="white"/>
<path d="M13.2188 4.07812C12.9469 4.12969 12.8438 4.20469 12.225 4.81875L11.625 5.40937L11.4281 5.21719C11.1844 4.97812 10.95 4.875 10.6641 4.875C10.1109 4.875 9.66094 5.31562 9.65625 5.86406C9.65625 6.22031 9.82969 6.48281 10.4906 7.13437C11.1141 7.74844 11.2453 7.82812 11.625 7.82812C12.0422 7.82812 12.1125 7.77656 13.1859 6.7125C13.8188 6.07969 14.2406 5.625 14.2969 5.50781C14.4 5.29688 14.4234 4.87031 14.3438 4.66875C14.2734 4.48125 13.9781 4.18125 13.8141 4.12969C13.575 4.05937 13.3969 4.04531 13.2188 4.07812ZM13.6313 5.03906C13.6453 5.15156 13.5328 5.2875 12.6938 6.12187C11.9859 6.82969 11.7094 7.07812 11.6297 7.07812C11.4938 7.07812 10.4672 6.08906 10.4203 5.91562C10.3875 5.78437 10.5188 5.625 10.6594 5.625C10.7203 5.625 10.8703 5.7375 11.0391 5.90625C11.3578 6.22969 11.55 6.31406 11.7797 6.23906C11.8734 6.20625 12.1688 5.94375 12.5859 5.52656C12.9469 5.16562 13.2844 4.85156 13.3359 4.82812C13.4672 4.77656 13.6125 4.87969 13.6313 5.03906Z" fill="white"/>
<path d="M15.3805 4.24662C15.2492 4.41068 15.2586 4.56068 15.3945 4.72005L15.507 4.8513L18.057 4.86537C19.4539 4.87474 20.6727 4.86537 20.757 4.8513C21.0852 4.79037 21.2117 4.4388 20.9867 4.22787L20.8789 4.12474H18.1789H15.4742L15.3805 4.24662Z" fill="white"/>
<path d="M15.4366 5.64816C15.2257 5.79816 15.2679 6.17785 15.5116 6.27629C15.596 6.31379 16.421 6.32785 18.2772 6.31848L20.9163 6.30441L21.0054 6.19191C21.1225 6.05129 21.1179 5.85441 20.996 5.69973L20.9022 5.57785H18.2163C15.9288 5.57785 15.521 5.58723 15.4366 5.64816Z" fill="white"/>
<path d="M15.4172 7.12031C15.3328 7.18594 15.3047 7.25625 15.3047 7.40625C15.3047 7.55625 15.3328 7.62656 15.4172 7.69219C15.5203 7.77656 15.6469 7.78125 18.1969 7.78125H20.8641L20.9766 7.66406C21.0516 7.59375 21.0938 7.49531 21.0938 7.40625C21.0938 7.31719 21.0516 7.21875 20.9766 7.14844L20.8641 7.03125H18.1969C15.6469 7.03125 15.5203 7.03594 15.4172 7.12031Z" fill="white"/>
<path d="M15.4832 8.54062C15.352 8.60156 15.2676 8.8125 15.3098 8.97187C15.3707 9.22969 15.4129 9.23438 16.9457 9.23438H18.3613L18.4598 9.12656C18.6004 8.97656 18.5957 8.74687 18.4457 8.60156L18.3332 8.48438L16.9598 8.48906C16.102 8.48906 15.5488 8.50781 15.4832 8.54062Z" fill="white"/>
<path d="M6.91907 12.0094C6.75032 12.1641 6.73626 12.4078 6.89095 12.5625C6.98001 12.6516 7.04563 12.6562 7.85188 12.6562C8.65813 12.6562 8.72376 12.6516 8.81282 12.5625C8.95813 12.4172 8.93938 12.1266 8.78469 12.0047C8.66751 11.9156 8.5972 11.9062 7.8472 11.9062C7.07376 11.9062 7.03157 11.9109 6.91907 12.0094Z" fill="white"/>
<path d="M2.43252 13.2611C2.00596 13.3455 1.70127 13.683 1.6544 14.1236C1.6169 14.4751 1.71533 14.733 1.9919 15.0001L2.19815 15.2017L1.97783 15.4455C1.5419 15.9236 1.52783 16.4814 1.94033 16.8939C2.3669 17.3205 3.00908 17.2876 3.46377 16.8095L3.62315 16.6455L3.87158 16.8705C4.57471 17.5126 5.58252 17.1142 5.58252 16.1955C5.58252 15.8861 5.49346 15.6705 5.2544 15.408L5.0669 15.2017L5.22627 15.047C5.46065 14.822 5.58252 14.5361 5.58252 14.2408C5.58252 13.922 5.5169 13.7533 5.31065 13.5376C4.90752 13.1251 4.23721 13.158 3.80127 13.6126L3.6419 13.7767L3.43565 13.5892C3.12627 13.3033 2.78408 13.1955 2.43252 13.2611ZM3.1169 14.3486C3.53408 14.7517 3.72627 14.747 4.16221 14.3298C4.52315 13.983 4.59346 13.9501 4.7294 14.0439C4.91221 14.1751 4.85596 14.3345 4.51377 14.6861C4.06377 15.1361 4.06377 15.2767 4.51377 15.7408C4.85596 16.1017 4.90752 16.2517 4.72471 16.3783C4.66846 16.4205 4.60283 16.4533 4.5794 16.4533C4.56065 16.4533 4.38721 16.3033 4.19502 16.1251C3.8669 15.8158 3.83408 15.797 3.63252 15.797C3.43096 15.797 3.39815 15.8158 3.07002 16.1251C2.87783 16.3033 2.69033 16.4533 2.65283 16.4533C2.5544 16.4533 2.39033 16.2892 2.39033 16.1908C2.39033 16.1533 2.53565 15.9658 2.71846 15.7736C3.02783 15.4501 3.04658 15.4126 3.04658 15.2158C3.04658 15.0142 3.02783 14.9767 2.71377 14.6486C2.42783 14.3486 2.38565 14.283 2.40908 14.1798C2.44658 14.0345 2.61065 13.9595 2.7419 14.0251C2.79346 14.0533 2.96221 14.1939 3.1169 14.3486Z" fill="white"/>
<path d="M7.05045 13.3922C6.8067 13.4391 6.6942 13.8234 6.87232 14.0203C6.95201 14.1047 7.04107 14.1094 9.66607 14.1094C12.3145 14.1094 12.3754 14.1094 12.4692 14.0156C12.5676 13.9172 12.5911 13.6922 12.5161 13.5469C12.4223 13.3687 12.2536 13.3594 9.66139 13.3641C8.27857 13.3687 7.10201 13.3828 7.05045 13.3922Z" fill="white"/>
<path d="M6.89122 14.9437C6.75059 15.0562 6.75059 15.3469 6.88653 15.4875C6.98497 15.5859 6.99434 15.5859 9.68497 15.5859H12.385L12.474 15.4734C12.5912 15.3281 12.5912 15.075 12.4693 14.9531C12.3756 14.8594 12.3147 14.8594 9.68497 14.8594C7.17247 14.8594 6.98966 14.8641 6.89122 14.9437Z" fill="white"/>
<path d="M6.89095 16.4062C6.73626 16.5609 6.75032 16.8047 6.91907 16.9547L7.03626 17.0625H9.6847H12.3331L12.4456 16.9453C12.6003 16.7953 12.605 16.5562 12.455 16.4156L12.3472 16.3125H9.66595C7.04563 16.3125 6.9847 16.3125 6.89095 16.4062Z" fill="white"/>
<path d="M6.95072 17.8219C6.81478 17.8875 6.73978 18.1078 6.80072 18.2672C6.89447 18.5109 6.90384 18.5109 8.39447 18.5156C9.73041 18.5156 9.78666 18.5109 9.90853 18.4172C10.082 18.2812 10.082 18 9.90853 17.8641C9.78666 17.7703 9.73041 17.7656 8.41791 17.7703C7.56009 17.7703 7.01634 17.7891 6.95072 17.8219Z" fill="white"/>
</svg>
