<svg width="12" height="12" viewBox="0 0 12 12" fill="none" xmlns="http://www.w3.org/2000/svg">
<path d="M8.83301 11V11.167H1.16699C0.994845 11.167 0.857699 11.1133 0.731445 11H8.83301ZM0.666992 2.83301V10.9355C0.584729 10.8438 0.532821 10.7471 0.511719 10.6338L0.5 10.499V2.83301H0.666992ZM10.9355 8.66699C10.8096 8.78016 10.673 8.83314 10.501 8.83301H3.5C3.32809 8.83301 3.19154 8.77992 3.06543 8.66699H10.9355ZM11 0.730469C11.1141 0.857297 11.1672 0.994539 11.167 1.16602V8.16699C11.1669 8.33893 11.1133 8.47598 11 8.60254V0.730469ZM3 8.60156C2.88717 8.47545 2.83322 8.33852 2.83301 8.16602V1.16699C2.83301 0.995067 2.88647 0.857754 3 0.731445V8.60156ZM10.5 0.5C10.6719 0.5 10.8089 0.553374 10.9355 0.666992H3.06445C3.15681 0.584286 3.25403 0.532762 3.36719 0.511719L3.50098 0.5H10.5Z" stroke="#F7F9FA"/>
</svg>
