<?xml version="1.0" encoding="utf-8"?>
<!-- Generator: Adobe Illustrator 26.0.1, SVG Export Plug-In . SVG Version: 6.00 Build 0)  -->
<svg version="1.1" id="Layer_1" xmlns="http://www.w3.org/2000/svg" xmlns:xlink="http://www.w3.org/1999/xlink" x="0px" y="0px"
	 viewBox="0 0 12 12" style="enable-background:new 0 0 12 12;" xml:space="preserve">
<style type="text/css">
	.st0{fill:#F6F8F9;}
	.st1{fill:#F9FCFF;}
</style>
<g>
	<g>
		<path class="st0" d="M1.74,11.85L0.99,11l-0.83-0.75h0.52l0-7.45h1.06v7.45h7.45v1.06H1.74V11.85z M3.87,9.72L3.12,8.87L2.28,8.13
			h0.52c0,0,0,0,0,0V1.74H2.28l0.84-0.75l0.75-0.83v0.52l6.38,0V0.16l0.75,0.83l0.84,0.75h-0.53v6.38h0.53l-0.84,0.75l-0.75,0.84
			V9.19H3.87V9.72z M3.87,8.13h6.38V1.74H3.87V8.13z"/>
	</g>
	<g>
		<g>
			<path class="st1" d="M6.32,5.88L5.91,7.27H4.98l1.58-4.92H7.7l1.6,4.92H8.33L7.89,5.88H6.32z M7.74,5.2L7.35,3.99
				C7.26,3.68,7.17,3.35,7.1,3.07H7.08C7.01,3.35,6.94,3.69,6.85,3.99L6.47,5.2H7.74z"/>
		</g>
	</g>
</g>
</svg>
