<svg width="32" height="20" viewBox="0 0 32 20" fill="none" xmlns="http://www.w3.org/2000/svg">
<path d="M10.2266 7.52167L10.9092 8.43952L14.4743 5.78806C14.4893 5.77688 14.4924 5.75563 14.4813 5.74059L13.8595 4.90456C13.8372 4.87453 13.7943 4.86824 13.7643 4.89057L10.2266 7.52167Z" fill="black"/>
<path d="M10.1016 7.29498L11.0903 8.62445L13.485 6.84348C13.4923 6.83802 13.4938 6.82763 13.4884 6.82029L12.5194 5.51743C12.514 5.51008 12.5036 5.50856 12.4962 5.51402L10.1016 7.29498Z" fill="#D4D4D6"/>
<path d="M10.1354 12.9351C10.2211 12.9206 10.4661 12.8636 10.5535 12.8582C11.1767 12.8199 11.6997 13.4227 11.9643 13.5233C12.1386 13.5897 13.6266 13.0749 13.6588 13.1169C13.8916 13.4193 13.9706 13.9203 14.1515 14.2492C14.1701 14.283 12.6259 14.8447 11.6949 14.586C11.3333 14.4855 11.1053 14.1037 10.7527 13.9783C10.4392 13.8668 10.1078 14.0263 9.79881 14.1294C9.64441 14.181 9.07251 14.1686 9.05078 14.0197C9.05078 14.0197 9.58487 13.0278 10.1354 12.9351Z" fill="#86BCD4"/>
<path d="M19.5157 7.70215C18.0741 9.05757 19.9486 9.62539 16.8792 11.8808C16.5466 12.1252 12.4053 13.14 12.1777 13.2965C12.1777 13.2965 12.5157 14.578 12.9538 14.9043C13.122 15.0295 18.0388 14.2752 18.3454 14.0696C18.6933 13.8362 18.773 13.5452 19.0051 13.1965C19.7629 12.0581 20.1751 10.9776 20.0612 9.61485C20.0141 9.05075 19.5472 8.98678 19.088 8.65586L19.5157 7.70215Z" fill="#AF4B08"/>
<path d="M12.6671 13.2173C12.6783 13.2999 12.7076 13.381 12.7343 13.4595C12.7771 13.5849 12.8251 13.7084 12.8754 13.8309C12.9816 14.0891 13.0946 14.3483 13.237 14.589C13.288 14.675 13.3438 14.7693 13.4267 14.8283C13.5086 14.8865 13.5865 14.7514 13.5054 14.6937C13.4952 14.6865 13.515 14.7029 13.5018 14.6903C13.4963 14.6851 13.4909 14.6799 13.4857 14.6745C13.4773 14.6657 13.4591 14.6437 13.4582 14.6425C13.4296 14.6054 13.4046 14.5652 13.3804 14.5251C13.3154 14.4171 13.2583 14.3042 13.2039 14.1906C13.0877 13.9483 12.9827 13.6996 12.8942 13.4459C12.8637 13.3586 12.8299 13.2679 12.8174 13.1758C12.8117 13.1338 12.7583 13.1117 12.7216 13.1214C12.6764 13.1333 12.6615 13.1758 12.6671 13.2173Z" fill="black"/>
<path d="M20.1745 6.14307C20.1745 6.14307 18.3473 6.60822 18.0141 7.36177C17.681 8.11533 18.0965 9.08801 18.0965 9.08801C18.0965 9.08801 19.9597 8.44429 19.9834 8.41531C20.0071 8.38634 20.4033 6.6889 20.4033 6.6889L20.1745 6.14307Z" fill="#86BCD4"/>
<path d="M8.65755 11.2959L9.49601 11.6274C9.51768 11.6359 9.54219 11.6253 9.55076 11.6036L10.21 9.93624L9.29303 9.57373L8.63382 11.2411C8.62526 11.2628 8.63588 11.2873 8.65755 11.2959Z" fill="black"/>
<path d="M10.5441 7.15698C11.2665 7.15698 11.8059 7.79047 12.4424 7.99086C6.89361 7.99086 7.12084 14.0695 7.12084 14.0695V19.662H3.68359V14.0695C3.68359 11.4695 5.30889 7.15698 10.5441 7.15698Z" fill="#D4D4D6"/>
<path d="M3.22266 19.3428H13.3467V18.5415C13.3467 18.4649 13.2847 18.4028 13.2081 18.4028H3.32978C3.27062 18.4028 3.22266 18.4508 3.22266 18.51V19.3428H3.22266Z" fill="#D4D4D6"/>
<path d="M3.6498 18.4028H12.1055V17.5782H3.6498V18.4028Z" fill="#D4D4D6"/>
<path d="M6.44531 15.0478H12.6968C12.7076 15.0478 12.7164 15.039 12.7164 15.0281V14.0892C12.7164 14.0784 12.7076 14.0696 12.6968 14.0696H6.44531V15.0478Z" fill="black"/>
<path d="M8.89648 17.5782H11.3902V16.6672C11.3902 16.6049 11.3397 16.5544 11.2775 16.5544H9.00923C8.94697 16.5544 8.89649 16.6049 8.89649 16.6672L8.89648 17.5782Z" fill="#D4D4D6"/>
<path d="M8.56944 10.0605H12.5391V7.99225H8.56944V10.0605Z" fill="#D4D4D6"/>
<path d="M12.5431 7.57642H8.56836V8.42488H12.5431V7.57642Z" fill="#D4D4D6"/>
<path d="M9.86726 5.4502H12.5431V7.57651H8.56836L9.86726 5.4502Z" fill="#D4D4D6"/>
<path d="M4.81446 14.5791C4.81856 14.9536 5.05104 15.2881 5.40241 15.4193C5.75135 15.5497 6.163 15.4369 6.39812 15.1487C6.63387 14.8597 6.67015 14.445 6.47837 14.1228C6.28573 13.7991 5.90533 13.6323 5.53663 13.7015C5.11872 13.78 4.81906 14.159 4.81446 14.5791C4.81336 14.6794 4.96919 14.6795 4.97028 14.5791C4.97361 14.2751 5.16234 13.9905 5.45192 13.8861C5.74578 13.7802 6.07552 13.868 6.27711 14.1067C6.47661 14.3429 6.5012 14.6924 6.34382 14.9568C6.18712 15.2201 5.87124 15.3649 5.56938 15.3048C5.22283 15.2358 4.97413 14.9311 4.97028 14.5791C4.96919 14.4789 4.81336 14.4786 4.81446 14.5791Z" fill="black"/>
<path d="M5.70914 15.0599C5.97458 15.0599 6.18976 14.8447 6.18976 14.5793C6.18976 14.3138 5.97458 14.0986 5.70914 14.0986C5.4437 14.0986 5.22852 14.3138 5.22852 14.5793C5.22852 14.8447 5.4437 15.0599 5.70914 15.0599Z" fill="black"/>
<path d="M10.447 12.4365H11.5306C11.5574 12.4365 11.5791 12.4148 11.5791 12.3879V10.6013H10.3984V12.3879C10.3984 12.4148 10.4202 12.4365 10.447 12.4365Z" fill="black"/>
<path d="M8.41315 10.6083H12.6964C12.7078 10.6083 12.717 10.5991 12.717 10.5877V9.95978C12.717 9.94842 12.7078 9.93921 12.6964 9.93921H8.41315C8.40179 9.93921 8.39258 9.94842 8.39258 9.95978V10.5877C8.39258 10.5991 8.40179 10.6083 8.41315 10.6083Z" fill="#86BCD4"/>
<path d="M12.4653 5.45026C12.4653 6.15557 12.466 6.86088 12.466 7.56619C12.492 7.54022 12.518 7.51425 12.544 7.48828C12.1016 7.48556 11.6592 7.48285 11.2168 7.48013C10.5177 7.47584 9.81865 7.47154 9.11959 7.46725C8.95964 7.46626 8.79969 7.46528 8.63975 7.46429C8.66218 7.50338 8.6846 7.54245 8.70702 7.58153C8.76754 7.47187 8.82807 7.36221 8.88859 7.25255C8.93708 7.16469 8.80256 7.08599 8.75404 7.1739C8.69352 7.28356 8.63299 7.39321 8.57247 7.50288C8.54398 7.55449 8.5797 7.61974 8.63974 7.62011C9.08214 7.62283 9.52454 7.62554 9.96693 7.62826C10.666 7.63256 11.3651 7.63685 12.0641 7.64115C12.2241 7.64213 12.384 7.64311 12.544 7.6441C12.5861 7.64436 12.6219 7.60819 12.6219 7.56619C12.6219 6.86088 12.6211 6.15557 12.6211 5.45026C12.6211 5.35 12.4653 5.34983 12.4653 5.45026Z" fill="black"/>
<path d="M12.5301 9.88672C11.4853 9.88672 10.4406 9.88672 9.39582 9.88672C9.09105 9.88672 8.78629 9.88672 8.48151 9.88672C8.38124 9.88672 8.38108 10.0425 8.48151 10.0425C9.52627 10.0425 10.571 10.0425 11.6158 10.0425C11.9206 10.0425 12.2253 10.0425 12.5301 10.0425C12.6304 10.0425 12.6305 9.88672 12.5301 9.88672Z" fill="black"/>
<path d="M8.7359 9.93925C8.7359 9.48229 8.7359 9.02534 8.7359 8.56838C8.7359 8.52061 8.7359 8.47284 8.7359 8.42508C8.70993 8.45105 8.68396 8.47702 8.65799 8.50299C9.09484 8.50299 9.5317 8.50299 9.96856 8.50299C10.6672 8.50299 11.3658 8.50299 12.0644 8.50299C12.224 8.50299 12.3837 8.50299 12.5433 8.50299C12.5854 8.50299 12.6212 8.46729 12.6212 8.42508C12.6212 8.1388 12.6212 7.85251 12.6212 7.56623C12.6212 7.46596 12.4654 7.4658 12.4654 7.56623C12.4654 7.85251 12.4654 8.1388 12.4654 8.42508C12.4914 8.39911 12.5174 8.37314 12.5433 8.34717C12.1065 8.34717 11.6696 8.34717 11.2328 8.34717C10.5341 8.34717 9.83553 8.34717 9.13691 8.34717C8.97727 8.34717 8.81763 8.34717 8.65799 8.34717C8.61587 8.34717 8.58008 8.38287 8.58008 8.42508C8.58008 8.81296 8.58008 9.20083 8.58008 9.5887C8.58008 9.70556 8.58008 9.8224 8.58008 9.93925C8.58008 10.0395 8.7359 10.0397 8.7359 9.93925Z" fill="black"/>
<path d="M8.7359 8.42489C8.7359 8.16708 8.7359 7.90926 8.7359 7.65145C8.7359 7.61499 8.7359 7.57852 8.7359 7.54206C8.7359 7.44179 8.58008 7.44163 8.58008 7.54206C8.58008 7.79987 8.58008 8.05769 8.58008 8.31551C8.58008 8.35197 8.58008 8.38843 8.58008 8.42489C8.58008 8.52516 8.7359 8.52532 8.7359 8.42489Z" fill="black"/>
<path d="M12.1176 18.282C11.017 18.282 9.91637 18.282 8.81578 18.282C7.71519 18.282 6.6146 18.282 5.51401 18.282C4.8925 18.282 4.27099 18.282 3.64948 18.282C3.54921 18.282 3.54905 18.4378 3.64948 18.4378C4.75007 18.4378 5.85066 18.4378 6.95125 18.4378C8.05184 18.4378 9.15243 18.4378 10.253 18.4378C10.8745 18.4378 11.496 18.4378 12.1176 18.4378C12.2178 18.4378 12.218 18.282 12.1176 18.282Z" fill="black"/>
<path d="M7.04879 17.4534C6.18174 17.4534 5.3147 17.4534 4.44766 17.4534C4.20178 17.4534 3.9559 17.4534 3.71003 17.4534C3.60976 17.4534 3.6096 17.6092 3.71003 17.6092C4.57707 17.6092 5.44411 17.6092 6.31115 17.6092C6.55703 17.6092 6.80291 17.6092 7.04879 17.6092C7.14905 17.6092 7.14922 17.4534 7.04879 17.4534Z" fill="black"/>
<path d="M7.04102 14.138C7.04102 14.4322 7.04102 14.7264 7.04102 15.0206C7.04102 15.1209 7.19684 15.121 7.19684 15.0206C7.19684 14.7264 7.19684 14.4322 7.19684 14.138C7.19684 14.0377 7.04102 14.0376 7.04102 14.138Z" fill="black"/>
<path d="M11.3406 17.4534C10.5399 17.4534 9.73922 17.4534 8.93854 17.4534C8.83827 17.4534 8.83811 17.6092 8.93854 17.6092C9.73922 17.6092 10.5399 17.6092 11.3406 17.6092C11.4408 17.6092 11.441 17.4534 11.3406 17.4534Z" fill="black"/>
<path d="M17.271 19.558C17.2663 19.6765 17.2622 19.7897 17.2596 19.8962L25.8224 20.0001C25.8152 19.8946 25.8064 19.7814 25.797 19.6619C25.7882 19.5544 25.4542 19.7664 25.4438 19.6484C25.236 17.2939 24.468 11.893 24.0426 10.0605C23.4551 7.52735 21.5302 7.32277 21.1567 6.96593C21.1562 6.96593 20.2628 6.69843 20.2789 7.02098C20.3262 7.96943 19.8888 8.39119 18.3909 9.27524C18.3488 9.29965 17.9478 9.30588 17.9249 9.3064C17.5188 9.31524 18.0143 8.01619 17.9821 7.78297C17.9821 7.78297 17.0127 10.8238 17.0926 13.4619C17.1181 14.3065 17.3707 17.5557 17.2866 19.2199C17.2809 19.3368 17.2757 19.4495 17.271 19.558Z" fill="#AF4B08"/>
<path d="M5.1504 14.5792C5.15361 14.8129 5.29719 15.0199 5.5159 15.1031C5.73239 15.1854 5.99074 15.1159 6.13734 14.9369C6.28559 14.7559 6.3101 14.4962 6.18907 14.2937C6.06825 14.0915 5.83266 13.9897 5.60255 14.0311C5.34061 14.0782 5.15399 14.3175 5.1504 14.5792C5.14902 14.6795 5.30484 14.6795 5.30622 14.5792C5.30851 14.4129 5.41072 14.2583 5.56929 14.2011C5.73117 14.1428 5.91463 14.1928 6.02321 14.3267C6.12828 14.4563 6.13971 14.6435 6.05452 14.786C5.96985 14.9277 5.80054 15.0061 5.63756 14.9759C5.44589 14.9403 5.30888 14.7728 5.30622 14.5792C5.30485 14.479 5.14902 14.4787 5.1504 14.5792Z" fill="black"/>
<path d="M18.0139 7.36157C18.0139 7.36157 17.5397 8.20048 17.4827 8.60128C17.4744 8.65985 17.4203 8.80815 17.5243 9.08782C17.5243 9.08782 17.1168 8.95779 17.1192 9.89982C17.1221 11.069 17.3516 12.353 17.3516 12.353L18.0527 8.81548L18.1399 8.57136C18.1399 8.57135 17.9474 8.9989 18.0139 7.36157Z" fill="#AF4B08"/>
<path d="M17.3547 13.7548C17.2974 13.955 17.3126 14.1821 17.32 14.3874C17.3328 14.7395 17.3647 15.0909 17.3972 15.4416C17.4832 16.3719 17.5846 17.3007 17.6458 18.2331C17.6808 18.7665 17.704 19.3012 17.6983 19.8359C17.6972 19.9362 17.853 19.9363 17.8541 19.8359C17.8644 18.8742 17.7867 17.9128 17.6983 16.9559C17.6235 16.1458 17.5236 15.3359 17.4819 14.5231C17.4743 14.3753 17.4689 14.227 17.4728 14.0789C17.4757 13.9701 17.478 13.8908 17.505 13.7963C17.5326 13.6997 17.3823 13.6584 17.3547 13.7548Z" fill="black"/>
<path d="M21.7776 15.4656C21.7956 16.3415 21.3234 17.1125 20.8457 17.81C20.7889 17.8929 20.9239 17.971 20.9803 17.8886C21.4738 17.1681 21.952 16.3696 21.9335 15.4656C21.9314 15.3655 21.7756 15.3651 21.7776 15.4656Z" fill="black"/>
<path d="M17.8948 8.83707C18.4628 8.80249 18.9941 8.51516 19.4153 8.13995C19.8367 7.76427 20.1631 7.30353 20.4856 6.84707C20.5171 6.80268 20.5497 6.75477 20.552 6.70166C20.5547 6.6296 20.5019 6.56944 20.4537 6.51569C19.6153 5.5815 19.4134 4.5225 19.586 3.28296C19.586 3.28296 18.9047 4.18707 18.28 5.02774C17.9595 5.45846 17.654 5.87278 17.463 6.13976C17.3848 6.24861 17.3069 6.36462 17.2932 6.49491C17.2688 6.73097 17.4563 6.9258 17.5985 7.11577C17.6777 7.22183 17.7448 7.3359 17.7996 7.45565C17.9959 7.88337 18.0342 8.38137 17.8948 8.83707Z" fill="#F4B4A8"/>
<path d="M20.3531 6.31784C20.3531 6.31784 19.6939 7.33676 19.1431 8.10502C18.887 8.46214 18.4512 9.72088 18.4512 9.72088C18.4512 9.72088 20.1994 10.1304 21.3183 7.10806C21.3798 6.9421 20.6913 6.19463 20.3531 6.31784Z" fill="#AF4B08"/>
<path d="M19.1433 8.10498L17.4704 12.7969L17.4668 12.5646L17.798 9.14344L18.0269 8.65123C18.0269 8.65123 18.4433 9.08264 19.1433 8.10498Z" fill="white"/>
<path d="M5.17746 16.1546C5.40832 16.3469 5.87829 16.6488 6.16909 16.6658C7.36892 16.7358 7.97605 16.44 8.28599 16.3582C8.60289 16.2747 11.3555 17.0167 11.8081 16.6096C12.0085 16.4293 11.8777 15.4087 11.7427 15.1819C11.6839 15.083 8.36917 15.0351 8.2352 15.029C8.1157 15.0235 7.92215 14.8104 7.80785 14.778C7.69647 14.7465 7.33451 14.7381 7.13343 14.6369C6.94651 14.5429 6.44098 14.1866 6.28976 14.412C6.19369 14.5553 6.83412 14.7771 6.76506 15.0486C6.74218 15.1386 6.62661 15.1886 6.54695 15.2068C6.01516 15.3283 5.63836 14.8161 5.49496 14.3765C5.47352 14.3108 5.40089 14.301 5.34778 14.3297C5.22927 14.3935 5.16239 14.5132 5.14119 14.6417C5.12354 14.6427 5.10556 14.6474 5.0888 14.6566C4.93975 14.7386 4.84441 14.9553 5.03969 15.3399C5.00428 15.3619 4.97435 15.3926 4.95524 15.4329C4.91136 15.5253 4.93618 15.6265 4.99665 15.6984C4.98102 15.7282 4.97198 15.762 4.97203 15.7974C4.97227 15.9364 5.07548 16.0697 5.17746 16.1546Z" fill="#86BCD4"/>
<path d="M17.5467 12.8177C17.8469 11.8508 18.2159 10.9026 18.5805 9.9586C18.6902 9.67464 18.8013 9.39122 18.9144 9.1086C18.9516 9.0155 18.801 8.97506 18.7641 9.06717C18.359 10.0797 17.9701 11.1001 17.6116 12.1301C17.537 12.3445 17.4638 12.5594 17.3965 12.7762C17.3667 12.8722 17.517 12.9133 17.5467 12.8177Z" fill="black"/>
<path d="M21.265 7.05314C20.8656 7.47243 20.584 7.9646 20.3616 8.49572C20.2876 8.67239 20.2214 8.8538 20.1326 9.02379C20.1202 9.04741 20.0874 9.08611 20.0823 9.11007C20.0848 9.09817 20.0964 9.10984 20.0927 9.10588C20.0868 9.0995 20.0604 9.09244 20.0503 9.08627C19.9758 9.04102 19.9141 8.97716 19.8374 8.93512C19.7145 8.86771 19.5642 8.8823 19.5132 9.02588C19.4756 9.13172 19.4869 9.25761 19.4882 9.36779C19.4935 9.81175 19.4493 10.2411 19.2805 10.6564C19.1514 10.9742 18.9538 11.2518 18.765 11.5356C18.6095 11.7693 18.4404 11.9869 18.2515 12.1947C18.1842 12.2688 18.2941 12.3793 18.3617 12.3049C18.5325 12.1169 18.6919 11.9212 18.8346 11.711C18.9972 11.4716 19.1691 11.2332 19.3028 10.9762C19.5326 10.5348 19.6403 10.0537 19.645 9.55785C19.6463 9.41872 19.6364 9.27836 19.6478 9.13952C19.6503 9.10913 19.658 9.07194 19.6738 9.05088C19.6627 9.0657 19.6795 9.0526 19.6723 9.05345C19.6644 9.05435 19.6816 9.05002 19.6794 9.05036C19.707 9.04614 19.732 9.05494 19.7588 9.06968C19.8741 9.13322 20.0524 9.3541 20.1925 9.22026C20.2468 9.16837 20.2793 9.08102 20.3105 9.01414C20.3525 8.92424 20.3902 8.83237 20.4279 8.74063C20.5291 8.4945 20.6316 8.24927 20.7583 8.01488C20.926 7.7046 21.1319 7.41875 21.3752 7.16332C21.4444 7.09072 21.3344 6.98036 21.265 7.05314Z" fill="black"/>
<path d="M17.4879 12.8908C17.3509 12.4457 17.2809 11.9742 17.23 11.5124C17.1676 10.9456 17.1332 10.3549 17.2283 9.78973C17.251 9.65499 17.2819 9.52108 17.3275 9.39216C17.3457 9.34086 17.3598 9.2766 17.4111 9.24987C17.436 9.23689 17.4637 9.22953 17.4911 9.22365C17.5021 9.22128 17.5131 9.21934 17.5242 9.2176C17.5147 9.21909 17.5167 9.21852 17.5241 9.21785C17.5887 9.21204 17.6302 9.1356 17.5792 9.08485C17.5771 9.08278 17.575 9.08065 17.5732 9.07837C17.5614 9.06387 17.572 9.07809 17.5661 9.06938C17.5489 9.0443 17.5341 9.01784 17.5235 8.98933C17.4818 8.87775 17.4965 8.75928 17.5317 8.64815C17.562 8.55233 17.4116 8.51132 17.3814 8.60673C17.3221 8.794 17.3185 9.04518 17.469 9.19503C17.4874 9.15069 17.5057 9.10637 17.5241 9.06203C17.4212 9.07127 17.296 9.10545 17.2395 9.19984C17.1792 9.30057 17.1478 9.43104 17.12 9.544C17.0514 9.82208 17.0268 10.1113 17.0198 10.397C17.0047 11.0043 17.0687 11.6159 17.1742 12.2134C17.2169 12.455 17.2654 12.6975 17.3377 12.9322C17.3671 13.0278 17.5175 12.987 17.4879 12.8908Z" fill="black"/>
<path d="M17.8853 8.59111C17.8111 8.76963 17.7805 8.97078 17.7456 9.15965C17.686 9.4816 17.6394 9.80596 17.5969 10.1306C17.4909 10.9391 17.4133 11.7527 17.3713 12.5671C17.3505 12.9693 17.3377 13.3727 17.3514 13.7753C17.3548 13.8753 17.5107 13.8758 17.5072 13.7753C17.4813 13.0175 17.5362 12.2553 17.6031 11.5009C17.6685 10.7632 17.7502 10.0242 17.8789 9.29455C17.9176 9.07548 17.9496 8.83947 18.0356 8.63254C18.074 8.54004 17.9233 8.4997 17.8853 8.59111Z" fill="black"/>
<path d="M21.3873 9.0264C20.6133 9.77508 17.2615 14.21 16.2172 14.9124C15.8069 15.1883 9.05555 14.891 9.05555 14.891C9.05555 14.891 8.83797 16.367 9.08415 16.8616C9.1526 16.9991 14.3793 17.766 16.4832 17.5783C20.1293 17.2529 22.8797 12.4549 23.2134 11.2966C23.4622 10.433 22.1613 8.27772 21.3873 9.0264Z" fill="#AF4B08"/>
<path d="M20.1939 10.3958C19.2803 11.4965 18.3726 12.6042 17.4182 13.6701C17.2237 13.8874 17.0268 14.1028 16.8232 14.3116C16.7532 14.3835 16.8632 14.4938 16.9334 14.4218C17.3325 14.0123 17.7094 13.581 18.0832 13.1485C18.5559 12.6016 19.0206 12.0478 19.4836 11.4928C19.7576 11.1643 20.0309 10.8351 20.3041 10.506C20.3677 10.4294 20.258 10.3186 20.1939 10.3958Z" fill="black"/>
<path d="M22.8443 12.8473C22.6467 13.1673 22.3964 13.4559 22.1459 13.7349C21.7936 14.1273 21.4203 14.5008 21.0352 14.8608C20.6085 15.2597 20.1658 15.6421 19.7051 16.0013C19.2789 16.3336 18.8354 16.6482 18.3657 16.9165C18.0054 17.1222 17.6167 17.3176 17.2039 17.3888C17.1632 17.3958 17.1349 17.3994 17.0942 17.4031C16.9951 17.4121 16.9942 17.568 17.0942 17.559C17.5051 17.5217 17.897 17.3452 18.2574 17.1541C18.7319 16.9023 19.1771 16.5961 19.6053 16.2728C20.079 15.915 20.5336 15.532 20.9718 15.1315C21.3773 14.7608 21.7699 14.3752 22.1419 13.9707C22.4184 13.67 22.6916 13.3589 22.9191 13.0188C22.9396 12.9882 22.9595 12.9573 22.9788 12.926C23.0317 12.8404 22.8969 12.7621 22.8443 12.8473Z" fill="black"/>
<path d="M9.63654 14.8389C9.57392 14.8824 9.56488 14.974 9.55439 15.0434C9.53416 15.1773 9.52411 15.3126 9.51668 15.4477C9.4974 15.7979 9.49612 16.1506 9.51841 16.5007C9.52914 16.6693 9.54429 16.8396 9.58099 17.0047C9.60274 17.1026 9.753 17.0612 9.73125 16.9633C9.66643 16.6717 9.66209 16.3637 9.65924 16.0662C9.65633 15.7615 9.66181 15.4539 9.69617 15.1508C9.70157 15.1032 9.70686 15.0612 9.71772 15.0115C9.72143 14.9945 9.72605 14.978 9.73109 14.9614C9.73436 14.9506 9.72183 14.9659 9.73182 14.9595C9.74328 14.9521 9.71767 14.9717 9.71519 14.9734C9.79697 14.9166 9.71916 14.7815 9.63654 14.8389Z" fill="black"/>
<path d="M5.08234 14.6507C5.11943 15.1061 5.45147 15.5091 5.86211 15.6915C5.90054 15.7086 5.94582 15.7027 5.96871 15.6636C5.98813 15.6304 5.97941 15.5742 5.94075 15.557C5.58336 15.3982 5.27092 15.0528 5.23816 14.6507C5.23008 14.5514 5.07419 14.5506 5.08234 14.6507Z" fill="black"/>
<path d="M5.03828 15.4278C5.20263 15.6724 5.41707 15.8796 5.6682 16.0341C5.75385 16.0868 5.83221 15.952 5.74685 15.8995C5.51902 15.7594 5.32205 15.5712 5.17283 15.3491C5.14939 15.3142 5.10417 15.299 5.06623 15.3212C5.03161 15.3414 5.01472 15.3927 5.03828 15.4278Z" fill="black"/>
<path d="M4.97748 15.8081C5.04908 15.9209 5.16104 16.0075 5.26613 16.0872C5.3676 16.1641 5.47461 16.2376 5.58849 16.2951C5.62603 16.3141 5.67293 16.305 5.69508 16.2672C5.71535 16.2325 5.70484 16.1796 5.66713 16.1606C5.55811 16.1055 5.45557 16.0356 5.35796 15.9626C5.34468 15.9526 5.33484 15.9451 5.32796 15.9397C5.31416 15.9287 5.30039 15.9178 5.2868 15.9066C5.26181 15.8859 5.23729 15.8647 5.21355 15.8427C5.19134 15.822 5.16975 15.8007 5.14951 15.7781C5.14121 15.7688 5.13327 15.7593 5.12544 15.7496C5.13734 15.7643 5.12632 15.7508 5.12384 15.7471C5.11986 15.7412 5.11583 15.7354 5.11203 15.7294C5.0895 15.694 5.04268 15.6797 5.00543 15.7015C4.97006 15.7222 4.95485 15.7724 4.97748 15.8081Z" fill="black"/>
<path d="M10.5105 13.3712C10.3228 13.3079 10.1723 13.4653 10.0466 13.5791C9.90455 13.7076 9.76251 13.8361 9.62046 13.9646C9.54594 14.0321 9.65641 14.142 9.73065 14.0748C9.85691 13.9606 9.98317 13.8463 10.1094 13.7321C10.1691 13.6781 10.2268 13.6196 10.2905 13.5705C10.3425 13.5304 10.4033 13.4993 10.469 13.5215C10.5643 13.5537 10.6051 13.4032 10.5105 13.3712Z" fill="black"/>
<path d="M10.252 13.0369C10.0856 13.0905 9.96221 13.2109 9.84681 13.3371C9.77946 13.4108 9.70439 13.477 9.63 13.5434C9.4569 13.698 9.26831 13.8431 9.1111 14.0143C9.04336 14.0881 9.15326 14.1985 9.22128 14.1245C9.37248 13.9599 9.55339 13.8198 9.72013 13.6715C9.79343 13.6063 9.86834 13.5416 9.93585 13.4703C10.0409 13.3593 10.1428 13.2357 10.2934 13.1871C10.3885 13.1565 10.3478 13.006 10.252 13.0369Z" fill="black"/>
<path d="M16.1613 14.8994C16.3832 15.0729 16.5127 15.3422 16.504 15.6243C16.5009 15.7247 16.6568 15.7246 16.6599 15.6243C16.6696 15.3057 16.5231 14.986 16.2715 14.7892C16.2384 14.7633 16.1936 14.7569 16.1613 14.7892C16.1344 14.8162 16.128 14.8733 16.1613 14.8994Z" fill="black"/>
<path d="M13.5598 4.98304L14.3277 6.01563C14.333 6.02269 14.343 6.02416 14.35 6.0189L14.62 5.81813C14.627 5.81288 14.6285 5.8029 14.6233 5.79585L13.8553 4.76326C13.8501 4.7562 13.8401 4.75474 13.833 4.75998L13.5631 4.96076C13.556 4.96601 13.5545 4.97598 13.5598 4.98304Z" fill="#86BCD4"/>
<path d="M31.3514 19.3237H0V20H31.3514V19.3237Z" fill="#86BCD4"/>
<path d="M17.5948 19.3619C18.5903 19.3619 19.5857 19.3619 20.5812 19.3619C21.5766 19.3619 22.5721 19.3619 23.5676 19.3619C24.1302 19.3619 24.6929 19.3619 25.2555 19.3619C25.3558 19.3619 25.356 19.2061 25.2555 19.2061C24.2601 19.2061 23.2646 19.2061 22.2691 19.2061C21.2737 19.2061 20.2782 19.2061 19.2828 19.2061C18.7201 19.2061 18.1574 19.2061 17.5948 19.2061C17.4945 19.2061 17.4944 19.3619 17.5948 19.3619Z" fill="black"/>
<path d="M27.1805 18.1705C27.4819 18.1705 27.7262 18.0963 27.7262 18.0047C27.7262 17.9131 27.4819 17.8389 27.1805 17.8389C26.8791 17.8389 26.6348 17.9131 26.6348 18.0047C26.6348 18.0963 26.8791 18.1705 27.1805 18.1705Z" fill="#86BCD4"/>
<path d="M26.6348 14.0945V18.0047C26.6348 18.0843 26.6518 18.1599 26.6824 18.2281C26.7678 18.4181 26.9587 18.5504 27.1805 18.5504C27.4819 18.5504 27.7262 18.3061 27.7262 18.0047V14.0945H26.6348Z" fill="#D4D4D6"/>
<path d="M27.9317 14.0931V14.2432C27.9317 14.3048 27.89 14.3548 27.8385 14.3548H26.5229C26.4714 14.3548 26.4297 14.3048 26.4297 14.2432V14.0931C26.4297 14.0314 26.4714 13.9814 26.5229 13.9814H27.8385C27.89 13.9814 27.9317 14.0314 27.9317 14.0931Z" fill="#D4D4D6"/>
<path d="M26.7695 15.8899V17.9478C26.7695 18.0078 26.7824 18.0648 26.8055 18.1163C26.8699 18.2596 27.0139 18.3594 27.1812 18.3594C27.4086 18.3594 27.5929 18.1751 27.5929 17.9478V15.8899H26.7695Z" fill="#AF4B08"/>
<path d="M26.834 14.7772C26.834 14.9113 26.834 15.0454 26.834 15.1796C26.834 15.2203 26.8698 15.2594 26.9119 15.2575C26.9541 15.2556 26.9898 15.2232 26.9898 15.1796C26.9898 15.0454 26.9898 14.9113 26.9898 14.7772C26.9898 14.7364 26.954 14.6974 26.9119 14.6993C26.8697 14.7012 26.834 14.7335 26.834 14.7772Z" fill="white"/>
<path d="M27.7067 14.3232C27.3576 14.3232 27.0084 14.3232 26.6592 14.3232C26.559 14.3232 26.5588 14.4791 26.6592 14.4791C27.0084 14.4791 27.3575 14.4791 27.7067 14.4791C27.807 14.4791 27.8071 14.3232 27.7067 14.3232Z" fill="black"/>
<path d="M25.2157 18.1705C25.5171 18.1705 25.7614 18.0963 25.7614 18.0047C25.7614 17.9131 25.5171 17.8389 25.2157 17.8389C24.9143 17.8389 24.6699 17.9131 24.6699 18.0047C24.6699 18.0963 24.9143 18.1705 25.2157 18.1705Z" fill="#86BCD4"/>
<path d="M24.6699 14.0945V18.0047C24.6699 18.0843 24.687 18.1599 24.7176 18.2281C24.8029 18.4181 24.9939 18.5504 25.2157 18.5504C25.5171 18.5504 25.7614 18.3061 25.7614 18.0047V14.0945H24.6699Z" fill="#D4D4D6"/>
<path d="M25.9668 14.0931V14.2432C25.9668 14.3048 25.9251 14.3548 25.8737 14.3548H24.558C24.5066 14.3548 24.4648 14.3048 24.4648 14.2432V14.0931C24.4648 14.0314 24.5066 13.9814 24.558 13.9814H25.8737C25.9251 13.9814 25.9668 14.0314 25.9668 14.0931Z" fill="#D4D4D6"/>
<path d="M24.8047 17.0259V17.9477C24.8047 18.0078 24.8176 18.0648 24.8407 18.1163C24.905 18.2596 25.049 18.3594 25.2163 18.3594C25.4437 18.3594 25.628 18.1751 25.628 17.9477V17.0259H24.8047Z" fill="#EEA617"/>
<path d="M24.8691 14.8294C24.8691 14.9636 24.8691 15.0977 24.8691 15.2318C24.8691 15.2726 24.905 15.3116 24.947 15.3097C24.9893 15.3078 25.025 15.2755 25.025 15.2318C25.025 15.0977 25.025 14.9636 25.025 14.8294C25.025 14.7887 24.9891 14.7496 24.947 14.7515C24.9048 14.7534 24.8691 14.7858 24.8691 14.8294Z" fill="white"/>
<path d="M25.7419 14.3232C25.3927 14.3232 25.0436 14.3232 24.6944 14.3232C24.5941 14.3232 24.594 14.4791 24.6944 14.4791C25.0435 14.4791 25.3927 14.4791 25.7419 14.4791C25.8421 14.4791 25.8423 14.3232 25.7419 14.3232Z" fill="black"/>
<path d="M23.2528 18.1705C23.5542 18.1705 23.7985 18.0963 23.7985 18.0047C23.7985 17.9131 23.5542 17.8389 23.2528 17.8389C22.9514 17.8389 22.707 17.9131 22.707 18.0047C22.707 18.0963 22.9514 18.1705 23.2528 18.1705Z" fill="#86BCD4"/>
<path d="M22.707 14.0945V18.0047C22.707 18.0843 22.7241 18.1599 22.7547 18.2281C22.84 18.4181 23.031 18.5504 23.2528 18.5504C23.5542 18.5504 23.7985 18.3061 23.7985 18.0047V14.0945H22.707Z" fill="#D4D4D6"/>
<path d="M24.0039 14.0931V14.2432C24.0039 14.3048 23.9622 14.3548 23.9108 14.3548H22.5951C22.5437 14.3548 22.502 14.3048 22.502 14.2432V14.0931C22.502 14.0314 22.5437 13.9814 22.5951 13.9814H23.9108C23.9622 13.9814 24.0039 14.0314 24.0039 14.0931Z" fill="#D4D4D6"/>
<path d="M22.8418 14.7104V17.9477C22.8418 18.0078 22.8547 18.0648 22.8778 18.1163C22.9421 18.2596 23.0861 18.3594 23.2535 18.3594C23.4808 18.3594 23.6651 18.1751 23.6651 17.9477V14.7104H22.8418Z" fill="#ED6141"/>
<path d="M22.959 14.8294C22.959 14.9636 22.959 15.0977 22.959 15.2318C22.959 15.2726 22.9948 15.3116 23.0369 15.3097C23.0791 15.3078 23.1148 15.2755 23.1148 15.2318C23.1148 15.0977 23.1148 14.9636 23.1148 14.8294C23.1148 14.7887 23.079 14.7496 23.0369 14.7515C22.9947 14.7534 22.959 14.7858 22.959 14.8294Z" fill="white"/>
<path d="M23.779 14.3232C23.4298 14.3232 23.0807 14.3232 22.7315 14.3232C22.6312 14.3232 22.6311 14.4791 22.7315 14.4791C23.0807 14.4791 23.4298 14.4791 23.779 14.4791C23.8792 14.4791 23.8794 14.3232 23.779 14.3232Z" fill="black"/>
<path d="M21.4583 19.3621H28.9746V18.9329H21.4583V19.3621Z" fill="#345278"/>
<path d="M21.4583 15.668L28.9746 15.668V15.3875L21.4583 15.3875V15.668Z" fill="#345278"/>
<path d="M28.5358 19.1475H28.7656V15.5531H28.5358V19.1475Z" fill="#345278"/>
<path d="M21.6706 19.1475H21.9004V15.5531H21.6706V19.1475Z" fill="#345278"/>
<path d="M2.55216 16.367C2.85334 16.366 3.09728 16.3022 3.09702 16.2244C3.09676 16.1467 2.85238 16.0845 2.5512 16.0855C2.25002 16.0866 2.00607 16.1504 2.00634 16.2281C2.0066 16.3059 2.25097 16.368 2.55216 16.367Z" fill="#86BCD4"/>
<path d="M2.55907 18.0729C3.43261 18.07 4.14014 17.8848 4.13937 17.6594C4.1386 17.434 3.42984 17.2536 2.5563 17.2566C1.68275 17.2596 0.975231 17.4447 0.975997 17.6701C0.976764 17.8956 1.68553 18.0759 2.55907 18.0729Z" fill="#86BCD4"/>
<path d="M3.08677 13.2753L1.99609 13.2791L2.00612 16.2283L3.0968 16.2245L3.08677 13.2753Z" fill="#86BCD4"/>
<path d="M0.953135 17.7389C0.953809 17.9343 0.989349 18.1213 1.05388 18.2943C1.28203 18.9062 1.87274 19.341 2.56388 19.3386C3.45038 19.3355 4.16661 18.6144 4.16356 17.7279C4.1622 17.3345 4.01944 16.9747 3.7837 16.6964C3.488 16.3474 3.04601 16.1265 2.55282 16.1282C1.66632 16.1312 0.950085 16.8524 0.953135 17.7389Z" fill="#86BCD4"/>
<path d="M2.16016 15.2955C2.16032 15.3434 2.16049 15.3913 2.16065 15.4392C2.16072 15.4592 2.1693 15.4801 2.18347 15.4942C2.19699 15.5078 2.21916 15.5179 2.23857 15.5171C2.25872 15.5162 2.27962 15.5095 2.29367 15.4942C2.30763 15.479 2.31656 15.4602 2.31649 15.4392C2.31633 15.3913 2.31616 15.3434 2.316 15.2955C2.31593 15.2755 2.30735 15.2546 2.29318 15.2404C2.27966 15.2269 2.25749 15.2167 2.23808 15.2176C2.21793 15.2185 2.19703 15.2251 2.18299 15.2404C2.16901 15.2556 2.16008 15.2744 2.16016 15.2955Z" fill="white"/>
<path d="M2.31509 13.9956H2.79326C2.8387 13.9956 2.87704 13.9618 2.88276 13.9168L3.01139 12.9023C3.01823 12.8485 2.97622 12.8008 2.92189 12.8008H2.17617C2.12148 12.8008 2.07936 12.8491 2.08679 12.9032L2.22572 13.9177C2.23183 13.9623 2.27 13.9956 2.31509 13.9956Z" fill="#EEA617"/>
<path d="M2.15625 13.9627C2.15738 14.2903 2.15851 14.6179 2.15964 14.9455C2.15998 15.0457 2.31581 15.0459 2.31546 14.9455C2.31433 14.6179 2.31321 14.2903 2.31207 13.9627C2.31173 13.8625 2.15591 13.8623 2.15625 13.9627Z" fill="white"/>
<path d="M1.15039 17.6785C1.15089 17.8499 1.18215 18.0138 1.23874 18.1655C1.43874 18.7022 1.95688 19.0833 2.56287 19.0814C3.34024 19.0787 3.96839 18.4463 3.96575 17.6689C3.96558 17.6528 3.96525 17.6371 3.96459 17.6214C3.96442 17.6131 3.96409 17.605 3.96359 17.5969H1.15238V17.5971C1.15188 17.6082 1.15138 17.6193 1.15105 17.6305C1.15056 17.6464 1.15039 17.6624 1.15039 17.6785Z" fill="#ED6141"/>
<path d="M1.25432 17.9441C1.28479 18.1912 1.40257 18.4226 1.59412 18.5839C1.62628 18.611 1.67276 18.6155 1.7043 18.5839C1.73212 18.5561 1.73663 18.501 1.7043 18.4737C1.62081 18.4034 1.55671 18.326 1.50474 18.2313C1.45707 18.1443 1.42173 18.0381 1.41014 17.9441C1.40499 17.9024 1.37802 17.8662 1.33223 17.8662C1.29412 17.8662 1.24914 17.9021 1.25432 17.9441Z" fill="white"/>
<path d="M1.82116 13.4692H3.27061C3.28186 13.4692 3.29099 13.4601 3.29099 13.4488V13.2133C3.29099 13.202 3.28186 13.1929 3.27061 13.1929H1.82116C1.80991 13.1929 1.80078 13.202 1.80078 13.2133V13.4488C1.80078 13.4601 1.80991 13.4692 1.82116 13.4692Z" fill="#86BCD4"/>
<path d="M3.08434 13.3982C2.72519 13.3982 2.36605 13.3982 2.0069 13.3982C1.90663 13.3982 1.90647 13.554 2.0069 13.554C2.36604 13.554 2.72519 13.554 3.08434 13.554C3.1846 13.554 3.18477 13.3982 3.08434 13.3982Z" fill="black"/>
<path d="M18.7099 15.2019C19.0329 15.2019 19.2948 15.1306 19.2948 15.0427C19.2948 14.9548 19.0329 14.8835 18.7099 14.8835C18.3869 14.8835 18.125 14.9548 18.125 15.0427C18.125 15.1306 18.3869 15.2019 18.7099 15.2019Z" fill="#D4D4D6"/>
<path d="M18.7093 19.0778C19.6468 19.0778 20.4069 18.9819 20.4069 18.8636C20.4069 18.7453 19.6468 18.6494 18.7093 18.6494C17.7718 18.6494 17.0117 18.7453 17.0117 18.8636C17.0117 18.9819 17.7718 19.0778 18.7093 19.0778Z" fill="#D4D4D6"/>
<path d="M17.4473 19.3054C17.4473 19.3933 18.7086 19.38 18.7086 19.38C18.7086 19.38 19.97 19.3933 19.97 19.3054C19.97 19.2175 19.4053 19.1462 18.7086 19.1462C18.012 19.1462 17.4473 19.2175 17.4473 19.3054Z" fill="#D4D4D6"/>
<path d="M19.2948 13.9575H18.125V15.0428H19.2948V13.9575Z" fill="#D4D4D6"/>
<path d="M19.2942 15.0427L20.4069 18.8637H17.0117L18.1244 15.0427H19.2942Z" fill="#D4D4D6"/>
<path d="M20.4069 18.8638C20.4069 19.2155 19.9707 19.3054 19.9707 19.3054H17.4479C17.4479 19.3054 17.0117 19.1887 17.0117 18.8638H20.4069Z" fill="#D4D4D6"/>
<path d="M18.4467 14.8468H18.9836C19.0346 14.8468 19.0776 14.8089 19.084 14.7583L19.2284 13.6194C19.2361 13.5589 19.189 13.5054 19.128 13.5054H18.2908C18.2293 13.5054 18.1821 13.5596 18.1904 13.6204L18.3464 14.7593C18.3533 14.8094 18.3961 14.8468 18.4467 14.8468Z" fill="#EEA617"/>
<path d="M17.3945 18.6895C17.3945 18.9411 17.7323 19.0314 17.7323 19.0314C17.7323 19.0995 18.709 19.0778 18.709 19.0778C18.709 19.0778 19.6858 19.0995 19.6858 19.0314C19.6858 19.0314 20.0236 18.9618 20.0236 18.6895C20.0236 18.6854 20.0223 18.6812 20.02 18.6772L19.3542 16.3909L19.3356 16.3274H18.0824L18.0639 16.3909L17.3981 18.6772C17.3958 18.6812 17.3945 18.6854 17.3945 18.6895Z" fill="#345278"/>
<path d="M17.9652 14.2527H19.4534C19.4643 14.2527 19.4732 14.2438 19.4732 14.2329V13.9246C19.4732 13.9137 19.4643 13.9048 19.4534 13.9048H17.9652C17.9542 13.9048 17.9453 13.9137 17.9453 13.9246V14.2329C17.9453 14.2438 17.9542 14.2527 17.9652 14.2527Z" fill="#D4D4D6"/>
<path d="M19.2833 14.175C18.9008 14.175 18.5183 14.175 18.1358 14.175C18.0355 14.175 18.0354 14.3309 18.1358 14.3309C18.5183 14.3309 18.9008 14.3309 19.2833 14.3309C19.3835 14.3309 19.3837 14.175 19.2833 14.175Z" fill="black"/>
<path d="M17.5985 7.11571C17.6777 7.22177 17.7448 7.33584 17.7996 7.45559C19.1724 6.29583 18.6774 4.71436 18.6774 4.71436L18.28 5.02768C17.9595 5.4584 17.654 5.87272 17.463 6.1397C17.3848 6.24856 17.3069 6.36456 17.2932 6.49485C17.2688 6.73092 17.4563 6.92574 17.5985 7.11571Z" fill="#ED6141"/>
<path d="M14.5816 3.81967C14.7648 4.181 14.9695 4.35088 15.0835 4.68619C15.2436 5.15794 15.4481 5.32869 15.6305 5.66271C15.7031 5.79616 16.5352 7.19216 16.8565 7.18761C17.1256 7.1837 17.2703 7.14728 17.4987 7.00583C18.5395 6.36157 19.1959 5.20995 19.485 4.01093C19.5654 3.67624 19.6211 3.32888 19.5734 2.98725C19.5184 2.59583 19.328 2.22989 19.0659 1.93541C18.2176 0.982601 16.7442 0.503229 15.6918 1.09566C14.9328 1.52262 14.3663 1.88948 14.3048 2.76616C14.2887 2.99365 14.3661 3.39451 14.5816 3.81967Z" fill="#F4B4A8"/>
<path d="M15.2897 1.39293C15.3895 1.34511 15.6222 0.599976 17.158 0.363034C18.0257 0.229164 18.344 1.16625 18.7537 0.86472C18.9858 0.693877 19.3721 1.02509 19.5865 1.54446C20.065 2.70385 19.8236 4.98105 19.6975 5.01657C19.4676 5.08137 18.7167 3.52963 18.1126 3.48793C16.7033 3.39064 16.4788 2.6926 16.0746 2.75141C15.5955 2.82116 15.2727 3.46552 14.6452 3.4561C14.0142 3.44664 14.2472 1.89198 15.2897 1.39293Z" fill="black"/>
<path d="M17.5977 3.44997C17.5977 3.44997 17.8681 2.74436 18.3381 3.05029C18.8081 3.35621 18.7743 3.9853 18.2216 4.48173C17.6689 4.97815 17.5977 3.44997 17.5977 3.44997Z" fill="#F4B4A8"/>
<path d="M17.7823 3.76335C17.8829 3.81518 17.9975 3.74505 18.0192 3.63883C18.0297 3.58734 18.0212 3.53724 18.0129 3.48609C18.0105 3.47183 18.0075 3.44983 18.0103 3.43082C18.0099 3.43365 18.0146 3.41687 18.0158 3.41361C18.0098 3.4305 18.0208 3.4065 18.0228 3.40303C18.0279 3.39582 18.0278 3.3958 18.0226 3.40299C18.0255 3.39962 18.0285 3.39636 18.0316 3.39322C18.0348 3.39006 18.0381 3.38701 18.0415 3.3841C18.0345 3.38917 18.0346 3.38909 18.0419 3.38389C18.0477 3.3802 18.0533 3.37642 18.0594 3.37312C18.0634 3.37091 18.0675 3.36884 18.0717 3.3669C18.0637 3.37013 18.0639 3.37014 18.0724 3.36692C18.0813 3.36429 18.0902 3.36196 18.0991 3.35944C18.1083 3.35784 18.1082 3.35768 18.099 3.35895C18.1036 3.35846 18.1082 3.35813 18.1128 3.35795C18.1198 3.35769 18.1266 3.35812 18.1335 3.35829C18.1428 3.35916 18.1427 3.35911 18.1332 3.35813C18.1382 3.35906 18.1431 3.36016 18.148 3.36145C18.1509 3.36222 18.1777 3.37211 18.1644 3.36618C18.1734 3.37018 18.1821 3.37502 18.1904 3.38024C18.1946 3.38286 18.1987 3.3856 18.2027 3.38847C18.1967 3.38369 18.1973 3.3842 18.2043 3.39C18.2098 3.395 18.2153 3.3999 18.2204 3.40522C18.2224 3.4072 18.2407 3.42886 18.2322 3.4177C18.2382 3.42557 18.2436 3.43397 18.2486 3.44249C18.2536 3.451 18.2582 3.45977 18.2622 3.46878C18.2561 3.45517 18.2664 3.48186 18.2673 3.4846C18.2799 3.52472 18.3214 3.55046 18.3631 3.53901C18.4026 3.52816 18.4302 3.48346 18.4175 3.44318C18.3902 3.35681 18.3322 3.27603 18.2497 3.23482C18.1637 3.19182 18.0655 3.1921 17.9807 3.23857C17.8923 3.28702 17.8454 3.37847 17.8558 3.47829C17.8575 3.49475 17.86 3.51116 17.8626 3.52751C17.8636 3.53383 17.8646 3.54014 17.8657 3.54645C17.8673 3.55731 17.8676 3.55905 17.8666 3.55167C17.868 3.56275 17.8688 3.57394 17.8688 3.5851C17.8689 3.59065 17.8687 3.59619 17.8682 3.60173C17.8694 3.59471 17.869 3.59594 17.8672 3.60545C17.864 3.61429 17.8639 3.61587 17.8669 3.61019C17.8648 3.61476 17.8623 3.61915 17.8596 3.62334C17.8649 3.61656 17.8646 3.61647 17.8585 3.62308C17.8655 3.61837 17.8653 3.61849 17.8579 3.62345C17.8498 3.62763 17.8499 3.62796 17.8579 3.62442C17.8537 3.62591 17.8494 3.62706 17.845 3.62787C17.8501 3.62578 17.8553 3.62578 17.8605 3.62787C17.852 3.62544 17.8521 3.62576 17.8609 3.62881C17.8235 3.60955 17.7763 3.61909 17.7543 3.65676C17.7339 3.69164 17.7447 3.74401 17.7823 3.76335Z" fill="#ED6141"/>
<path d="M15.1234 4.72364C15.1848 5.16018 15.1092 5.73113 15.2079 5.91569C15.3533 6.18734 15.5939 5.87428 15.7826 5.8314C15.7826 5.8314 15.0758 4.38538 15.1234 4.72364Z" fill="#F4B4A8"/>
<path d="M15.6871 4.8236C15.752 4.78587 15.7671 4.69088 15.7209 4.61144C15.6747 4.53201 15.5847 4.4982 15.5198 4.53593C15.4549 4.57366 15.4398 4.66864 15.486 4.74808C15.5322 4.82752 15.6223 4.86133 15.6871 4.8236Z" fill="black"/>
<path d="M15.9888 4.37377C15.9066 4.34481 15.8122 4.34609 15.7271 4.35817C15.5969 4.37664 15.4767 4.43935 15.3855 4.53395C15.3563 4.56425 15.3554 4.61399 15.3855 4.64414C15.4149 4.67355 15.4664 4.67454 15.4957 4.64414C15.5378 4.60049 15.5742 4.57299 15.6323 4.54567C15.637 4.5435 15.6476 4.53887 15.6372 4.54318C15.6438 4.54042 15.6506 4.53787 15.6573 4.53545C15.6705 4.5307 15.6838 4.52649 15.6973 4.52281C15.7081 4.51985 15.7191 4.51724 15.7301 4.51496C15.7365 4.51364 15.743 4.51242 15.7495 4.51132C15.7524 4.51082 15.7739 4.50836 15.7541 4.5104C15.7956 4.50613 15.8368 4.5047 15.8784 4.50873C15.8825 4.50912 15.8888 4.50899 15.8927 4.51031C15.8735 4.50388 15.8826 4.50877 15.8899 4.51008C15.8966 4.51129 15.9034 4.5124 15.9101 4.51382C15.9227 4.51649 15.9352 4.51974 15.9474 4.52403C15.9871 4.538 16.0327 4.50817 16.0433 4.46961C16.0551 4.42659 16.0287 4.38779 15.9888 4.37377Z" fill="black"/>
<path d="M15.2723 4.34503C15.3693 4.23375 15.5076 4.16159 15.6471 4.11852C15.7823 4.07681 15.937 4.05143 16.0741 4.09302C16.1701 4.12214 16.2184 3.97394 16.1223 3.9448C15.9577 3.89487 15.7746 3.91662 15.6126 3.96653C15.449 4.01696 15.2814 4.09894 15.1672 4.22994C15.1396 4.26162 15.1316 4.30644 15.1622 4.34001C15.1881 4.36835 15.2445 4.37691 15.2723 4.34503Z" fill="black"/>
<path d="M18.8517 0.83908C18.6186 0.209379 18.0066 0.0381217 17.3369 0.00238222C16.8148 -0.0254799 16.3531 0.193907 15.9433 0.511202C15.5689 0.801011 15.301 1.1358 14.8082 1.22449C13.5379 1.45312 13.2359 3.03296 14.2139 3.41401C14.6953 3.60161 15.2588 3.36287 15.6393 3.01646C16.008 2.6808 16.2531 2.20016 16.7256 1.98631C17.0734 1.82887 17.4584 1.77844 17.8306 1.69287C18.2028 1.60731 18.5833 1.47477 18.8433 1.1968C18.8796 1.15799 18.9153 1.11037 18.9096 1.05796L18.8517 0.83908Z" fill="black"/>
<path d="M15.8541 5.68576C15.8346 5.67103 15.8454 5.67902 15.8495 5.6831C15.8558 5.68943 15.8547 5.69411 15.8465 5.67818C15.8478 5.68075 15.8498 5.68307 15.8513 5.68557C15.853 5.6885 15.8586 5.70097 15.8529 5.68728C15.8473 5.67409 15.8516 5.68466 15.8526 5.68789C15.8537 5.69132 15.8544 5.69478 15.8553 5.69824C15.8587 5.711 15.854 5.67769 15.8546 5.69182C15.8547 5.69486 15.855 5.69789 15.855 5.70094C15.8551 5.70401 15.855 5.7071 15.8549 5.71017C15.8548 5.71264 15.8546 5.71512 15.8543 5.71759C15.8549 5.71316 15.8555 5.70873 15.8561 5.7043C15.8578 5.70903 15.8524 5.72183 15.851 5.72639C15.8501 5.72942 15.8488 5.73237 15.8479 5.73539C15.8453 5.74422 15.8565 5.71782 15.8506 5.72908C15.847 5.73589 15.8432 5.74236 15.8392 5.74893C15.8327 5.75984 15.8499 5.73641 15.8433 5.74411C15.8403 5.74754 15.8374 5.75103 15.8344 5.75435C15.8287 5.76041 15.8228 5.76615 15.8165 5.77158C15.8105 5.77685 15.8025 5.77866 15.8182 5.77077C15.815 5.7724 15.812 5.77534 15.809 5.77743C15.8021 5.78221 15.7951 5.78674 15.7878 5.79101C15.7732 5.79969 15.758 5.8074 15.7426 5.8146C15.7342 5.81855 15.7256 5.82229 15.717 5.82602C15.7034 5.83196 15.7333 5.81932 15.7185 5.82542C15.7142 5.82719 15.71 5.82898 15.7057 5.83075C15.6861 5.83885 15.6703 5.84751 15.6591 5.86656C15.6494 5.88326 15.6452 5.90787 15.6513 5.9266C15.6574 5.94545 15.6691 5.96364 15.6871 5.97316C15.7043 5.98225 15.7282 5.98882 15.7471 5.98101C15.8345 5.9449 15.9306 5.90434 15.9798 5.81789C16.0016 5.77967 16.0145 5.73234 16.0101 5.68821C16.0072 5.66013 16.0014 5.63684 15.9884 5.61156C15.9753 5.58606 15.9552 5.56815 15.9328 5.55123C15.9177 5.53988 15.89 5.53863 15.8727 5.54338C15.8547 5.54835 15.8351 5.56233 15.8262 5.57918C15.8166 5.59726 15.8118 5.61916 15.8183 5.63922C15.8249 5.65975 15.837 5.67284 15.8541 5.68576Z" fill="#ED6141"/>
<path d="M16.1109 6.43782C16.3169 6.36242 16.503 6.23471 16.6396 6.06222C16.6649 6.03034 16.6731 5.98274 16.6396 5.95203C16.6115 5.92619 16.5565 5.91792 16.5294 5.95203C16.499 5.9905 16.4661 6.02698 16.4308 6.06105C16.4126 6.07861 16.3938 6.09554 16.3744 6.1118C16.3653 6.11952 16.3559 6.1271 16.3465 6.13451C16.3409 6.13891 16.3498 6.13224 16.34 6.13938C16.3346 6.14332 16.3293 6.14732 16.3239 6.15122C16.2836 6.18014 16.2415 6.20643 16.1979 6.2298C16.1496 6.25565 16.1145 6.27106 16.0695 6.28755C16.0313 6.30152 16.0014 6.34107 16.0151 6.38339C16.0272 6.42087 16.0699 6.45282 16.1109 6.43782Z" fill="#ED6141"/>
<path d="M16.3282 6.62682C16.3629 6.60096 16.3975 6.5751 16.4322 6.54924C16.4413 6.54434 16.4486 6.53765 16.4541 6.52917C16.461 6.52165 16.4656 6.51281 16.468 6.50267C16.4713 6.49232 16.4717 6.48196 16.4694 6.47161C16.4689 6.46124 16.4659 6.45158 16.4602 6.44264C16.4494 6.42601 16.4335 6.41136 16.4136 6.40683C16.4067 6.40591 16.3998 6.40498 16.3929 6.40405C16.3788 6.4041 16.3657 6.40764 16.3536 6.41469C16.3189 6.44055 16.2842 6.4664 16.2496 6.49227C16.2405 6.49716 16.2332 6.50385 16.2277 6.51234C16.2208 6.51986 16.2162 6.5287 16.2138 6.53883C16.2105 6.54919 16.2101 6.55955 16.2124 6.5699C16.2129 6.58027 16.2159 6.58992 16.2216 6.59886C16.2324 6.6155 16.2483 6.63014 16.2682 6.63467C16.2751 6.63559 16.282 6.63652 16.2889 6.63745C16.303 6.63741 16.3161 6.63386 16.3282 6.62682Z" fill="#ED6141"/>
<path d="M18.7637 0.916174C18.8749 0.827262 19.0449 0.831147 19.1682 0.891185C19.3133 0.961852 19.4158 1.0895 19.4932 1.22778C19.5422 1.3153 19.6768 1.23683 19.6277 1.14913C19.5311 0.976327 19.3945 0.817239 19.2082 0.73943C19.0241 0.662503 18.811 0.680082 18.6535 0.80599C18.6206 0.832289 18.6261 0.888741 18.6535 0.916174C18.686 0.948664 18.7307 0.942542 18.7637 0.916174Z" fill="black"/>
<path d="M18.3086 14.6095C18.3086 14.7436 18.3086 14.8777 18.3086 15.0119C18.3086 15.0526 18.3444 15.0917 18.3865 15.0898C18.4287 15.0879 18.4644 15.0555 18.4644 15.0119C18.4644 14.8777 18.4644 14.7436 18.4644 14.6095C18.4644 14.5687 18.4286 14.5297 18.3865 14.5316C18.3443 14.5335 18.3086 14.5658 18.3086 14.6095Z" fill="white"/>
</svg>
