<svg width="43" height="43" viewBox="0 0 43 43" fill="none" xmlns="http://www.w3.org/2000/svg">
<path d="M14.5803 32.9091V35.1464C14.5804 36.0219 14.408 36.889 14.0729 37.6979C13.7379 38.5068 13.2467 39.2418 12.6274 39.8609L11.2478 41.2405H31.2433L29.8636 39.8609C29.2444 39.2418 28.7532 38.5068 28.4181 37.6979C28.083 36.889 27.9106 36.0219 27.9107 35.1464V32.9091M41.241 6.24839V27.9102C41.241 29.236 40.7144 30.5075 39.7769 31.4449C38.8394 32.3824 37.5679 32.9091 36.2422 32.9091H6.24888C4.92309 32.9091 3.65161 32.3824 2.71414 31.4449C1.77667 30.5075 1.25 29.236 1.25 27.9102V6.24839M41.241 6.24839C41.241 4.92261 40.7144 3.65112 39.7769 2.71365C38.8394 1.77618 37.5679 1.24951 36.2422 1.24951H6.24888C4.92309 1.24951 3.65161 1.77618 2.71414 2.71365C1.77667 3.65112 1.25 4.92261 1.25 6.24839M41.241 6.24839V21.245C41.241 22.5708 40.7144 23.8423 39.7769 24.7798C38.8394 25.7172 37.5679 26.2439 36.2422 26.2439H6.24888C4.92309 26.2439 3.65161 25.7172 2.71414 24.7798C1.77667 23.8423 1.25 22.5708 1.25 21.245V6.24839" stroke="url(#paint0_linear_20_9245)" stroke-width="2.49944" stroke-linecap="round" stroke-linejoin="round"/>
<path d="M30.836 14.9578L26.6421 14.9062L25.258 5.69663L23.5838 18.0737L22.508 10.0293L21.5142 14.8321L16.3822 14.7668L15.523 18.8398L13.8167 5.28309L12.7639 14.7205L11.1264 14.7L11.119 15.2644L13.2683 15.2902L13.8504 10.0715L15.3825 22.2416L16.839 15.3376L21.9733 15.4044L22.3885 13.3999L23.5796 22.3181L25.2875 9.69831L26.1541 15.4659L30.8286 15.5233L30.836 14.9578Z" fill="url(#paint1_linear_20_9245)"/>
<defs>
<linearGradient id="paint0_linear_20_9245" x1="1.25" y1="21.245" x2="41.241" y2="21.245" gradientUnits="userSpaceOnUse">
<stop offset="0.0288475" stop-color="#0F7D8A"/>
<stop offset="0.495225" stop-color="#3EEBFF"/>
<stop offset="1" stop-color="#0F7D8A"/>
</linearGradient>
<linearGradient id="paint1_linear_20_9245" x1="21.1048" y1="5.37842" x2="20.8833" y2="22.3135" gradientUnits="userSpaceOnUse">
<stop stop-color="#D5181B"/>
<stop offset="1" stop-color="#6F0D0E"/>
</linearGradient>
</defs>
</svg>
