<svg width="20" height="16" viewBox="0 0 20 16" fill="none" xmlns="http://www.w3.org/2000/svg">
<path d="M18 0.375C18.4497 0.375 18.8252 0.531221 19.1475 0.853516C19.4698 1.1758 19.6255 1.5513 19.625 2V14C19.625 14.4499 19.4692 14.8262 19.1475 15.1484C18.8262 15.4702 18.4502 15.6255 18 15.625H2C1.55015 15.625 1.17502 15.469 0.853516 15.1475C0.532117 14.8261 0.37565 14.4506 0.375 14V4C0.375 3.55048 0.530619 3.17501 0.852539 2.85352C1.13458 2.57196 1.45787 2.41751 1.83496 2.38281L2 2.375H8.15527L8.26562 2.26562L10.1562 0.375H18ZM10.625 9C10.625 9.44987 10.4692 9.82618 10.1475 10.1484C9.82618 10.4702 9.45016 10.6255 9 10.625H1.625V14.375H18.375V1.625H10.625V9ZM8.73438 3.55957L3.55957 8.73438L2.91992 9.375H9.375V2.91992L8.73438 3.55957ZM1.625 8.90527L2.26562 8.26562L6.26562 4.26562L6.90527 3.625H1.625V8.90527Z" stroke="white" stroke-width="0.75"/>
</svg>
