<svg width="11" height="18" viewBox="0 0 11 18" fill="none" xmlns="http://www.w3.org/2000/svg">
<path d="M4.14443 0.592285H2.36811C1.897 0.592285 1.44519 0.779432 1.11207 1.11256C0.778944 1.44568 0.591797 1.89749 0.591797 2.3686V15.3949C0.591797 15.866 0.778944 16.3178 1.11207 16.651C1.44519 16.9841 1.897 17.1712 2.36811 17.1712H8.28917C8.76027 17.1712 9.21209 16.9841 9.54521 16.651C9.87833 16.3178 10.0655 15.866 10.0655 15.3949V2.3686C10.0655 1.89749 9.87833 1.44568 9.54521 1.11256C9.21209 0.779432 8.76027 0.592285 8.28917 0.592285H6.51285M4.14443 0.592285V1.7765H6.51285V0.592285M4.14443 0.592285H6.51285M4.14443 15.3949H6.51285" stroke="white" stroke-width="1.18421" stroke-linecap="round" stroke-linejoin="round"/>
</svg>
